<?xml version="1.0" standalone="no"?>
<!DOCTYPE svg PUBLIC "-//W3C//DTD SVG 1.1//EN" "http://www.w3.org/Graphics/SVG/1.1/DTD/svg11.dtd" >
<svg>
<metadata>
Created by FontForge 20110222 at Wed Mar 27 17:30:34 2013
 By www-data
http://fonts.tom7.com/ - PROG.BOT Copyright (c) 2001 Tom 7 - Distribute and use freely, but never sell (on CD for instance!) - imightbetm@aol.com - 339 Still Hill Rd - Hamden CT 06518 - USA - I am Robot and Proud
</metadata>
<defs>
<font id="PROGBOT" horiz-adv-x="720" >
  <font-face 
    font-family="PROG.BOT"
    font-weight="400"
    font-stretch="normal"
    units-per-em="1000"
    panose-1="0 0 4 0 0 0 0 0 0 0"
    ascent="800"
    descent="-200"
    x-height="564"
    cap-height="785"
    bbox="18 -200 1062 800"
    underline-thickness="20"
    underline-position="-123"
    unicode-range="U+0020-2026"
  />
<missing-glyph horiz-adv-x="500" 
d="M63 0v800h375v-800h-375zM125 63h250v675h-250v-675z" />
    <glyph glyph-name=".notdef" horiz-adv-x="500" 
d="M63 0v800h375v-800h-375zM125 63h250v675h-250v-675z" />
    <glyph glyph-name=".null" horiz-adv-x="0" 
 />
    <glyph glyph-name="nonmarkingreturn" horiz-adv-x="416" 
 />
    <glyph glyph-name="space" unicode=" " horiz-adv-x="416" 
 />
    <glyph glyph-name="exclam" unicode="!" horiz-adv-x="398" 
d="M254 738q0 -19 -13.5 -32t-32.5 -13t-32 13t-13 32t13 32t32 13t32.5 -13t13.5 -32zM253 632q0 -19 -13 -32.5t-32 -13.5t-32 13.5t-13 32.5t13 32t32 13t32 -13t13 -32zM124 738q0 -13 -9.5 -22.5t-22.5 -9.5q-31 0 -31 32t31 32q13 0 22.5 -9.5t9.5 -22.5zM255 518
q0 -19 -13.5 -32t-32.5 -13t-32 13t-13 32t13 32t32 13t32.5 -13t13.5 -32zM137 632q0 -19 -13 -32.5t-32 -13.5t-32 13.5t-13 32.5t13 32t32 13t32 -13t13 -32zM256 405q0 -19 -13 -32.5t-32 -13.5t-32.5 13.5t-13.5 32.5t13.5 32t32.5 13t32 -13t13 -32zM139 518
q0 -19 -13.5 -32t-32.5 -13t-32 13t-13 32t13 32t32 13t32.5 -13t13.5 -32zM126 405q0 -32 -31 -32q-13 0 -22.5 9.5t-9.5 22.5q0 31 32 31q31 0 31 -31zM258 178q0 -19 -13 -32t-32 -13t-32 13t-13 32t13 32t32 13t32 -13t13 -32zM260 64q0 -19 -13.5 -32t-32.5 -13t-32 13
t-13 32t13 32.5t32 13.5t32.5 -13.5t13.5 -32.5zM142 178q0 -19 -13 -32t-32 -13t-32 13t-13 32t13 32t32 13t32 -13t13 -32zM144 64q0 -19 -13.5 -32t-32.5 -13t-32 13t-13 32t13 32.5t32 13.5t32.5 -13.5t13.5 -32.5zM277 634zM278 520z" />
    <glyph glyph-name="quotedbl" unicode="&#x22;" horiz-adv-x="729" 
d="M599 739q0 -19 -13.5 -32t-32.5 -13t-32 13t-13 32t13 32t32 13t32.5 -13t13.5 -32zM598 633q0 -19 -13.5 -32.5t-31.5 -13.5q-19 0 -32 13.5t-13 32.5t13 32t32 13t32 -13t13 -32zM483 739q0 -19 -13.5 -32t-32.5 -13t-32 13t-13 32t13 32t32 13t32.5 -13t13.5 -32z
M600 519q0 -19 -13.5 -32t-32.5 -13t-32 13t-13 32t13 32t32 13t32.5 -13t13.5 -32zM482 633q0 -19 -13.5 -32.5t-31.5 -13.5q-19 0 -32 13.5t-13 32.5t13 32t32 13t32 -13t13 -32zM456 519q0 -18 -18 -18t-18 18t18 18t18 -18zM254 738q0 -19 -13.5 -32t-32.5 -13t-32 13
t-13 32t13 32t32 13t32.5 -13t13.5 -32zM253 632q0 -19 -13 -32.5t-32 -13.5t-32 13.5t-13 32.5t13 32t32 13t32 -13t13 -32zM138 738q0 -19 -13.5 -32t-32.5 -13t-32 13t-13 32t13 32t32 13t32.5 -13t13.5 -32zM255 518q0 -19 -13.5 -32t-32.5 -13t-32 13t-13 32t13 32
t32 13t32.5 -13t13.5 -32zM137 632q0 -19 -13 -32.5t-32 -13.5t-32 13.5t-13 32.5t13 32t32 13t32 -13t13 -32zM111 518q0 -18 -18 -18t-18 18t18 18t18 -18z" />
    <glyph glyph-name="numbersign" unicode="#" horiz-adv-x="933" 
d="M713 741q0 -19 -13.5 -32t-32.5 -13t-32 13t-13 32t13 32t32 13t32.5 -13t13.5 -32zM827 521q0 -18 -13.5 -31.5t-32.5 -13.5q-18 0 -31.5 13.5t-13.5 31.5q0 19 13.5 32t31.5 13q19 0 32.5 -13t13.5 -32zM712 635q0 -19 -13.5 -32.5t-31.5 -13.5q-19 0 -32 13.5
t-13 32.5t13 32t32 13t32 -13t13 -32zM599 739q0 -19 -13.5 -32t-32.5 -13t-32 13t-13 32t13 32t32 13t32.5 -13t13.5 -32zM714 521q0 -19 -13.5 -32t-32.5 -13t-32 13t-13 32t13 32t32 13t32.5 -13t13.5 -32zM598 633q0 -19 -13.5 -32.5t-31.5 -13.5q-19 0 -32 13.5
t-13 32.5t13 32t32 13t32 -13t13 -32zM829 294q0 -18 -13 -31.5t-32 -13.5q-18 0 -31.5 13.5t-13.5 31.5q0 19 13.5 32t31.5 13q19 0 32 -13t13 -32zM715 408q0 -19 -13.5 -32.5t-31.5 -13.5q-19 0 -32.5 13.5t-13.5 32.5t13.5 32t32.5 13t32 -13t13 -32zM600 519
q0 -19 -13.5 -32t-32.5 -13t-32 13t-13 32t13 32t32 13t32.5 -13t13.5 -32zM368 740q0 -19 -13.5 -32t-32.5 -13t-32 13t-13 32t13 32t32 13t32.5 -13t13.5 -32zM716 294q0 -19 -13 -32t-32 -13t-32 13t-13 32t13 32t32 13t32 -13t13 -32zM601 406q0 -19 -13.5 -32.5
t-31.5 -13.5q-19 0 -32.5 13.5t-13.5 32.5t13.5 32t32.5 13t32 -13t13 -32zM484 519q0 -19 -13.5 -32t-32.5 -13t-32 13t-13 32t13 32t32 13t32.5 -13t13.5 -32zM367 634q0 -19 -13 -32.5t-32 -13.5t-32 13.5t-13 32.5t13 32t32 13t32 -13t13 -32zM254 738q0 -19 -13.5 -32
t-32.5 -13t-32 13t-13 32t13 32t32 13t32.5 -13t13.5 -32zM717 181q0 -19 -13 -32t-32 -13t-32 13t-13 32t13 32t32 13t32 -13t13 -32zM602 292q0 -19 -13 -32t-32 -13t-32 13t-13 32t13 32t32 13t32 -13t13 -32zM369 520q0 -19 -13.5 -32t-32.5 -13t-32 13t-13 32t13 32
t32 13t32.5 -13t13.5 -32zM253 632q0 -19 -13 -32.5t-32 -13.5t-32 13.5t-13 32.5t13 32t32 13t32 -13t13 -32zM719 67q0 -19 -13.5 -32t-32.5 -13t-32 13t-13 32t13 32.5t32 13.5t32.5 -13.5t13.5 -32.5zM603 179q0 -19 -13 -32t-32 -13t-32 13t-13 32t13 32t32 13t32 -13
t13 -32zM486 292q0 -19 -13 -32t-32 -13t-32 13t-13 32t13 32t32 13t32 -13t13 -32zM370 407q0 -19 -13 -32.5t-32 -13.5t-32.5 13.5t-13.5 32.5t13.5 32t32.5 13t32 -13t13 -32zM255 518q0 -19 -13.5 -32t-32.5 -13t-32 13t-13 32t13 32t32 13t32.5 -13t13.5 -32zM605 65
q0 -19 -13.5 -32t-32.5 -13t-32 13t-13 32t13 32.5t32 13.5t32.5 -13.5t13.5 -32.5zM371 293q0 -19 -13 -32t-32 -13t-32 13t-13 32t13 32t32 13t32 -13t13 -32zM256 405q0 -19 -13 -32.5t-32 -13.5t-32.5 13.5t-13.5 32.5t13.5 32t32.5 13t32 -13t13 -32zM139 518
q0 -19 -13.5 -32t-32.5 -13t-32 13t-13 32t13 32t32 13t32.5 -13t13.5 -32zM372 180q0 -19 -13 -32t-32 -13t-32 13t-13 32t13 32t32 13t32 -13t13 -32zM257 291q0 -19 -13 -32t-32 -13t-32 13t-13 32t13 32t32 13t32 -13t13 -32zM374 66q0 -19 -13.5 -32t-32.5 -13t-32 13
t-13 32t13 32.5t32 13.5t32.5 -13.5t13.5 -32.5zM258 178q0 -19 -13 -32t-32 -13t-32 13t-13 32t13 32t32 13t32 -13t13 -32zM141 291q0 -19 -13 -32t-32 -13t-32 13t-13 32t13 32t32 13t32 -13t13 -32zM260 64q0 -19 -13.5 -32t-32.5 -13t-32 13t-13 32t13 32.5t32 13.5
t32.5 -13.5t13.5 -32.5z" />
    <glyph glyph-name="dollar" unicode="$" horiz-adv-x="701" 
d="M598 633q0 -19 -13.5 -32.5t-31.5 -13.5q-19 0 -32 13.5t-13 32.5t13 32t32 13t32 -13t13 -32zM482 633q0 -19 -13.5 -32.5t-31.5 -13.5q-19 0 -32 13.5t-13 32.5t13 32t32 13t32 -13t13 -32zM368 740q0 -19 -13.5 -32t-32.5 -13t-32 13t-13 32t13 32t32 13t32.5 -13
t13.5 -32zM587 406q0 -32 -31 -32q-13 0 -22.5 9.5t-9.5 22.5q0 31 32 31q31 0 31 -31zM367 634q0 -19 -13 -32.5t-32 -13.5t-32 13.5t-13 32.5t13 32t32 13t32 -13t13 -32zM602 292q0 -19 -13 -32t-32 -13t-32 13t-13 32t13 32t32 13t32 -13t13 -32zM485 406
q0 -19 -13.5 -32.5t-31.5 -13.5q-19 0 -32.5 13.5t-13.5 32.5t13.5 32t32.5 13t32 -13t13 -32zM253 632q0 -19 -13 -32.5t-32 -13.5t-32 13.5t-13 32.5t13 32t32 13t32 -13t13 -32zM590 179q0 -13 -9.5 -22.5t-22.5 -9.5t-22.5 9.5t-9.5 22.5q0 31 32 31t32 -31zM486 292
q0 -19 -13 -32t-32 -13t-32 13t-13 32t13 32t32 13t32 -13t13 -32zM370 407q0 -19 -13 -32.5t-32 -13.5t-32.5 13.5t-13.5 32.5t13.5 32t32.5 13t32 -13t13 -32zM255 518q0 -19 -13.5 -32t-32.5 -13t-32 13t-13 32t13 32t32 13t32.5 -13t13.5 -32zM124 632q0 -13 -9.5 -22.5
t-22.5 -9.5t-22.5 9.5t-9.5 22.5q0 31 32 31t32 -31zM397 179q0 19 13 32t32 13t32 -13t13 -32h-90zM474 179q0 -13 -9.5 -22.5t-22.5 -9.5t-22.5 9.5t-9.5 22.5q0 31 32 31t32 -31zM256 405q0 -19 -13 -32.5t-32 -13.5t-32.5 13.5t-13.5 32.5t13.5 32t32.5 13t32 -13
t13 -32zM139 518q0 -19 -13.5 -32t-32.5 -13t-32 13t-13 32t13 32t32 13t32.5 -13t13.5 -32zM372 180q0 -19 -13 -32t-32 -13t-32 13t-13 32t13 32t32 13t32 -13t13 -32zM126 405q0 -32 -31 -32q-13 0 -22.5 9.5t-9.5 22.5q0 31 32 31q31 0 31 -31zM374 66q0 -19 -13.5 -32
t-32.5 -13t-32 13t-13 32t13 32.5t32 13.5t32.5 -13.5t13.5 -32.5zM258 178q0 -19 -13 -32t-32 -13t-32 13t-13 32t13 32t32 13t32 -13t13 -32zM142 178q0 -19 -13 -32t-32 -13t-32 13t-13 32t13 32t32 13t32 -13t13 -32z" />
    <glyph glyph-name="percent" unicode="%" horiz-adv-x="1006" 
d="M914 741q0 -18 -18 -18t-18 18t18 18t18 -18zM826 741q0 -18 -13.5 -31.5t-32.5 -13.5q-18 0 -31.5 13.5t-13.5 31.5q0 19 13.5 32t31.5 13q19 0 32.5 -13t13.5 -32zM798 635q0 -18 -18 -18t-18 18t18 18t18 -18zM699 741q0 -13 -9.5 -22.5t-22.5 -9.5q-31 0 -31 32
t31 32q13 0 22.5 -9.5t9.5 -22.5zM712 635q0 -19 -13.5 -32.5t-31.5 -13.5q-19 0 -32 13.5t-13 32.5t13 32t32 13t32 -13t13 -32zM686 521q0 -18 -18 -18t-18 18t18 18t18 -18zM585 633q0 -13 -9.5 -22.5t-22.5 -9.5t-22.5 9.5t-9.5 22.5q0 31 32 31t32 -31zM802 294
q0 -18 -18 -18t-18 18t18 18t18 -18zM600 519q0 -19 -13.5 -32t-32.5 -13t-32 13t-13 32t13 32t32 13t32.5 -13t13.5 -32zM340 740q0 -18 -18 -18t-18 18t18 18t18 -18zM830 181q0 -18 -13 -31.5t-32 -13.5q-18 0 -31.5 13.5t-13.5 31.5q0 19 13.5 32t31.5 13q19 0 32 -13
t13 -32zM716 294q0 -19 -13 -32t-32 -13t-32 13t-13 32t13 32t32 13t32 -13t13 -32zM574 406q0 -18 -18 -18t-18 18t18 18t18 -18zM470 519q0 -13 -9.5 -22.5t-22.5 -9.5q-31 0 -31 32t31 32q13 0 22.5 -9.5t9.5 -22.5zM367 634q0 -19 -13 -32.5t-32 -13.5t-32 13.5
t-13 32.5t13 32t32 13t32 -13t13 -32zM254 738q0 -19 -13.5 -32t-32.5 -13t-32 13t-13 32t13 32t32 13t32.5 -13t13.5 -32zM804 67q0 -18 -18 -18t-18 18t18 18t18 -18zM575 292q0 -18 -18 -18t-18 18t18 18t18 -18zM485 406q0 -19 -13.5 -32.5t-31.5 -13.5
q-19 0 -32.5 13.5t-13.5 32.5t13.5 32t32.5 13t32 -13t13 -32zM341 520q0 -18 -18 -18t-18 18t18 18t18 -18zM110 738q0 -18 -18 -18t-18 18t18 18t18 -18zM719 67q0 -19 -13.5 -32t-32.5 -13t-32 13t-13 32t13 32.5t32 13.5t32.5 -13.5t13.5 -32.5zM603 179q0 -19 -13 -32
t-32 -13t-32 13t-13 32t13 32t32 13t32 -13t13 -32zM459 292q0 -18 -18 -18t-18 18t18 18t18 -18zM356 407q0 -32 -31 -32q-13 0 -22.5 9.5t-9.5 22.5q0 31 32 31q31 0 31 -31zM255 518q0 -19 -13.5 -32t-32.5 -13t-32 13t-13 32t13 32t32 13t32.5 -13t13.5 -32zM137 632
q0 -19 -13 -32.5t-32 -13.5t-32 13.5t-13 32.5t13 32t32 13t32 -13t13 -32zM577 65q0 -18 -18 -18t-18 18t18 18t18 -18zM371 293q0 -19 -13 -32t-32 -13t-32 13t-13 32t13 32t32 13t32 -13t13 -32zM111 518q0 -18 -18 -18t-18 18t18 18t18 -18zM345 180q0 -18 -18 -18
t-18 18t18 18t18 -18zM243 291q0 -31 -31 -31q-32 0 -32 31q0 13 9.5 22.5t22.5 9.5q31 0 31 -32zM258 178q0 -19 -13 -32t-32 -13t-32 13t-13 32t13 32t32 13t32 -13t13 -32zM232 64q0 -18 -18 -18t-18 18t18 18t18 -18zM129 178q0 -13 -9.5 -22.5t-22.5 -9.5t-22.5 9.5
t-9.5 22.5q0 31 32 31t32 -31zM144 64q0 -19 -13.5 -32t-32.5 -13t-32 13t-13 32t13 32.5t32 13.5t32.5 -13.5t13.5 -32.5z" />
    <glyph glyph-name="ampersand" unicode="&#x26;" horiz-adv-x="905" 
d="M814 408q0 -32 -31 -32q-13 0 -22.5 9.5t-9.5 22.5q0 31 32 31q31 0 31 -31zM598 633q0 -19 -13.5 -32.5t-31.5 -13.5q-19 0 -32 13.5t-13 32.5t13 32t32 13t32 -13t13 -32zM483 739q0 -19 -13.5 -32t-32.5 -13t-32 13t-13 32t13 32t32 13t32.5 -13t13.5 -32zM715 408
q0 -19 -13.5 -32.5t-31.5 -13.5q-19 0 -32.5 13.5t-13.5 32.5t13.5 32t32.5 13t32 -13t13 -32zM600 519q0 -19 -13.5 -32t-32.5 -13t-32 13t-13 32t13 32t32 13t32.5 -13t13.5 -32zM482 633q0 -19 -13.5 -32.5t-31.5 -13.5q-19 0 -32 13.5t-13 32.5t13 32t32 13t32 -13
t13 -32zM368 740q0 -19 -13.5 -32t-32.5 -13t-32 13t-13 32t13 32t32 13t32.5 -13t13.5 -32zM702 294q0 -31 -31 -31q-32 0 -32 31q0 13 9.5 22.5t22.5 9.5q31 0 31 -32zM574 406q0 -18 -18 -18t-18 18t18 18t18 -18zM484 519q0 -19 -13.5 -32t-32.5 -13t-32 13t-13 32
t13 32t32 13t32.5 -13t13.5 -32zM254 738q0 -19 -13.5 -32t-32.5 -13t-32 13t-13 32t13 32t32 13t32.5 -13t13.5 -32zM602 292q0 -19 -13 -32t-32 -13t-32 13t-13 32t13 32t32 13t32 -13t13 -32zM485 406q0 -19 -13.5 -32.5t-31.5 -13.5q-19 0 -32.5 13.5t-13.5 32.5
t13.5 32t32.5 13t32 -13t13 -32zM253 632q0 -19 -13 -32.5t-32 -13.5t-32 13.5t-13 32.5t13 32t32 13t32 -13t13 -32zM719 67q0 -19 -13.5 -32t-32.5 -13t-32 13t-13 32t13 32.5t32 13.5t32.5 -13.5t13.5 -32.5zM603 179q0 -19 -13 -32t-32 -13t-32 13t-13 32t13 32t32 13
t32 -13t13 -32zM486 292q0 -19 -13 -32t-32 -13t-32 13t-13 32t13 32t32 13t32 -13t13 -32zM370 407q0 -19 -13 -32.5t-32 -13.5t-32.5 13.5t-13.5 32.5t13.5 32t32.5 13t32 -13t13 -32zM255 518q0 -19 -13.5 -32t-32.5 -13t-32 13t-13 32t13 32t32 13t32.5 -13t13.5 -32z
M137 632q0 -19 -13 -32.5t-32 -13.5t-32 13.5t-13 32.5t13 32t32 13t32 -13t13 -32zM605 65q0 -19 -13.5 -32t-32.5 -13t-32 13t-13 32t13 32.5t32 13.5t32.5 -13.5t13.5 -32.5zM474 179q0 -13 -9.5 -22.5t-22.5 -9.5t-22.5 9.5t-9.5 22.5q0 31 32 31t32 -31zM256 405
q0 -19 -13 -32.5t-32 -13.5t-32.5 13.5t-13.5 32.5t13.5 32t32.5 13t32 -13t13 -32zM139 518q0 -19 -13.5 -32t-32.5 -13t-32 13t-13 32t13 32t32 13t32.5 -13t13.5 -32zM475 65q0 -31 -32 -31q-31 0 -31 31q0 32 31 32q13 0 22.5 -9.5t9.5 -22.5zM257 291q0 -19 -13 -32
t-32 -13t-32 13t-13 32t13 32t32 13t32 -13t13 -32zM113 405q0 -18 -18 -18t-18 18t18 18t18 -18zM374 66q0 -19 -13.5 -32t-32.5 -13t-32 13t-13 32t13 32.5t32 13.5t32.5 -13.5t13.5 -32.5zM258 178q0 -19 -13 -32t-32 -13t-32 13t-13 32t13 32t32 13t32 -13t13 -32z
M141 291q0 -19 -13 -32t-32 -13t-32 13t-13 32t13 32t32 13t32 -13t13 -32zM260 64q0 -19 -13.5 -32t-32.5 -13t-32 13t-13 32t13 32.5t32 13.5t32.5 -13.5t13.5 -32.5zM142 178q0 -19 -13 -32t-32 -13t-32 13t-13 32t13 32t32 13t32 -13t13 -32z" />
    <glyph glyph-name="quotesingle" unicode="'" horiz-adv-x="489" 
d="M354 740q0 -13 -9.5 -22.5t-22.5 -9.5q-31 0 -31 32t31 32q13 0 22.5 -9.5t9.5 -22.5zM367 634q0 -19 -13 -32.5t-32 -13.5t-32 13.5t-13 32.5t13 32t32 13t32 -13t13 -32zM254 738q0 -19 -13.5 -32t-32.5 -13t-32 13t-13 32t13 32t32 13t32.5 -13t13.5 -32zM369 520
q0 -19 -13.5 -32t-32.5 -13t-32 13t-13 32t13 32t32 13t32.5 -13t13.5 -32zM253 632q0 -19 -13 -32.5t-32 -13.5t-32 13.5t-13 32.5t13 32t32 13t32 -13t13 -32zM124 738q0 -13 -9.5 -22.5t-22.5 -9.5q-31 0 -31 32t31 32q13 0 22.5 -9.5t9.5 -22.5zM343 407q0 -18 -18 -18
t-18 18t18 18t18 -18zM255 518q0 -19 -13.5 -32t-32.5 -13t-32 13t-13 32t13 32t32 13t32.5 -13t13.5 -32zM137 632q0 -19 -13 -32.5t-32 -13.5t-32 13.5t-13 32.5t13 32t32 13t32 -13t13 -32zM256 405q0 -19 -13 -32.5t-32 -13.5t-32.5 13.5t-13.5 32.5t13.5 32t32.5 13
t32 -13t13 -32zM126 405q0 -32 -31 -32q-13 0 -22.5 9.5t-9.5 22.5q0 31 32 31q31 0 31 -31z" />
    <glyph glyph-name="parenleft" unicode="(" horiz-adv-x="481" 
d="M368 740q0 -19 -13.5 -32t-32.5 -13t-32 13t-13 32t13 32t32 13t32.5 -13t13.5 -32zM340 634q0 -18 -18 -18t-18 18t18 18t18 -18zM254 738q0 -19 -13.5 -32t-32.5 -13t-32 13t-13 32t13 32t32 13t32.5 -13t13.5 -32zM253 632q0 -19 -13 -32.5t-32 -13.5t-32 13.5
t-13 32.5t13 32t32 13t32 -13t13 -32zM255 518q0 -19 -13.5 -32t-32.5 -13t-32 13t-13 32t13 32t32 13t32.5 -13t13.5 -32zM124 632q0 -13 -9.5 -22.5t-22.5 -9.5t-22.5 9.5t-9.5 22.5q0 31 32 31t32 -31zM256 405q0 -19 -13 -32.5t-32 -13.5t-32.5 13.5t-13.5 32.5t13.5 32
t32.5 13t32 -13t13 -32zM139 518q0 -19 -13.5 -32t-32.5 -13t-32 13t-13 32t13 32t32 13t32.5 -13t13.5 -32zM345 180q0 -18 -18 -18t-18 18t18 18t18 -18zM257 291q0 -19 -13 -32t-32 -13t-32 13t-13 32t13 32t32 13t32 -13t13 -32zM140 405q0 -19 -13 -32.5t-32 -13.5
t-32.5 13.5t-13.5 32.5t13.5 32t32.5 13t32 -13t13 -32zM374 66q0 -19 -13.5 -32t-32.5 -13t-32 13t-13 32t13 32.5t32 13.5t32.5 -13.5t13.5 -32.5zM258 178q0 -19 -13 -32t-32 -13t-32 13t-13 32t13 32t32 13t32 -13t13 -32zM141 291q0 -19 -13 -32t-32 -13t-32 13t-13 32
t13 32t32 13t32 -13t13 -32zM260 64q0 -19 -13.5 -32t-32.5 -13t-32 13t-13 32t13 32.5t32 13.5t32.5 -13.5t13.5 -32.5zM129 178q0 -13 -9.5 -22.5t-22.5 -9.5t-22.5 9.5t-9.5 22.5q0 31 32 31t32 -31z" />
    <glyph glyph-name="parenright" unicode=")" horiz-adv-x="486" 
d="M354 634q0 -13 -9.5 -22.5t-22.5 -9.5t-22.5 9.5t-9.5 22.5q0 31 32 31t32 -31zM254 738q0 -19 -13.5 -32t-32.5 -13t-32 13t-13 32t13 32t32 13t32.5 -13t13.5 -32zM369 520q0 -19 -13.5 -32t-32.5 -13t-32 13t-13 32t13 32t32 13t32.5 -13t13.5 -32zM253 632
q0 -19 -13 -32.5t-32 -13.5t-32 13.5t-13 32.5t13 32t32 13t32 -13t13 -32zM138 738q0 -19 -13.5 -32t-32.5 -13t-32 13t-13 32t13 32t32 13t32.5 -13t13.5 -32zM370 407q0 -19 -13 -32.5t-32 -13.5t-32.5 13.5t-13.5 32.5t13.5 32t32.5 13t32 -13t13 -32zM255 518
q0 -19 -13.5 -32t-32.5 -13t-32 13t-13 32t13 32t32 13t32.5 -13t13.5 -32zM110 632q0 -18 -18 -18t-18 18t18 18t18 -18zM371 293q0 -19 -13 -32t-32 -13t-32 13t-13 32t13 32t32 13t32 -13t13 -32zM256 405q0 -19 -13 -32.5t-32 -13.5t-32.5 13.5t-13.5 32.5t13.5 32
t32.5 13t32 -13t13 -32zM359 180q0 -13 -9.5 -22.5t-22.5 -9.5t-22.5 9.5t-9.5 22.5q0 31 32 31t32 -31zM257 291q0 -19 -13 -32t-32 -13t-32 13t-13 32t13 32t32 13t32 -13t13 -32zM258 178q0 -19 -13 -32t-32 -13t-32 13t-13 32t13 32t32 13t32 -13t13 -32zM260 64
q0 -19 -13.5 -32t-32.5 -13t-32 13t-13 32t13 32.5t32 13.5t32.5 -13.5t13.5 -32.5zM115 178q0 -18 -18 -18t-18 18t18 18t18 -18zM144 64q0 -19 -13.5 -32t-32.5 -13t-32 13t-13 32t13 32.5t32 13.5t32.5 -13.5t13.5 -32.5z" />
    <glyph glyph-name="asterisk" unicode="*" horiz-adv-x="1041" 
d="M825 635q0 -18 -13 -32t-32 -14q-18 0 -31.5 14t-13.5 32q0 19 13.5 32t31.5 13q19 0 32 -13t13 -32zM944 408q0 -18 -13 -32t-32 -14q-18 0 -32 14t-14 32q0 19 14 32t32 13q19 0 32 -13t13 -32zM799 521q0 -18 -18 -18t-18 18t18 18t18 -18zM699 635q0 -13 -9.5 -22.5
t-22.5 -9.5t-22.5 9.5t-9.5 22.5q0 31 32 31t32 -31zM828 408q0 -18 -13 -32t-32 -14q-18 0 -32 14t-14 32q0 19 14 32t32 13q19 0 32 -13t13 -32zM714 521q0 -19 -13.5 -32t-32.5 -13t-32 13t-13 32t13 32t32 13t32.5 -13t13.5 -32zM802 294q0 -18 -18 -18t-18 18t18 18
t18 -18zM715 408q0 -19 -13.5 -32.5t-31.5 -13.5q-19 0 -32.5 13.5t-13.5 32.5t13.5 32t32.5 13t32 -13t13 -32zM600 519q0 -19 -13.5 -32t-32.5 -13t-32 13t-13 32t13 32t32 13t32.5 -13t13.5 -32zM830 181q0 -18 -13 -31.5t-32 -13.5q-18 0 -31.5 13.5t-13.5 31.5
q0 19 13.5 32t31.5 13q19 0 32 -13t13 -32zM716 294q0 -19 -13 -32t-32 -13t-32 13t-13 32t13 32t32 13t32 -13t13 -32zM601 406q0 -19 -13.5 -32.5t-31.5 -13.5q-19 0 -32.5 13.5t-13.5 32.5t13.5 32t32.5 13t32 -13t13 -32zM484 519q0 -19 -13.5 -32t-32.5 -13t-32 13
t-13 32t13 32t32 13t32.5 -13t13.5 -32zM354 634q0 -13 -9.5 -22.5t-22.5 -9.5t-22.5 9.5t-9.5 22.5q0 31 32 31t32 -31zM704 181q0 -13 -9.5 -22.5t-22.5 -9.5t-22.5 9.5t-9.5 22.5q0 31 32 31t32 -31zM602 292q0 -19 -13 -32t-32 -13t-32 13t-13 32t13 32t32 13t32 -13
t13 -32zM485 406q0 -19 -13.5 -32.5t-31.5 -13.5q-19 0 -32.5 13.5t-13.5 32.5t13.5 32t32.5 13t32 -13t13 -32zM369 520q0 -19 -13.5 -32t-32.5 -13t-32 13t-13 32t13 32t32 13t32.5 -13t13.5 -32zM253 632q0 -19 -13 -32.5t-32 -13.5t-32 13.5t-13 32.5t13 32t32 13
t32 -13t13 -32zM486 292q0 -19 -13 -32t-32 -13t-32 13t-13 32t13 32t32 13t32 -13t13 -32zM370 407q0 -19 -13 -32.5t-32 -13.5t-32.5 13.5t-13.5 32.5t13.5 32t32.5 13t32 -13t13 -32zM227 518q0 -18 -18 -18t-18 18t18 18t18 -18zM371 293q0 -19 -13 -32t-32 -13t-32 13
t-13 32t13 32t32 13t32 -13t13 -32zM256 405q0 -19 -13 -32.5t-32 -13.5t-32.5 13.5t-13.5 32.5t13.5 32t32.5 13t32 -13t13 -32zM359 180q0 -13 -9.5 -22.5t-22.5 -9.5t-22.5 9.5t-9.5 22.5q0 31 32 31t32 -31zM230 291q0 -18 -18 -18t-18 18t18 18t18 -18zM140 405
q0 -19 -13 -32.5t-32 -13.5t-32.5 13.5t-13.5 32.5t13.5 32t32.5 13t32 -13t13 -32zM258 178q0 -19 -13 -32t-32 -13t-32 13t-13 32t13 32t32 13t32 -13t13 -32z" />
    <glyph glyph-name="plus" unicode="+" horiz-adv-x="798" 
d="M715 408q0 -19 -13.5 -32.5t-31.5 -13.5q-19 0 -32.5 13.5t-13.5 32.5t13.5 32t32.5 13t32 -13t13 -32zM482 633q0 -19 -13.5 -32.5t-31.5 -13.5q-19 0 -32 13.5t-13 32.5t13 32t32 13t32 -13t13 -32zM601 406q0 -19 -13.5 -32.5t-31.5 -13.5q-19 0 -32.5 13.5
t-13.5 32.5t13.5 32t32.5 13t32 -13t13 -32zM484 519q0 -19 -13.5 -32t-32.5 -13t-32 13t-13 32t13 32t32 13t32.5 -13t13.5 -32zM367 634q0 -19 -13 -32.5t-32 -13.5t-32 13.5t-13 32.5t13 32t32 13t32 -13t13 -32zM485 406q0 -19 -13.5 -32.5t-31.5 -13.5
q-19 0 -32.5 13.5t-13.5 32.5t13.5 32t32.5 13t32 -13t13 -32zM369 520q0 -19 -13.5 -32t-32.5 -13t-32 13t-13 32t13 32t32 13t32.5 -13t13.5 -32zM486 292q0 -19 -13 -32t-32 -13t-32 13t-13 32t13 32t32 13t32 -13t13 -32zM370 407q0 -19 -13 -32.5t-32 -13.5t-32.5 13.5
t-13.5 32.5t13.5 32t32.5 13t32 -13t13 -32zM487 179q0 -19 -13 -32t-32 -13t-32 13t-13 32t13 32t32 13t32 -13t13 -32zM371 293q0 -19 -13 -32t-32 -13t-32 13t-13 32t13 32t32 13t32 -13t13 -32zM256 405q0 -19 -13 -32.5t-32 -13.5t-32.5 13.5t-13.5 32.5t13.5 32
t32.5 13t32 -13t13 -32zM372 180q0 -19 -13 -32t-32 -13t-32 13t-13 32t13 32t32 13t32 -13t13 -32zM140 405q0 -19 -13 -32.5t-32 -13.5t-32.5 13.5t-13.5 32.5t13.5 32t32.5 13t32 -13t13 -32z" />
    <glyph glyph-name="comma" unicode="," horiz-adv-x="491" 
d="M356 407q0 -32 -31 -32q-13 0 -22.5 9.5t-9.5 22.5q0 31 32 31q31 0 31 -31zM371 293q0 -19 -13 -32t-32 -13t-32 13t-13 32t13 32t32 13t32 -13t13 -32zM256 405q0 -19 -13 -32.5t-32 -13.5t-32.5 13.5t-13.5 32.5t13.5 32t32.5 13t32 -13t13 -32zM372 180
q0 -19 -13 -32t-32 -13t-32 13t-13 32t13 32t32 13t32 -13t13 -32zM257 291q0 -19 -13 -32t-32 -13t-32 13t-13 32t13 32t32 13t32 -13t13 -32zM126 405q0 -32 -31 -32q-13 0 -22.5 9.5t-9.5 22.5q0 31 32 31q31 0 31 -31zM346 66q0 -18 -18 -18t-18 18t18 18t18 -18z
M258 178q0 -19 -13 -32t-32 -13t-32 13t-13 32t13 32t32 13t32 -13t13 -32zM141 291q0 -19 -13 -32t-32 -13t-32 13t-13 32t13 32t32 13t32 -13t13 -32zM260 64q0 -19 -13.5 -32t-32.5 -13t-32 13t-13 32t13 32.5t32 13.5t32.5 -13.5t13.5 -32.5zM130 64q0 -31 -32 -31
q-31 0 -31 31q0 32 31 32q13 0 22.5 -9.5t9.5 -22.5z" />
    <glyph glyph-name="hyphen" unicode="-" 
d="M601 406q0 -19 -13.5 -32.5t-31.5 -13.5q-19 0 -32.5 13.5t-13.5 32.5t13.5 32t32.5 13t32 -13t13 -32zM485 406q0 -19 -13.5 -32.5t-31.5 -13.5q-19 0 -32.5 13.5t-13.5 32.5t13.5 32t32.5 13t32 -13t13 -32zM370 407q0 -19 -13 -32.5t-32 -13.5t-32.5 13.5t-13.5 32.5
t13.5 32t32.5 13t32 -13t13 -32zM256 405q0 -19 -13 -32.5t-32 -13.5t-32.5 13.5t-13.5 32.5t13.5 32t32.5 13t32 -13t13 -32zM140 405q0 -19 -13 -32.5t-32 -13.5t-32.5 13.5t-13.5 32.5t13.5 32t32.5 13t32 -13t13 -32z" />
    <glyph glyph-name="hyphen" unicode="&#x2010;" 
d="M601 406q0 -19 -13.5 -32.5t-31.5 -13.5q-19 0 -32.5 13.5t-13.5 32.5t13.5 32t32.5 13t32 -13t13 -32zM485 406q0 -19 -13.5 -32.5t-31.5 -13.5q-19 0 -32.5 13.5t-13.5 32.5t13.5 32t32.5 13t32 -13t13 -32zM370 407q0 -19 -13 -32.5t-32 -13.5t-32.5 13.5t-13.5 32.5
t13.5 32t32.5 13t32 -13t13 -32zM256 405q0 -19 -13 -32.5t-32 -13.5t-32.5 13.5t-13.5 32.5t13.5 32t32.5 13t32 -13t13 -32zM140 405q0 -19 -13 -32.5t-32 -13.5t-32.5 13.5t-13.5 32.5t13.5 32t32.5 13t32 -13t13 -32z" />
    <glyph glyph-name="period" unicode="." horiz-adv-x="491" 
d="M357 293q0 -31 -31 -31q-32 0 -32 31q0 13 9.5 22.5t22.5 9.5q31 0 31 -32zM372 180q0 -19 -13 -32t-32 -13t-32 13t-13 32t13 32t32 13t32 -13t13 -32zM257 291q0 -19 -13 -32t-32 -13t-32 13t-13 32t13 32t32 13t32 -13t13 -32zM360 66q0 -31 -32 -31q-31 0 -31 31
q0 32 31 32q13 0 22.5 -9.5t9.5 -22.5zM258 178q0 -19 -13 -32t-32 -13t-32 13t-13 32t13 32t32 13t32 -13t13 -32zM127 291q0 -31 -31 -31q-32 0 -32 31q0 13 9.5 22.5t22.5 9.5q31 0 31 -32zM260 64q0 -19 -13.5 -32t-32.5 -13t-32 13t-13 32t13 32.5t32 13.5t32.5 -13.5
t13.5 -32.5zM142 178q0 -19 -13 -32t-32 -13t-32 13t-13 32t13 32t32 13t32 -13t13 -32zM130 64q0 -31 -32 -31q-31 0 -31 31q0 32 31 32q13 0 22.5 -9.5t9.5 -22.5z" />
    <glyph glyph-name="slash" unicode="/" horiz-adv-x="1074" 
d="M1028 743q0 -18 -18 -18t-18 18t18 18t18 -18zM942 741q0 -18 -13.5 -31.5t-32.5 -13.5q-18 0 -31.5 13.5t-13.5 31.5q0 19 13.5 32t31.5 13q19 0 32.5 -13t13.5 -32zM914 635q0 -18 -18 -18t-18 18t18 18t18 -18zM812 741q0 -13 -9 -22.5t-23 -9.5q-31 0 -31 32t31 32
q14 0 23 -9t9 -23zM825 635q0 -18 -13 -32t-32 -14q-18 0 -31.5 14t-13.5 32q0 19 13.5 32t31.5 13q19 0 32 -13t13 -32zM799 521q0 -18 -18 -18t-18 18t18 18t18 -18zM699 635q0 -13 -9.5 -22.5t-22.5 -9.5t-22.5 9.5t-9.5 22.5q0 31 32 31t32 -31zM714 521
q0 -19 -13.5 -32t-32.5 -13t-32 13t-13 32t13 32t32 13t32.5 -13t13.5 -32zM688 408q0 -18 -18 -18t-18 18t18 18t18 -18zM586 519q0 -13 -9.5 -22.5t-22.5 -9.5q-31 0 -31 32t31 32q13 0 22.5 -9.5t9.5 -22.5zM601 406q0 -19 -13.5 -32.5t-31.5 -13.5q-19 0 -32.5 13.5
t-13.5 32.5t13.5 32t32.5 13t32 -13t13 -32zM575 292q0 -18 -18 -18t-18 18t18 18t18 -18zM471 406q0 -32 -31 -32q-13 0 -22.5 9.5t-9.5 22.5q0 31 32 31q31 0 31 -31zM486 292q0 -19 -13 -32t-32 -13t-32 13t-13 32t13 32t32 13t32 -13t13 -32zM460 179q0 -18 -18 -18
t-18 18t18 18t18 -18zM357 293q0 -31 -31 -31q-32 0 -32 31q0 13 9.5 22.5t22.5 9.5q31 0 31 -32zM372 180q0 -19 -13 -32t-32 -13t-32 13t-13 32t13 32t32 13t32 -13t13 -32zM346 66q0 -18 -18 -18t-18 18t18 18t18 -18zM245 178q0 -13 -9.5 -22.5t-22.5 -9.5t-22.5 9.5
t-9.5 22.5q0 31 32 31t32 -31zM260 64q0 -19 -13.5 -32t-32.5 -13t-32 13t-13 32t13 32.5t32 13.5t32.5 -13.5t13.5 -32.5zM130 64q0 -31 -32 -31q-31 0 -31 31q0 32 31 32q13 0 22.5 -9.5t9.5 -22.5z" />
    <glyph glyph-name="zero" unicode="0" horiz-adv-x="828" 
d="M685 741q0 -18 -18 -18t-18 18t18 18t18 -18zM699 635q0 -13 -9.5 -22.5t-22.5 -9.5t-22.5 9.5t-9.5 22.5q0 31 32 31t32 -31zM585 739q0 -13 -9.5 -22.5t-22.5 -9.5q-31 0 -31 32t31 32q13 0 22.5 -9.5t9.5 -22.5zM714 521q0 -19 -13.5 -32t-32.5 -13t-32 13t-13 32
t13 32t32 13t32.5 -13t13.5 -32zM598 633q0 -19 -13.5 -32.5t-31.5 -13.5q-19 0 -32 13.5t-13 32.5t13 32t32 13t32 -13t13 -32zM483 739q0 -19 -13.5 -32t-32.5 -13t-32 13t-13 32t13 32t32 13t32.5 -13t13.5 -32zM715 408q0 -19 -13.5 -32.5t-31.5 -13.5q-19 0 -32.5 13.5
t-13.5 32.5t13.5 32t32.5 13t32 -13t13 -32zM600 519q0 -19 -13.5 -32t-32.5 -13t-32 13t-13 32t13 32t32 13t32.5 -13t13.5 -32zM368 740q0 -19 -13.5 -32t-32.5 -13t-32 13t-13 32t13 32t32 13t32.5 -13t13.5 -32zM716 294q0 -19 -13 -32t-32 -13t-32 13t-13 32t13 32
t32 13t32 -13t13 -32zM601 406q0 -19 -13.5 -32.5t-31.5 -13.5q-19 0 -32.5 13.5t-13.5 32.5t13.5 32t32.5 13t32 -13t13 -32zM240 738q0 -13 -9.5 -22.5t-22.5 -9.5q-31 0 -31 32t31 32q13 0 22.5 -9.5t9.5 -22.5zM704 181q0 -13 -9.5 -22.5t-22.5 -9.5t-22.5 9.5
t-9.5 22.5q0 31 32 31t32 -31zM602 292q0 -19 -13 -32t-32 -13t-32 13t-13 32t13 32t32 13t32 -13t13 -32zM484 405q0 -19 -13.5 -32.5t-31.5 -13.5q-19 0 -32.5 13.5t-13.5 32.5t13.5 32t32.5 13t32 -13t13 -32zM253 632q0 -19 -13 -32.5t-32 -13.5t-32 13.5t-13 32.5
t13 32t32 13t32 -13t13 -32zM110 738q0 -18 -18 -18t-18 18t18 18t18 -18zM691 67q0 -18 -18 -18t-18 18t18 18t18 -18zM603 179q0 -19 -13 -32t-32 -13t-32 13t-13 32t13 32t32 13t32 -13t13 -32zM255 518q0 -19 -13.5 -32t-32.5 -13t-32 13t-13 32t13 32t32 13t32.5 -13
t13.5 -32zM368 405q0 -19 -13.5 -32.5t-31.5 -13.5q-19 0 -32.5 13.5t-13.5 32.5t13.5 32t32.5 13t32 -13t13 -32zM124 632q0 -13 -9.5 -22.5t-22.5 -9.5t-22.5 9.5t-9.5 22.5q0 31 32 31t32 -31zM591 65q0 -31 -32 -31q-31 0 -31 31q0 32 31 32q13 0 22.5 -9.5t9.5 -22.5z
M256 405q0 -19 -13 -32.5t-32 -13.5t-32.5 13.5t-13.5 32.5t13.5 32t32.5 13t32 -13t13 -32zM139 518q0 -19 -13.5 -32t-32.5 -13t-32 13t-13 32t13 32t32 13t32.5 -13t13.5 -32zM489 65q0 -19 -13.5 -32t-32.5 -13t-32 13t-13 32t13 32.5t32 13.5t32.5 -13.5t13.5 -32.5z
M257 291q0 -19 -13 -32t-32 -13t-32 13t-13 32t13 32t32 13t32 -13t13 -32zM140 405q0 -19 -13 -32.5t-32 -13.5t-32.5 13.5t-13.5 32.5t13.5 32t32.5 13t32 -13t13 -32zM374 66q0 -19 -13.5 -32t-32.5 -13t-32 13t-13 32t13 32.5t32 13.5t32.5 -13.5t13.5 -32.5zM258 178
q0 -19 -13 -32t-32 -13t-32 13t-13 32t13 32t32 13t32 -13t13 -32zM141 291q0 -19 -13 -32t-32 -13t-32 13t-13 32t13 32t32 13t32 -13t13 -32zM246 64q0 -31 -32 -31q-31 0 -31 31q0 32 31 32q13 0 22.5 -9.5t9.5 -22.5zM129 178q0 -13 -9.5 -22.5t-22.5 -9.5t-22.5 9.5
t-9.5 22.5q0 31 32 31t32 -31zM116 64q0 -18 -18 -18t-18 18t18 18t18 -18z" />
    <glyph glyph-name="one" unicode="1" horiz-adv-x="590" 
d="M368 740q0 -19 -13.5 -32t-32.5 -13t-32 13t-13 32t13 32t32 13t32.5 -13t13.5 -32zM367 634q0 -19 -13 -32.5t-32 -13.5t-32 13.5t-13 32.5t13 32t32 13t32 -13t13 -32zM240 738q0 -13 -9.5 -22.5t-22.5 -9.5q-31 0 -31 32t31 32q13 0 22.5 -9.5t9.5 -22.5zM369 520
q0 -19 -13.5 -32t-32.5 -13t-32 13t-13 32t13 32t32 13t32.5 -13t13.5 -32zM253 632q0 -19 -13 -32.5t-32 -13.5t-32 13.5t-13 32.5t13 32t32 13t32 -13t13 -32zM110 738q0 -18 -18 -18t-18 18t18 18t18 -18zM370 407q0 -19 -13 -32.5t-32 -13.5t-32.5 13.5t-13.5 32.5
t13.5 32t32.5 13t32 -13t13 -32zM255 518q0 -19 -13.5 -32t-32.5 -13t-32 13t-13 32t13 32t32 13t32.5 -13t13.5 -32zM137 632q0 -19 -13 -32.5t-32 -13.5t-32 13.5t-13 32.5t13 32t32 13t32 -13t13 -32zM371 293q0 -19 -13 -32t-32 -13t-32 13t-13 32t13 32t32 13t32 -13
t13 -32zM256 405q0 -19 -13 -32.5t-32 -13.5t-32.5 13.5t-13.5 32.5t13.5 32t32.5 13t32 -13t13 -32zM489 65q0 -19 -13.5 -32t-32.5 -13t-32 13t-13 32t13 32.5t32 13.5t32.5 -13.5t13.5 -32.5zM372 180q0 -19 -13 -32t-32 -13t-32 13t-13 32t13 32t32 13t32 -13t13 -32z
M257 291q0 -19 -13 -32t-32 -13t-32 13t-13 32t13 32t32 13t32 -13t13 -32zM374 66q0 -19 -13.5 -32t-32.5 -13t-32 13t-13 32t13 32.5t32 13.5t32.5 -13.5t13.5 -32.5zM258 178q0 -19 -13 -32t-32 -13t-32 13t-13 32t13 32t32 13t32 -13t13 -32zM260 64q0 -19 -13.5 -32
t-32.5 -13t-32 13t-13 32t13 32.5t32 13.5t32.5 -13.5t13.5 -32.5zM144 64q0 -19 -13.5 -32t-32.5 -13t-32 13t-13 32t13 32.5t32 13.5t32.5 -13.5t13.5 -32.5z" />
    <glyph glyph-name="two" unicode="2" horiz-adv-x="703" 
d="M571 739q0 -18 -18 -18t-18 18t18 18t18 -18zM598 633q0 -19 -13.5 -32.5t-31.5 -13.5q-19 0 -32 13.5t-13 32.5t13 32t32 13t32 -13t13 -32zM483 739q0 -19 -13.5 -32t-32.5 -13t-32 13t-13 32t13 32t32 13t32.5 -13t13.5 -32zM600 519q0 -19 -13.5 -32t-32.5 -13
t-32 13t-13 32t13 32t32 13t32.5 -13t13.5 -32zM482 633q0 -19 -13.5 -32.5t-31.5 -13.5q-19 0 -32 13.5t-13 32.5t13 32t32 13t32 -13t13 -32zM368 740q0 -19 -13.5 -32t-32.5 -13t-32 13t-13 32t13 32t32 13t32.5 -13t13.5 -32zM484 519q0 -19 -13.5 -32t-32.5 -13t-32 13
t-13 32t13 32t32 13t32.5 -13t13.5 -32zM254 738q0 -19 -13.5 -32t-32.5 -13t-32 13t-13 32t13 32t32 13t32.5 -13t13.5 -32zM485 406q0 -19 -13.5 -32.5t-31.5 -13.5q-19 0 -32.5 13.5t-13.5 32.5t13.5 32t32.5 13t32 -13t13 -32zM253 632q0 -19 -13 -32.5t-32 -13.5
t-32 13.5t-13 32.5t13 32t32 13t32 -13t13 -32zM110 738q0 -18 -18 -18t-18 18t18 18t18 -18zM356 407q0 -32 -31 -32q-13 0 -22.5 9.5t-9.5 22.5q0 31 32 31q31 0 31 -31zM137 632q0 -19 -13 -32.5t-32 -13.5t-32 13.5t-13 32.5t13 32t32 13t32 -13t13 -32zM605 65
q0 -19 -13.5 -32t-32.5 -13t-32 13t-13 32t13 32.5t32 13.5t32.5 -13.5t13.5 -32.5zM371 293q0 -19 -13 -32t-32 -13t-32 13t-13 32t13 32t32 13t32 -13t13 -32zM489 65q0 -19 -13.5 -32t-32.5 -13t-32 13t-13 32t13 32.5t32 13.5t32.5 -13.5t13.5 -32.5zM243 291
q0 -31 -31 -31q-32 0 -32 31q0 13 9.5 22.5t22.5 9.5q31 0 31 -32zM374 66q0 -19 -13.5 -32t-32.5 -13t-32 13t-13 32t13 32.5t32 13.5t32.5 -13.5t13.5 -32.5zM258 178q0 -19 -13 -32t-32 -13t-32 13t-13 32t13 32t32 13t32 -13t13 -32zM260 64q0 -19 -13.5 -32t-32.5 -13
t-32 13t-13 32t13 32.5t32 13.5t32.5 -13.5t13.5 -32.5zM129 178q0 -13 -9.5 -22.5t-22.5 -9.5t-22.5 9.5t-9.5 22.5q0 31 32 31t32 -31zM144 64q0 -19 -13.5 -32t-32.5 -13t-32 13t-13 32t13 32.5t32 13.5t32.5 -13.5t13.5 -32.5z" />
    <glyph glyph-name="three" unicode="3" horiz-adv-x="717" 
d="M571 739q0 -18 -18 -18t-18 18t18 18t18 -18zM598 633q0 -19 -13.5 -32.5t-31.5 -13.5q-19 0 -32 13.5t-13 32.5t13 32t32 13t32 -13t13 -32zM483 739q0 -19 -13.5 -32t-32.5 -13t-32 13t-13 32t13 32t32 13t32.5 -13t13.5 -32zM600 519q0 -19 -13.5 -32t-32.5 -13
t-32 13t-13 32t13 32t32 13t32.5 -13t13.5 -32zM482 633q0 -19 -13.5 -32.5t-31.5 -13.5q-19 0 -32 13.5t-13 32.5t13 32t32 13t32 -13t13 -32zM368 740q0 -19 -13.5 -32t-32.5 -13t-32 13t-13 32t13 32t32 13t32.5 -13t13.5 -32zM574 406q0 -18 -18 -18t-18 18t18 18
t18 -18zM484 519q0 -19 -13.5 -32t-32.5 -13t-32 13t-13 32t13 32t32 13t32.5 -13t13.5 -32zM254 738q0 -19 -13.5 -32t-32.5 -13t-32 13t-13 32t13 32t32 13t32.5 -13t13.5 -32zM602 292q0 -19 -13 -32t-32 -13t-32 13t-13 32t13 32t32 13t32 -13t13 -32zM485 406
q0 -19 -13.5 -32.5t-31.5 -13.5q-19 0 -32.5 13.5t-13.5 32.5t13.5 32t32.5 13t32 -13t13 -32zM240 632q0 -13 -9.5 -22.5t-22.5 -9.5t-22.5 9.5t-9.5 22.5q0 31 32 31t32 -31zM110 738q0 -18 -18 -18t-18 18t18 18t18 -18zM603 179q0 -19 -13 -32t-32 -13t-32 13t-13 32
t13 32t32 13t32 -13t13 -32zM486 292q0 -19 -13 -32t-32 -13t-32 13t-13 32t13 32t32 13t32 -13t13 -32zM370 407q0 -19 -13 -32.5t-32 -13.5t-32.5 13.5t-13.5 32.5t13.5 32t32.5 13t32 -13t13 -32zM137 632q0 -19 -13 -32.5t-32 -13.5t-32 13.5t-13 32.5t13 32t32 13
t32 -13t13 -32zM577 65q0 -18 -18 -18t-18 18t18 18t18 -18zM487 179q0 -19 -13 -32t-32 -13t-32 13t-13 32t13 32t32 13t32 -13t13 -32zM489 65q0 -19 -13.5 -32t-32.5 -13t-32 13t-13 32t13 32.5t32 13.5t32.5 -13.5t13.5 -32.5zM374 66q0 -19 -13.5 -32t-32.5 -13t-32 13
t-13 32t13 32.5t32 13.5t32.5 -13.5t13.5 -32.5zM245 178q0 -13 -9.5 -22.5t-22.5 -9.5t-22.5 9.5t-9.5 22.5q0 31 32 31t32 -31zM260 64q0 -19 -13.5 -32t-32.5 -13t-32 13t-13 32t13 32.5t32 13.5t32.5 -13.5t13.5 -32.5zM142 178q0 -19 -13 -32t-32 -13t-32 13t-13 32
t13 32t32 13t32 -13t13 -32zM116 64q0 -18 -18 -18t-18 18t18 18t18 -18z" />
    <glyph glyph-name="four" unicode="4" horiz-adv-x="817" 
d="M599 739q0 -19 -13.5 -32t-32.5 -13t-32 13t-13 32t13 32t32 13t32.5 -13t13.5 -32zM598 633q0 -19 -13.5 -32.5t-31.5 -13.5q-19 0 -32 13.5t-13 32.5t13 32t32 13t32 -13t13 -32zM483 739q0 -19 -13.5 -32t-32.5 -13t-32 13t-13 32t13 32t32 13t32.5 -13t13.5 -32z
M715 408q0 -19 -13.5 -32.5t-31.5 -13.5q-19 0 -32.5 13.5t-13.5 32.5t13.5 32t32.5 13t32 -13t13 -32zM600 519q0 -19 -13.5 -32t-32.5 -13t-32 13t-13 32t13 32t32 13t32.5 -13t13.5 -32zM482 633q0 -19 -13.5 -32.5t-31.5 -13.5q-19 0 -32 13.5t-13 32.5t13 32t32 13
t32 -13t13 -32zM601 406q0 -19 -13.5 -32.5t-31.5 -13.5q-19 0 -32.5 13.5t-13.5 32.5t13.5 32t32.5 13t32 -13t13 -32zM484 519q0 -19 -13.5 -32t-32.5 -13t-32 13t-13 32t13 32t32 13t32.5 -13t13.5 -32zM254 738q0 -19 -13.5 -32t-32.5 -13t-32 13t-13 32t13 32t32 13
t32.5 -13t13.5 -32zM602 292q0 -19 -13 -32t-32 -13t-32 13t-13 32t13 32t32 13t32 -13t13 -32zM485 406q0 -19 -13.5 -32.5t-31.5 -13.5q-19 0 -32.5 13.5t-13.5 32.5t13.5 32t32.5 13t32 -13t13 -32zM253 632q0 -19 -13 -32.5t-32 -13.5t-32 13.5t-13 32.5t13 32t32 13
t32 -13t13 -32zM603 179q0 -19 -13 -32t-32 -13t-32 13t-13 32t13 32t32 13t32 -13t13 -32zM486 292q0 -19 -13 -32t-32 -13t-32 13t-13 32t13 32t32 13t32 -13t13 -32zM370 407q0 -19 -13 -32.5t-32 -13.5t-32.5 13.5t-13.5 32.5t13.5 32t32.5 13t32 -13t13 -32zM255 518
q0 -19 -13.5 -32t-32.5 -13t-32 13t-13 32t13 32t32 13t32.5 -13t13.5 -32zM124 632q0 -13 -9.5 -22.5t-22.5 -9.5t-22.5 9.5t-9.5 22.5q0 31 32 31t32 -31zM605 65q0 -19 -13.5 -32t-32.5 -13t-32 13t-13 32t13 32.5t32 13.5t32.5 -13.5t13.5 -32.5zM487 179q0 -19 -13 -32
t-32 -13t-32 13t-13 32t13 32t32 13t32 -13t13 -32zM256 405q0 -19 -13 -32.5t-32 -13.5t-32.5 13.5t-13.5 32.5t13.5 32t32.5 13t32 -13t13 -32zM139 518q0 -19 -13.5 -32t-32.5 -13t-32 13t-13 32t13 32t32 13t32.5 -13t13.5 -32zM489 65q0 -19 -13.5 -32t-32.5 -13
t-32 13t-13 32t13 32.5t32 13.5t32.5 -13.5t13.5 -32.5zM140 405q0 -19 -13 -32.5t-32 -13.5t-32.5 13.5t-13.5 32.5t13.5 32t32.5 13t32 -13t13 -32z" />
    <glyph glyph-name="five" unicode="5" horiz-adv-x="701" 
d="M599 739q0 -19 -13.5 -32t-32.5 -13t-32 13t-13 32t13 32t32 13t32.5 -13t13.5 -32zM483 739q0 -19 -13.5 -32t-32.5 -13t-32 13t-13 32t13 32t32 13t32.5 -13t13.5 -32zM368 740q0 -19 -13.5 -32t-32.5 -13t-32 13t-13 32t13 32t32 13t32.5 -13t13.5 -32zM574 406
q0 -18 -18 -18t-18 18t18 18t18 -18zM254 738q0 -19 -13.5 -32t-32.5 -13t-32 13t-13 32t13 32t32 13t32.5 -13t13.5 -32zM602 292q0 -19 -13 -32t-32 -13t-32 13t-13 32t13 32t32 13t32 -13t13 -32zM485 406q0 -19 -13.5 -32.5t-31.5 -13.5q-19 0 -32.5 13.5t-13.5 32.5
t13.5 32t32.5 13t32 -13t13 -32zM253 632q0 -19 -13 -32.5t-32 -13.5t-32 13.5t-13 32.5t13 32t32 13t32 -13t13 -32zM138 738q0 -19 -13.5 -32t-32.5 -13t-32 13t-13 32t13 32t32 13t32.5 -13t13.5 -32zM603 179q0 -19 -13 -32t-32 -13t-32 13t-13 32t13 32t32 13t32 -13
t13 -32zM486 292q0 -19 -13 -32t-32 -13t-32 13t-13 32t13 32t32 13t32 -13t13 -32zM370 407q0 -19 -13 -32.5t-32 -13.5t-32.5 13.5t-13.5 32.5t13.5 32t32.5 13t32 -13t13 -32zM255 518q0 -19 -13.5 -32t-32.5 -13t-32 13t-13 32t13 32t32 13t32.5 -13t13.5 -32zM137 632
q0 -19 -13 -32.5t-32 -13.5t-32 13.5t-13 32.5t13 32t32 13t32 -13t13 -32zM577 65q0 -18 -18 -18t-18 18t18 18t18 -18zM487 179q0 -19 -13 -32t-32 -13t-32 13t-13 32t13 32t32 13t32 -13t13 -32zM256 405q0 -19 -13 -32.5t-32 -13.5t-32.5 13.5t-13.5 32.5t13.5 32
t32.5 13t32 -13t13 -32zM139 518q0 -19 -13.5 -32t-32.5 -13t-32 13t-13 32t13 32t32 13t32.5 -13t13.5 -32zM489 65q0 -19 -13.5 -32t-32.5 -13t-32 13t-13 32t13 32.5t32 13.5t32.5 -13.5t13.5 -32.5zM140 405q0 -19 -13 -32.5t-32 -13.5t-32.5 13.5t-13.5 32.5t13.5 32
t32.5 13t32 -13t13 -32zM374 66q0 -19 -13.5 -32t-32.5 -13t-32 13t-13 32t13 32.5t32 13.5t32.5 -13.5t13.5 -32.5zM260 64q0 -19 -13.5 -32t-32.5 -13t-32 13t-13 32t13 32.5t32 13.5t32.5 -13.5t13.5 -32.5zM144 64q0 -19 -13.5 -32t-32.5 -13t-32 13t-13 32t13 32.5
t32 13.5t32.5 -13.5t13.5 -32.5z" />
    <glyph glyph-name="six" unicode="6" horiz-adv-x="810" 
d="M599 739q0 -19 -13.5 -32t-32.5 -13t-32 13t-13 32t13 32t32 13t32.5 -13t13.5 -32zM483 739q0 -19 -13.5 -32t-32.5 -13t-32 13t-13 32t13 32t32 13t32.5 -13t13.5 -32zM701 408q0 -32 -31 -32q-13 0 -22.5 9.5t-9.5 22.5q0 31 32 31q31 0 31 -31zM368 740
q0 -19 -13.5 -32t-32.5 -13t-32 13t-13 32t13 32t32 13t32.5 -13t13.5 -32zM716 294q0 -19 -13 -32t-32 -13t-32 13t-13 32t13 32t32 13t32 -13t13 -32zM601 406q0 -19 -13.5 -32.5t-31.5 -13.5q-19 0 -32.5 13.5t-13.5 32.5t13.5 32t32.5 13t32 -13t13 -32zM254 738
q0 -19 -13.5 -32t-32.5 -13t-32 13t-13 32t13 32t32 13t32.5 -13t13.5 -32zM717 181q0 -19 -13 -32t-32 -13t-32 13t-13 32t13 32t32 13t32 -13t13 -32zM602 292q0 -19 -13 -32t-32 -13t-32 13t-13 32t13 32t32 13t32 -13t13 -32zM485 406q0 -19 -13.5 -32.5t-31.5 -13.5
q-19 0 -32.5 13.5t-13.5 32.5t13.5 32t32.5 13t32 -13t13 -32zM253 632q0 -19 -13 -32.5t-32 -13.5t-32 13.5t-13 32.5t13 32t32 13t32 -13t13 -32zM110 738q0 -18 -18 -18t-18 18t18 18t18 -18zM705 67q0 -31 -32 -31q-31 0 -31 31q0 32 31 32q13 0 22.5 -9.5t9.5 -22.5z
M603 179q0 -19 -13 -32t-32 -13t-32 13t-13 32t13 32t32 13t32 -13t13 -32zM370 407q0 -19 -13 -32.5t-32 -13.5t-32.5 13.5t-13.5 32.5t13.5 32t32.5 13t32 -13t13 -32zM255 518q0 -19 -13.5 -32t-32.5 -13t-32 13t-13 32t13 32t32 13t32.5 -13t13.5 -32zM137 632
q0 -19 -13 -32.5t-32 -13.5t-32 13.5t-13 32.5t13 32t32 13t32 -13t13 -32zM605 65q0 -19 -13.5 -32t-32.5 -13t-32 13t-13 32t13 32.5t32 13.5t32.5 -13.5t13.5 -32.5zM256 405q0 -19 -13 -32.5t-32 -13.5t-32.5 13.5t-13.5 32.5t13.5 32t32.5 13t32 -13t13 -32zM139 518
q0 -19 -13.5 -32t-32.5 -13t-32 13t-13 32t13 32t32 13t32.5 -13t13.5 -32zM489 65q0 -19 -13.5 -32t-32.5 -13t-32 13t-13 32t13 32.5t32 13.5t32.5 -13.5t13.5 -32.5zM257 291q0 -19 -13 -32t-32 -13t-32 13t-13 32t13 32t32 13t32 -13t13 -32zM140 405q0 -19 -13 -32.5
t-32 -13.5t-32.5 13.5t-13.5 32.5t13.5 32t32.5 13t32 -13t13 -32zM374 66q0 -19 -13.5 -32t-32.5 -13t-32 13t-13 32t13 32.5t32 13.5t32.5 -13.5t13.5 -32.5zM258 178q0 -19 -13 -32t-32 -13t-32 13t-13 32t13 32t32 13t32 -13t13 -32zM141 291q0 -19 -13 -32t-32 -13
t-32 13t-13 32t13 32t32 13t32 -13t13 -32zM260 64q0 -19 -13.5 -32t-32.5 -13t-32 13t-13 32t13 32.5t32 13.5t32.5 -13.5t13.5 -32.5zM142 178q0 -19 -13 -32t-32 -13t-32 13t-13 32t13 32t32 13t32 -13t13 -32zM116 64q0 -18 -18 -18t-18 18t18 18t18 -18z" />
    <glyph glyph-name="seven" unicode="7" horiz-adv-x="690" 
d="M599 739q0 -19 -13.5 -32t-32.5 -13t-32 13t-13 32t13 32t32 13t32.5 -13t13.5 -32zM598 633q0 -19 -13.5 -32.5t-31.5 -13.5q-19 0 -32 13.5t-13 32.5t13 32t32 13t32 -13t13 -32zM483 739q0 -19 -13.5 -32t-32.5 -13t-32 13t-13 32t13 32t32 13t32.5 -13t13.5 -32z
M586 519q0 -13 -9.5 -22.5t-22.5 -9.5q-31 0 -31 32t31 32q13 0 22.5 -9.5t9.5 -22.5zM482 633q0 -19 -13.5 -32.5t-31.5 -13.5q-19 0 -32 13.5t-13 32.5t13 32t32 13t32 -13t13 -32zM368 740q0 -19 -13.5 -32t-32.5 -13t-32 13t-13 32t13 32t32 13t32.5 -13t13.5 -32z
M484 519q0 -19 -13.5 -32t-32.5 -13t-32 13t-13 32t13 32t32 13t32.5 -13t13.5 -32zM254 738q0 -19 -13.5 -32t-32.5 -13t-32 13t-13 32t13 32t32 13t32.5 -13t13.5 -32zM485 406q0 -19 -13.5 -32.5t-31.5 -13.5q-19 0 -32.5 13.5t-13.5 32.5t13.5 32t32.5 13t32 -13t13 -32
zM138 738q0 -19 -13.5 -32t-32.5 -13t-32 13t-13 32t13 32t32 13t32.5 -13t13.5 -32zM356 407q0 -32 -31 -32q-13 0 -22.5 9.5t-9.5 22.5q0 31 32 31q31 0 31 -31zM371 293q0 -19 -13 -32t-32 -13t-32 13t-13 32t13 32t32 13t32 -13t13 -32zM243 291q0 -31 -31 -31
q-32 0 -32 31q0 13 9.5 22.5t22.5 9.5q31 0 31 -32zM258 178q0 -19 -13 -32t-32 -13t-32 13t-13 32t13 32t32 13t32 -13t13 -32zM129 178q0 -13 -9.5 -22.5t-22.5 -9.5t-22.5 9.5t-9.5 22.5q0 31 32 31t32 -31zM144 64q0 -19 -13.5 -32t-32.5 -13t-32 13t-13 32t13 32.5
t32 13.5t32.5 -13.5t13.5 -32.5z" />
    <glyph glyph-name="eight" unicode="8" horiz-adv-x="717" 
d="M571 739q0 -18 -18 -18t-18 18t18 18t18 -18zM598 633q0 -19 -13.5 -32.5t-31.5 -13.5q-19 0 -32 13.5t-13 32.5t13 32t32 13t32 -13t13 -32zM483 739q0 -19 -13.5 -32t-32.5 -13t-32 13t-13 32t13 32t32 13t32.5 -13t13.5 -32zM600 519q0 -19 -13.5 -32t-32.5 -13
t-32 13t-13 32t13 32t32 13t32.5 -13t13.5 -32zM482 633q0 -19 -13.5 -32.5t-31.5 -13.5q-19 0 -32 13.5t-13 32.5t13 32t32 13t32 -13t13 -32zM368 740q0 -19 -13.5 -32t-32.5 -13t-32 13t-13 32t13 32t32 13t32.5 -13t13.5 -32zM574 406q0 -18 -18 -18t-18 18t18 18
t18 -18zM484 519q0 -19 -13.5 -32t-32.5 -13t-32 13t-13 32t13 32t32 13t32.5 -13t13.5 -32zM254 738q0 -19 -13.5 -32t-32.5 -13t-32 13t-13 32t13 32t32 13t32.5 -13t13.5 -32zM602 292q0 -19 -13 -32t-32 -13t-32 13t-13 32t13 32t32 13t32 -13t13 -32zM485 406
q0 -19 -13.5 -32.5t-31.5 -13.5q-19 0 -32.5 13.5t-13.5 32.5t13.5 32t32.5 13t32 -13t13 -32zM253 632q0 -19 -13 -32.5t-32 -13.5t-32 13.5t-13 32.5t13 32t32 13t32 -13t13 -32zM110 738q0 -18 -18 -18t-18 18t18 18t18 -18zM603 179q0 -19 -13 -32t-32 -13t-32 13
t-13 32t13 32t32 13t32 -13t13 -32zM486 292q0 -19 -13 -32t-32 -13t-32 13t-13 32t13 32t32 13t32 -13t13 -32zM370 407q0 -19 -13 -32.5t-32 -13.5t-32.5 13.5t-13.5 32.5t13.5 32t32.5 13t32 -13t13 -32zM255 518q0 -19 -13.5 -32t-32.5 -13t-32 13t-13 32t13 32t32 13
t32.5 -13t13.5 -32zM137 632q0 -19 -13 -32.5t-32 -13.5t-32 13.5t-13 32.5t13 32t32 13t32 -13t13 -32zM577 65q0 -18 -18 -18t-18 18t18 18t18 -18zM487 179q0 -19 -13 -32t-32 -13t-32 13t-13 32t13 32t32 13t32 -13t13 -32zM256 405q0 -19 -13 -32.5t-32 -13.5
t-32.5 13.5t-13.5 32.5t13.5 32t32.5 13t32 -13t13 -32zM139 518q0 -19 -13.5 -32t-32.5 -13t-32 13t-13 32t13 32t32 13t32.5 -13t13.5 -32zM489 65q0 -19 -13.5 -32t-32.5 -13t-32 13t-13 32t13 32.5t32 13.5t32.5 -13.5t13.5 -32.5zM257 291q0 -19 -13 -32t-32 -13
t-32 13t-13 32t13 32t32 13t32 -13t13 -32zM113 405q0 -18 -18 -18t-18 18t18 18t18 -18zM374 66q0 -19 -13.5 -32t-32.5 -13t-32 13t-13 32t13 32.5t32 13.5t32.5 -13.5t13.5 -32.5zM258 178q0 -19 -13 -32t-32 -13t-32 13t-13 32t13 32t32 13t32 -13t13 -32zM141 291
q0 -19 -13 -32t-32 -13t-32 13t-13 32t13 32t32 13t32 -13t13 -32zM260 64q0 -19 -13.5 -32t-32.5 -13t-32 13t-13 32t13 32.5t32 13.5t32.5 -13.5t13.5 -32.5zM142 178q0 -19 -13 -32t-32 -13t-32 13t-13 32t13 32t32 13t32 -13t13 -32zM116 64q0 -18 -18 -18t-18 18t18 18
t18 -18z" />
    <glyph glyph-name="nine" unicode="9" horiz-adv-x="834" 
d="M699 741q0 -13 -9.5 -22.5t-22.5 -9.5q-31 0 -31 32t31 32q13 0 22.5 -9.5t9.5 -22.5zM712 635q0 -19 -13.5 -32.5t-31.5 -13.5q-19 0 -32 13.5t-13 32.5t13 32t32 13t32 -13t13 -32zM599 739q0 -19 -13.5 -32t-32.5 -13t-32 13t-13 32t13 32t32 13t32.5 -13t13.5 -32z
M714 521q0 -19 -13.5 -32t-32.5 -13t-32 13t-13 32t13 32t32 13t32.5 -13t13.5 -32zM598 633q0 -19 -13.5 -32.5t-31.5 -13.5q-19 0 -32 13.5t-13 32.5t13 32t32 13t32 -13t13 -32zM483 739q0 -19 -13.5 -32t-32.5 -13t-32 13t-13 32t13 32t32 13t32.5 -13t13.5 -32z
M715 408q0 -19 -13.5 -32.5t-31.5 -13.5q-19 0 -32.5 13.5t-13.5 32.5t13.5 32t32.5 13t32 -13t13 -32zM600 519q0 -19 -13.5 -32t-32.5 -13t-32 13t-13 32t13 32t32 13t32.5 -13t13.5 -32zM368 740q0 -19 -13.5 -32t-32.5 -13t-32 13t-13 32t13 32t32 13t32.5 -13t13.5 -32
zM716 294q0 -19 -13 -32t-32 -13t-32 13t-13 32t13 32t32 13t32 -13t13 -32zM601 406q0 -19 -13.5 -32.5t-31.5 -13.5q-19 0 -32.5 13.5t-13.5 32.5t13.5 32t32.5 13t32 -13t13 -32zM254 738q0 -19 -13.5 -32t-32.5 -13t-32 13t-13 32t13 32t32 13t32.5 -13t13.5 -32z
M717 181q0 -19 -13 -32t-32 -13t-32 13t-13 32t13 32t32 13t32 -13t13 -32zM602 292q0 -19 -13 -32t-32 -13t-32 13t-13 32t13 32t32 13t32 -13t13 -32zM485 406q0 -19 -13.5 -32.5t-31.5 -13.5q-19 0 -32.5 13.5t-13.5 32.5t13.5 32t32.5 13t32 -13t13 -32zM253 632
q0 -19 -13 -32.5t-32 -13.5t-32 13.5t-13 32.5t13 32t32 13t32 -13t13 -32zM110 738q0 -18 -18 -18t-18 18t18 18t18 -18zM705 67q0 -31 -32 -31q-31 0 -31 31q0 32 31 32q13 0 22.5 -9.5t9.5 -22.5zM603 179q0 -19 -13 -32t-32 -13t-32 13t-13 32t13 32t32 13t32 -13
t13 -32zM370 407q0 -19 -13 -32.5t-32 -13.5t-32.5 13.5t-13.5 32.5t13.5 32t32.5 13t32 -13t13 -32zM255 518q0 -19 -13.5 -32t-32.5 -13t-32 13t-13 32t13 32t32 13t32.5 -13t13.5 -32zM137 632q0 -19 -13 -32.5t-32 -13.5t-32 13.5t-13 32.5t13 32t32 13t32 -13t13 -32z
M605 65q0 -19 -13.5 -32t-32.5 -13t-32 13t-13 32t13 32.5t32 13.5t32.5 -13.5t13.5 -32.5zM256 405q0 -19 -13 -32.5t-32 -13.5t-32.5 13.5t-13.5 32.5t13.5 32t32.5 13t32 -13t13 -32zM139 518q0 -19 -13.5 -32t-32.5 -13t-32 13t-13 32t13 32t32 13t32.5 -13t13.5 -32z
M489 65q0 -19 -13.5 -32t-32.5 -13t-32 13t-13 32t13 32.5t32 13.5t32.5 -13.5t13.5 -32.5zM113 405q0 -18 -18 -18t-18 18t18 18t18 -18zM374 66q0 -19 -13.5 -32t-32.5 -13t-32 13t-13 32t13 32.5t32 13.5t32.5 -13.5t13.5 -32.5zM260 64q0 -19 -13.5 -32t-32.5 -13
t-32 13t-13 32t13 32.5t32 13.5t32.5 -13.5t13.5 -32.5z" />
    <glyph glyph-name="colon" unicode=":" horiz-adv-x="480" 
d="M354 740q0 -13 -9.5 -22.5t-22.5 -9.5q-31 0 -31 32t31 32q13 0 22.5 -9.5t9.5 -22.5zM367 634q0 -19 -13 -32.5t-32 -13.5t-32 13.5t-13 32.5t13 32t32 13t32 -13t13 -32zM254 738q0 -19 -13.5 -32t-32.5 -13t-32 13t-13 32t13 32t32 13t32.5 -13t13.5 -32zM355 520
q0 -13 -9.5 -22.5t-22.5 -9.5q-31 0 -31 32t31 32q13 0 22.5 -9.5t9.5 -22.5zM253 632q0 -19 -13 -32.5t-32 -13.5t-32 13.5t-13 32.5t13 32t32 13t32 -13t13 -32zM124 738q0 -13 -9.5 -22.5t-22.5 -9.5q-31 0 -31 32t31 32q13 0 22.5 -9.5t9.5 -22.5zM255 518
q0 -19 -13.5 -32t-32.5 -13t-32 13t-13 32t13 32t32 13t32.5 -13t13.5 -32zM137 632q0 -19 -13 -32.5t-32 -13.5t-32 13.5t-13 32.5t13 32t32 13t32 -13t13 -32zM357 293q0 -31 -31 -31q-32 0 -32 31q0 13 9.5 22.5t22.5 9.5q31 0 31 -32zM125 518q0 -13 -9.5 -22.5
t-22.5 -9.5q-31 0 -31 32t31 32q13 0 22.5 -9.5t9.5 -22.5zM372 180q0 -19 -13 -32t-32 -13t-32 13t-13 32t13 32t32 13t32 -13t13 -32zM257 291q0 -19 -13 -32t-32 -13t-32 13t-13 32t13 32t32 13t32 -13t13 -32zM360 66q0 -31 -32 -31q-31 0 -31 31q0 32 31 32
q13 0 22.5 -9.5t9.5 -22.5zM258 178q0 -19 -13 -32t-32 -13t-32 13t-13 32t13 32t32 13t32 -13t13 -32zM127 291q0 -31 -31 -31q-32 0 -32 31q0 13 9.5 22.5t22.5 9.5q31 0 31 -32zM260 64q0 -19 -13.5 -32t-32.5 -13t-32 13t-13 32t13 32.5t32 13.5t32.5 -13.5t13.5 -32.5z
M142 178q0 -19 -13 -32t-32 -13t-32 13t-13 32t13 32t32 13t32 -13t13 -32zM130 64q0 -31 -32 -31q-31 0 -31 31q0 32 31 32q13 0 22.5 -9.5t9.5 -22.5z" />
    <glyph glyph-name="semicolon" unicode=";" horiz-adv-x="480" 
d="M354 740q0 -13 -9.5 -22.5t-22.5 -9.5q-31 0 -31 32t31 32q13 0 22.5 -9.5t9.5 -22.5zM367 634q0 -19 -13 -32.5t-32 -13.5t-32 13.5t-13 32.5t13 32t32 13t32 -13t13 -32zM254 738q0 -19 -13.5 -32t-32.5 -13t-32 13t-13 32t13 32t32 13t32.5 -13t13.5 -32zM253 632
q0 -19 -13 -32.5t-32 -13.5t-32 13.5t-13 32.5t13 32t32 13t32 -13t13 -32zM124 738q0 -13 -9.5 -22.5t-22.5 -9.5q-31 0 -31 32t31 32q13 0 22.5 -9.5t9.5 -22.5zM356 407q0 -32 -31 -32q-13 0 -22.5 9.5t-9.5 22.5q0 31 32 31q31 0 31 -31zM137 632q0 -19 -13 -32.5
t-32 -13.5t-32 13.5t-13 32.5t13 32t32 13t32 -13t13 -32zM371 293q0 -19 -13 -32t-32 -13t-32 13t-13 32t13 32t32 13t32 -13t13 -32zM256 405q0 -19 -13 -32.5t-32 -13.5t-32.5 13.5t-13.5 32.5t13.5 32t32.5 13t32 -13t13 -32zM372 180q0 -19 -13 -32t-32 -13t-32 13
t-13 32t13 32t32 13t32 -13t13 -32zM257 291q0 -19 -13 -32t-32 -13t-32 13t-13 32t13 32t32 13t32 -13t13 -32zM126 405q0 -32 -31 -32q-13 0 -22.5 9.5t-9.5 22.5q0 31 32 31q31 0 31 -31zM346 66q0 -18 -18 -18t-18 18t18 18t18 -18zM258 178q0 -19 -13 -32t-32 -13
t-32 13t-13 32t13 32t32 13t32 -13t13 -32zM141 291q0 -19 -13 -32t-32 -13t-32 13t-13 32t13 32t32 13t32 -13t13 -32zM260 64q0 -19 -13.5 -32t-32.5 -13t-32 13t-13 32t13 32.5t32 13.5t32.5 -13.5t13.5 -32.5zM130 64q0 -31 -32 -31q-31 0 -31 31q0 32 31 32
q13 0 22.5 -9.5t9.5 -22.5z" />
    <glyph glyph-name="less" unicode="&#x3c;" horiz-adv-x="676" 
d="M585 739q0 -13 -9.5 -22.5t-22.5 -9.5q-31 0 -31 32t31 32q13 0 22.5 -9.5t9.5 -22.5zM483 739q0 -19 -13.5 -32t-32.5 -13t-32 13t-13 32t13 32t32 13t32.5 -13t13.5 -32zM469 633q0 -13 -9.5 -22.5t-22.5 -9.5t-22.5 9.5t-9.5 22.5q0 31 32 31t32 -31zM367 634
q0 -19 -13 -32.5t-32 -13.5t-32 13.5t-13 32.5t13 32t32 13t32 -13t13 -32zM355 520q0 -13 -9.5 -22.5t-22.5 -9.5q-31 0 -31 32t31 32q13 0 22.5 -9.5t9.5 -22.5zM255 518q0 -19 -13.5 -32t-32.5 -13t-32 13t-13 32t13 32t32 13t32.5 -13t13.5 -32zM591 65q0 -31 -32 -31
q-31 0 -31 31q0 32 31 32q13 0 22.5 -9.5t9.5 -22.5zM474 179q0 -13 -9.5 -22.5t-22.5 -9.5t-22.5 9.5t-9.5 22.5q0 31 32 31t32 -31zM357 293q0 -31 -31 -31q-32 0 -32 31q0 13 9.5 22.5t22.5 9.5q31 0 31 -32zM242 405q0 -32 -31 -32q-13 0 -22.5 9.5t-9.5 22.5
q0 31 32 31q31 0 31 -31zM489 65q0 -19 -13.5 -32t-32.5 -13t-32 13t-13 32t13 32.5t32 13.5t32.5 -13.5t13.5 -32.5zM372 180q0 -19 -13 -32t-32 -13t-32 13t-13 32t13 32t32 13t32 -13t13 -32zM257 291q0 -19 -13 -32t-32 -13t-32 13t-13 32t13 32t32 13t32 -13t13 -32z
M140 405q0 -19 -13 -32.5t-32 -13.5t-32.5 13.5t-13.5 32.5t13.5 32t32.5 13t32 -13t13 -32z" />
    <glyph glyph-name="equal" unicode="=" horiz-adv-x="793" 
d="M714 521q0 -19 -13.5 -32t-32.5 -13t-32 13t-13 32t13 32t32 13t32.5 -13t13.5 -32zM600 519q0 -19 -13.5 -32t-32.5 -13t-32 13t-13 32t13 32t32 13t32.5 -13t13.5 -32zM716 294q0 -19 -13 -32t-32 -13t-32 13t-13 32t13 32t32 13t32 -13t13 -32zM484 519
q0 -19 -13.5 -32t-32.5 -13t-32 13t-13 32t13 32t32 13t32.5 -13t13.5 -32zM602 292q0 -19 -13 -32t-32 -13t-32 13t-13 32t13 32t32 13t32 -13t13 -32zM369 520q0 -19 -13.5 -32t-32.5 -13t-32 13t-13 32t13 32t32 13t32.5 -13t13.5 -32zM486 292q0 -19 -13 -32t-32 -13
t-32 13t-13 32t13 32t32 13t32 -13t13 -32zM255 518q0 -19 -13.5 -32t-32.5 -13t-32 13t-13 32t13 32t32 13t32.5 -13t13.5 -32zM371 293q0 -19 -13 -32t-32 -13t-32 13t-13 32t13 32t32 13t32 -13t13 -32zM139 518q0 -19 -13.5 -32t-32.5 -13t-32 13t-13 32t13 32t32 13
t32.5 -13t13.5 -32zM257 291q0 -19 -13 -32t-32 -13t-32 13t-13 32t13 32t32 13t32 -13t13 -32zM141 291q0 -19 -13 -32t-32 -13t-32 13t-13 32t13 32t32 13t32 -13t13 -32z" />
    <glyph glyph-name="greater" unicode="&#x3e;" horiz-adv-x="669" 
d="M587 406q0 -32 -31 -32q-13 0 -22.5 9.5t-9.5 22.5q0 31 32 31q31 0 31 -31zM470 519q0 -13 -9.5 -22.5t-22.5 -9.5q-31 0 -31 32t31 32q13 0 22.5 -9.5t9.5 -22.5zM354 634q0 -13 -9.5 -22.5t-22.5 -9.5t-22.5 9.5t-9.5 22.5q0 31 32 31t32 -31zM240 738
q0 -13 -9.5 -22.5t-22.5 -9.5q-31 0 -31 32t31 32q13 0 22.5 -9.5t9.5 -22.5zM485 406q0 -19 -13.5 -32.5t-31.5 -13.5q-19 0 -32.5 13.5t-13.5 32.5t13.5 32t32.5 13t32 -13t13 -32zM369 520q0 -19 -13.5 -32t-32.5 -13t-32 13t-13 32t13 32t32 13t32.5 -13t13.5 -32z
M253 632q0 -19 -13 -32.5t-32 -13.5t-32 13.5t-13 32.5t13 32t32 13t32 -13t13 -32zM138 738q0 -19 -13.5 -32t-32.5 -13t-32 13t-13 32t13 32t32 13t32.5 -13t13.5 -32zM472 292q0 -31 -31 -31q-32 0 -32 31q0 13 9.5 22.5t22.5 9.5q31 0 31 -32zM371 293q0 -19 -13 -32
t-32 -13t-32 13t-13 32t13 32t32 13t32 -13t13 -32zM359 180q0 -13 -9.5 -22.5t-22.5 -9.5t-22.5 9.5t-9.5 22.5q0 31 32 31t32 -31zM258 178q0 -19 -13 -32t-32 -13t-32 13t-13 32t13 32t32 13t32 -13t13 -32zM246 64q0 -31 -32 -31q-31 0 -31 31q0 32 31 32
q13 0 22.5 -9.5t9.5 -22.5zM144 64q0 -19 -13.5 -32t-32.5 -13t-32 13t-13 32t13 32.5t32 13.5t32.5 -13.5t13.5 -32.5z" />
    <glyph glyph-name="question" unicode="?" horiz-adv-x="697" 
d="M571 739q0 -18 -18 -18t-18 18t18 18t18 -18zM598 633q0 -19 -13.5 -32.5t-31.5 -13.5q-19 0 -32 13.5t-13 32.5t13 32t32 13t32 -13t13 -32zM483 739q0 -19 -13.5 -32t-32.5 -13t-32 13t-13 32t13 32t32 13t32.5 -13t13.5 -32zM600 519q0 -19 -13.5 -32t-32.5 -13
t-32 13t-13 32t13 32t32 13t32.5 -13t13.5 -32zM482 633q0 -19 -13.5 -32.5t-31.5 -13.5q-19 0 -32 13.5t-13 32.5t13 32t32 13t32 -13t13 -32zM368 740q0 -19 -13.5 -32t-32.5 -13t-32 13t-13 32t13 32t32 13t32.5 -13t13.5 -32zM574 406q0 -18 -18 -18t-18 18t18 18
t18 -18zM484 519q0 -19 -13.5 -32t-32.5 -13t-32 13t-13 32t13 32t32 13t32.5 -13t13.5 -32zM254 738q0 -19 -13.5 -32t-32.5 -13t-32 13t-13 32t13 32t32 13t32.5 -13t13.5 -32zM485 406q0 -19 -13.5 -32.5t-31.5 -13.5q-19 0 -32.5 13.5t-13.5 32.5t13.5 32t32.5 13
t32 -13t13 -32zM253 632q0 -19 -13 -32.5t-32 -13.5t-32 13.5t-13 32.5t13 32t32 13t32 -13t13 -32zM110 738q0 -18 -18 -18t-18 18t18 18t18 -18zM370 407q0 -19 -13 -32.5t-32 -13.5t-32.5 13.5t-13.5 32.5t13.5 32t32.5 13t32 -13t13 -32zM137 632q0 -19 -13 -32.5
t-32 -13.5t-32 13.5t-13 32.5t13 32t32 13t32 -13t13 -32zM487 179q0 -19 -13 -32t-32 -13t-32 13t-13 32t13 32t32 13t32 -13t13 -32zM489 65q0 -19 -13.5 -32t-32.5 -13t-32 13t-13 32t13 32.5t32 13.5t32.5 -13.5t13.5 -32.5zM372 180q0 -19 -13 -32t-32 -13t-32 13
t-13 32t13 32t32 13t32 -13t13 -32zM374 66q0 -19 -13.5 -32t-32.5 -13t-32 13t-13 32t13 32.5t32 13.5t32.5 -13.5t13.5 -32.5z" />
    <glyph glyph-name="at" unicode="@" horiz-adv-x="1040" 
d="M914 741q0 -18 -18 -18t-18 18t18 18t18 -18zM941 635q0 -18 -13 -32t-32 -14q-18 0 -31.5 14t-13.5 32q0 19 13.5 32t31.5 13q19 0 32 -13t13 -32zM826 741q0 -18 -13.5 -31.5t-32.5 -13.5q-18 0 -31.5 13.5t-13.5 31.5q0 19 13.5 32t31.5 13q19 0 32.5 -13t13.5 -32z
M943 521q0 -18 -13.5 -31.5t-32.5 -13.5q-18 0 -31.5 13.5t-13.5 31.5q0 19 13.5 32t31.5 13q19 0 32.5 -13t13.5 -32zM825 635q0 -18 -13 -32t-32 -14q-18 0 -31.5 14t-13.5 32q0 19 13.5 32t31.5 13q19 0 32 -13t13 -32zM713 741q0 -19 -13.5 -32t-32.5 -13t-32 13t-13 32
t13 32t32 13t32.5 -13t13.5 -32zM944 408q0 -18 -13 -32t-32 -14q-18 0 -32 14t-14 32q0 19 14 32t32 13q19 0 32 -13t13 -32zM827 521q0 -18 -13.5 -31.5t-32.5 -13.5q-18 0 -31.5 13.5t-13.5 31.5q0 19 13.5 32t31.5 13q19 0 32.5 -13t13.5 -32zM599 739q0 -19 -13.5 -32
t-32.5 -13t-32 13t-13 32t13 32t32 13t32.5 -13t13.5 -32zM918 294q0 -18 -18 -18t-18 18t18 18t18 -18zM828 408q0 -18 -13 -32t-32 -14q-18 0 -32 14t-14 32q0 19 14 32t32 13q19 0 32 -13t13 -32zM483 739q0 -19 -13.5 -32t-32.5 -13t-32 13t-13 32t13 32t32 13t32.5 -13
t13.5 -32zM829 294q0 -18 -13 -31.5t-32 -13.5q-18 0 -31.5 13.5t-13.5 31.5q0 19 13.5 32t31.5 13q19 0 32 -13t13 -32zM600 519q0 -19 -13.5 -32t-32.5 -13t-32 13t-13 32t13 32t32 13t32.5 -13t13.5 -32zM368 740q0 -19 -13.5 -32t-32.5 -13t-32 13t-13 32t13 32t32 13
t32.5 -13t13.5 -32zM716 294q0 -19 -13 -32t-32 -13t-32 13t-13 32t13 32t32 13t32 -13t13 -32zM601 406q0 -19 -13.5 -32.5t-31.5 -13.5q-19 0 -32.5 13.5t-13.5 32.5t13.5 32t32.5 13t32 -13t13 -32zM484 519q0 -19 -13.5 -32t-32.5 -13t-32 13t-13 32t13 32t32 13
t32.5 -13t13.5 -32zM254 738q0 -19 -13.5 -32t-32.5 -13t-32 13t-13 32t13 32t32 13t32.5 -13t13.5 -32zM832 67q0 -18 -13.5 -31.5t-32.5 -13.5q-18 0 -31.5 13.5t-13.5 31.5q0 19 13.5 32.5t31.5 13.5q19 0 32.5 -13.5t13.5 -32.5zM602 292q0 -19 -13 -32t-32 -13t-32 13
t-13 32t13 32t32 13t32 -13t13 -32zM485 406q0 -19 -13.5 -32.5t-31.5 -13.5q-19 0 -32.5 13.5t-13.5 32.5t13.5 32t32.5 13t32 -13t13 -32zM253 632q0 -19 -13 -32.5t-32 -13.5t-32 13.5t-13 32.5t13 32t32 13t32 -13t13 -32zM110 738q0 -18 -18 -18t-18 18t18 18t18 -18z
M719 67q0 -19 -13.5 -32t-32.5 -13t-32 13t-13 32t13 32.5t32 13.5t32.5 -13.5t13.5 -32.5zM472 292q0 -31 -31 -31q-32 0 -32 31q0 13 9.5 22.5t22.5 9.5q31 0 31 -32zM255 518q0 -19 -13.5 -32t-32.5 -13t-32 13t-13 32t13 32t32 13t32.5 -13t13.5 -32zM137 632
q0 -19 -13 -32.5t-32 -13.5t-32 13.5t-13 32.5t13 32t32 13t32 -13t13 -32zM605 65q0 -19 -13.5 -32t-32.5 -13t-32 13t-13 32t13 32.5t32 13.5t32.5 -13.5t13.5 -32.5zM256 405q0 -19 -13 -32.5t-32 -13.5t-32.5 13.5t-13.5 32.5t13.5 32t32.5 13t32 -13t13 -32zM139 518
q0 -19 -13.5 -32t-32.5 -13t-32 13t-13 32t13 32t32 13t32.5 -13t13.5 -32zM489 65q0 -19 -13.5 -32t-32.5 -13t-32 13t-13 32t13 32.5t32 13.5t32.5 -13.5t13.5 -32.5zM257 291q0 -19 -13 -32t-32 -13t-32 13t-13 32t13 32t32 13t32 -13t13 -32zM140 405q0 -19 -13 -32.5
t-32 -13.5t-32.5 13.5t-13.5 32.5t13.5 32t32.5 13t32 -13t13 -32zM374 66q0 -19 -13.5 -32t-32.5 -13t-32 13t-13 32t13 32.5t32 13.5t32.5 -13.5t13.5 -32.5zM258 178q0 -19 -13 -32t-32 -13t-32 13t-13 32t13 32t32 13t32 -13t13 -32zM141 291q0 -19 -13 -32t-32 -13
t-32 13t-13 32t13 32t32 13t32 -13t13 -32zM260 64q0 -19 -13.5 -32t-32.5 -13t-32 13t-13 32t13 32.5t32 13.5t32.5 -13.5t13.5 -32.5zM142 178q0 -19 -13 -32t-32 -13t-32 13t-13 32t13 32t32 13t32 -13t13 -32zM116 64q0 -18 -18 -18t-18 18t18 18t18 -18z" />
    <glyph glyph-name="A" unicode="A" horiz-adv-x="836" 
d="M699 635q0 -13 -9.5 -22.5t-22.5 -9.5t-22.5 9.5t-9.5 22.5q0 31 32 31t32 -31zM585 739q0 -13 -9.5 -22.5t-22.5 -9.5q-31 0 -31 32t31 32q13 0 22.5 -9.5t9.5 -22.5zM714 521q0 -19 -13.5 -32t-32.5 -13t-32 13t-13 32t13 32t32 13t32.5 -13t13.5 -32zM598 633
q0 -19 -13.5 -32.5t-31.5 -13.5q-19 0 -32 13.5t-13 32.5t13 32t32 13t32 -13t13 -32zM483 739q0 -19 -13.5 -32t-32.5 -13t-32 13t-13 32t13 32t32 13t32.5 -13t13.5 -32zM715 408q0 -19 -13.5 -32.5t-31.5 -13.5q-19 0 -32.5 13.5t-13.5 32.5t13.5 32t32.5 13t32 -13
t13 -32zM600 519q0 -19 -13.5 -32t-32.5 -13t-32 13t-13 32t13 32t32 13t32.5 -13t13.5 -32zM482 633q0 -19 -13.5 -32.5t-31.5 -13.5q-19 0 -32 13.5t-13 32.5t13 32t32 13t32 -13t13 -32zM368 740q0 -19 -13.5 -32t-32.5 -13t-32 13t-13 32t13 32t32 13t32.5 -13t13.5 -32
zM716 294q0 -19 -13 -32t-32 -13t-32 13t-13 32t13 32t32 13t32 -13t13 -32zM601 406q0 -19 -13.5 -32.5t-31.5 -13.5q-19 0 -32.5 13.5t-13.5 32.5t13.5 32t32.5 13t32 -13t13 -32zM367 634q0 -19 -13 -32.5t-32 -13.5t-32 13.5t-13 32.5t13 32t32 13t32 -13t13 -32z
M240 738q0 -13 -9.5 -22.5t-22.5 -9.5q-31 0 -31 32t31 32q13 0 22.5 -9.5t9.5 -22.5zM717 181q0 -19 -13 -32t-32 -13t-32 13t-13 32t13 32t32 13t32 -13t13 -32zM602 292q0 -19 -13 -32t-32 -13t-32 13t-13 32t13 32t32 13t32 -13t13 -32zM253 632q0 -19 -13 -32.5
t-32 -13.5t-32 13.5t-13 32.5t13 32t32 13t32 -13t13 -32zM719 67q0 -19 -13.5 -32t-32.5 -13t-32 13t-13 32t13 32.5t32 13.5t32.5 -13.5t13.5 -32.5zM603 179q0 -19 -13 -32t-32 -13t-32 13t-13 32t13 32t32 13t32 -13t13 -32zM486 292q0 -19 -13 -32t-32 -13t-32 13
t-13 32t13 32t32 13t32 -13t13 -32zM255 518q0 -19 -13.5 -32t-32.5 -13t-32 13t-13 32t13 32t32 13t32.5 -13t13.5 -32zM124 632q0 -13 -9.5 -22.5t-22.5 -9.5t-22.5 9.5t-9.5 22.5q0 31 32 31t32 -31zM605 65q0 -19 -13.5 -32t-32.5 -13t-32 13t-13 32t13 32.5t32 13.5
t32.5 -13.5t13.5 -32.5zM371 293q0 -19 -13 -32t-32 -13t-32 13t-13 32t13 32t32 13t32 -13t13 -32zM256 405q0 -19 -13 -32.5t-32 -13.5t-32.5 13.5t-13.5 32.5t13.5 32t32.5 13t32 -13t13 -32zM139 518q0 -19 -13.5 -32t-32.5 -13t-32 13t-13 32t13 32t32 13t32.5 -13
t13.5 -32zM257 291q0 -19 -13 -32t-32 -13t-32 13t-13 32t13 32t32 13t32 -13t13 -32zM140 405q0 -19 -13 -32.5t-32 -13.5t-32.5 13.5t-13.5 32.5t13.5 32t32.5 13t32 -13t13 -32zM258 178q0 -19 -13 -32t-32 -13t-32 13t-13 32t13 32t32 13t32 -13t13 -32zM141 291
q0 -19 -13 -32t-32 -13t-32 13t-13 32t13 32t32 13t32 -13t13 -32zM260 64q0 -19 -13.5 -32t-32.5 -13t-32 13t-13 32t13 32.5t32 13.5t32.5 -13.5t13.5 -32.5zM142 178q0 -19 -13 -32t-32 -13t-32 13t-13 32t13 32t32 13t32 -13t13 -32zM144 64q0 -19 -13.5 -32t-32.5 -13
t-32 13t-13 32t13 32.5t32 13.5t32.5 -13.5t13.5 -32.5z" />
    <glyph glyph-name="B" unicode="B" horiz-adv-x="717" 
d="M571 739q0 -18 -18 -18t-18 18t18 18t18 -18zM598 633q0 -19 -13.5 -32.5t-31.5 -13.5q-19 0 -32 13.5t-13 32.5t13 32t32 13t32 -13t13 -32zM483 739q0 -19 -13.5 -32t-32.5 -13t-32 13t-13 32t13 32t32 13t32.5 -13t13.5 -32zM600 519q0 -19 -13.5 -32t-32.5 -13
t-32 13t-13 32t13 32t32 13t32.5 -13t13.5 -32zM482 633q0 -19 -13.5 -32.5t-31.5 -13.5q-19 0 -32 13.5t-13 32.5t13 32t32 13t32 -13t13 -32zM368 740q0 -19 -13.5 -32t-32.5 -13t-32 13t-13 32t13 32t32 13t32.5 -13t13.5 -32zM574 406q0 -18 -18 -18t-18 18t18 18
t18 -18zM484 519q0 -19 -13.5 -32t-32.5 -13t-32 13t-13 32t13 32t32 13t32.5 -13t13.5 -32zM254 738q0 -19 -13.5 -32t-32.5 -13t-32 13t-13 32t13 32t32 13t32.5 -13t13.5 -32zM602 292q0 -19 -13 -32t-32 -13t-32 13t-13 32t13 32t32 13t32 -13t13 -32zM485 406
q0 -19 -13.5 -32.5t-31.5 -13.5q-19 0 -32.5 13.5t-13.5 32.5t13.5 32t32.5 13t32 -13t13 -32zM253 632q0 -19 -13 -32.5t-32 -13.5t-32 13.5t-13 32.5t13 32t32 13t32 -13t13 -32zM138 738q0 -19 -13.5 -32t-32.5 -13t-32 13t-13 32t13 32t32 13t32.5 -13t13.5 -32z
M603 179q0 -19 -13 -32t-32 -13t-32 13t-13 32t13 32t32 13t32 -13t13 -32zM486 292q0 -19 -13 -32t-32 -13t-32 13t-13 32t13 32t32 13t32 -13t13 -32zM370 407q0 -19 -13 -32.5t-32 -13.5t-32.5 13.5t-13.5 32.5t13.5 32t32.5 13t32 -13t13 -32zM255 518q0 -19 -13.5 -32
t-32.5 -13t-32 13t-13 32t13 32t32 13t32.5 -13t13.5 -32zM137 632q0 -19 -13 -32.5t-32 -13.5t-32 13.5t-13 32.5t13 32t32 13t32 -13t13 -32zM577 65q0 -18 -18 -18t-18 18t18 18t18 -18zM487 179q0 -19 -13 -32t-32 -13t-32 13t-13 32t13 32t32 13t32 -13t13 -32z
M256 405q0 -19 -13 -32.5t-32 -13.5t-32.5 13.5t-13.5 32.5t13.5 32t32.5 13t32 -13t13 -32zM139 518q0 -19 -13.5 -32t-32.5 -13t-32 13t-13 32t13 32t32 13t32.5 -13t13.5 -32zM489 65q0 -19 -13.5 -32t-32.5 -13t-32 13t-13 32t13 32.5t32 13.5t32.5 -13.5t13.5 -32.5z
M257 291q0 -19 -13 -32t-32 -13t-32 13t-13 32t13 32t32 13t32 -13t13 -32zM140 405q0 -19 -13 -32.5t-32 -13.5t-32.5 13.5t-13.5 32.5t13.5 32t32.5 13t32 -13t13 -32zM374 66q0 -19 -13.5 -32t-32.5 -13t-32 13t-13 32t13 32.5t32 13.5t32.5 -13.5t13.5 -32.5zM258 178
q0 -19 -13 -32t-32 -13t-32 13t-13 32t13 32t32 13t32 -13t13 -32zM141 291q0 -19 -13 -32t-32 -13t-32 13t-13 32t13 32t32 13t32 -13t13 -32zM260 64q0 -19 -13.5 -32t-32.5 -13t-32 13t-13 32t13 32.5t32 13.5t32.5 -13.5t13.5 -32.5zM142 178q0 -19 -13 -32t-32 -13
t-32 13t-13 32t13 32t32 13t32 -13t13 -32zM144 64q0 -19 -13.5 -32t-32.5 -13t-32 13t-13 32t13 32.5t32 13.5t32.5 -13.5t13.5 -32.5z" />
    <glyph glyph-name="C" unicode="C" horiz-adv-x="682" 
d="M599 739q0 -19 -13.5 -32t-32.5 -13t-32 13t-13 32t13 32t32 13t32.5 -13t13.5 -32zM483 739q0 -19 -13.5 -32t-32.5 -13t-32 13t-13 32t13 32t32 13t32.5 -13t13.5 -32zM368 740q0 -19 -13.5 -32t-32.5 -13t-32 13t-13 32t13 32t32 13t32.5 -13t13.5 -32zM354 634
q0 -13 -9.5 -22.5t-22.5 -9.5t-22.5 9.5t-9.5 22.5q0 31 32 31t32 -31zM240 738q0 -13 -9.5 -22.5t-22.5 -9.5q-31 0 -31 32t31 32q13 0 22.5 -9.5t9.5 -22.5zM253 632q0 -19 -13 -32.5t-32 -13.5t-32 13.5t-13 32.5t13 32t32 13t32 -13t13 -32zM110 738q0 -18 -18 -18
t-18 18t18 18t18 -18zM255 518q0 -19 -13.5 -32t-32.5 -13t-32 13t-13 32t13 32t32 13t32.5 -13t13.5 -32zM137 632q0 -19 -13 -32.5t-32 -13.5t-32 13.5t-13 32.5t13 32t32 13t32 -13t13 -32zM605 65q0 -19 -13.5 -32t-32.5 -13t-32 13t-13 32t13 32.5t32 13.5t32.5 -13.5
t13.5 -32.5zM256 405q0 -19 -13 -32.5t-32 -13.5t-32.5 13.5t-13.5 32.5t13.5 32t32.5 13t32 -13t13 -32zM139 518q0 -19 -13.5 -32t-32.5 -13t-32 13t-13 32t13 32t32 13t32.5 -13t13.5 -32zM489 65q0 -19 -13.5 -32t-32.5 -13t-32 13t-13 32t13 32.5t32 13.5t32.5 -13.5
t13.5 -32.5zM359 180q0 -13 -9.5 -22.5t-22.5 -9.5t-22.5 9.5t-9.5 22.5q0 31 32 31t32 -31zM257 291q0 -19 -13 -32t-32 -13t-32 13t-13 32t13 32t32 13t32 -13t13 -32zM140 405q0 -19 -13 -32.5t-32 -13.5t-32.5 13.5t-13.5 32.5t13.5 32t32.5 13t32 -13t13 -32zM374 66
q0 -19 -13.5 -32t-32.5 -13t-32 13t-13 32t13 32.5t32 13.5t32.5 -13.5t13.5 -32.5zM258 178q0 -19 -13 -32t-32 -13t-32 13t-13 32t13 32t32 13t32 -13t13 -32zM141 291q0 -19 -13 -32t-32 -13t-32 13t-13 32t13 32t32 13t32 -13t13 -32zM246 64q0 -31 -32 -31
q-31 0 -31 31q0 32 31 32q13 0 22.5 -9.5t9.5 -22.5zM142 178q0 -19 -13 -32t-32 -13t-32 13t-13 32t13 32t32 13t32 -13t13 -32zM116 64q0 -18 -18 -18t-18 18t18 18t18 -18z" />
    <glyph glyph-name="D" unicode="D" horiz-adv-x="825" 
d="M699 635q0 -13 -9.5 -22.5t-22.5 -9.5t-22.5 9.5t-9.5 22.5q0 31 32 31t32 -31zM585 739q0 -13 -9.5 -22.5t-22.5 -9.5q-31 0 -31 32t31 32q13 0 22.5 -9.5t9.5 -22.5zM714 521q0 -19 -13.5 -32t-32.5 -13t-32 13t-13 32t13 32t32 13t32.5 -13t13.5 -32zM598 633
q0 -19 -13.5 -32.5t-31.5 -13.5q-19 0 -32 13.5t-13 32.5t13 32t32 13t32 -13t13 -32zM483 739q0 -19 -13.5 -32t-32.5 -13t-32 13t-13 32t13 32t32 13t32.5 -13t13.5 -32zM715 408q0 -19 -13.5 -32.5t-31.5 -13.5q-19 0 -32.5 13.5t-13.5 32.5t13.5 32t32.5 13t32 -13
t13 -32zM600 519q0 -19 -13.5 -32t-32.5 -13t-32 13t-13 32t13 32t32 13t32.5 -13t13.5 -32zM469 633q0 -13 -9.5 -22.5t-22.5 -9.5t-22.5 9.5t-9.5 22.5q0 31 32 31t32 -31zM368 740q0 -19 -13.5 -32t-32.5 -13t-32 13t-13 32t13 32t32 13t32.5 -13t13.5 -32zM716 294
q0 -19 -13 -32t-32 -13t-32 13t-13 32t13 32t32 13t32 -13t13 -32zM601 406q0 -19 -13.5 -32.5t-31.5 -13.5q-19 0 -32.5 13.5t-13.5 32.5t13.5 32t32.5 13t32 -13t13 -32zM254 738q0 -19 -13.5 -32t-32.5 -13t-32 13t-13 32t13 32t32 13t32.5 -13t13.5 -32zM704 181
q0 -13 -9.5 -22.5t-22.5 -9.5t-22.5 9.5t-9.5 22.5q0 31 32 31t32 -31zM602 292q0 -19 -13 -32t-32 -13t-32 13t-13 32t13 32t32 13t32 -13t13 -32zM253 632q0 -19 -13 -32.5t-32 -13.5t-32 13.5t-13 32.5t13 32t32 13t32 -13t13 -32zM138 738q0 -19 -13.5 -32t-32.5 -13
t-32 13t-13 32t13 32t32 13t32.5 -13t13.5 -32zM603 179q0 -19 -13 -32t-32 -13t-32 13t-13 32t13 32t32 13t32 -13t13 -32zM255 518q0 -19 -13.5 -32t-32.5 -13t-32 13t-13 32t13 32t32 13t32.5 -13t13.5 -32zM137 632q0 -19 -13 -32.5t-32 -13.5t-32 13.5t-13 32.5t13 32
t32 13t32 -13t13 -32zM591 65q0 -31 -32 -31q-31 0 -31 31q0 32 31 32q13 0 22.5 -9.5t9.5 -22.5zM474 179q0 -13 -9.5 -22.5t-22.5 -9.5t-22.5 9.5t-9.5 22.5q0 31 32 31t32 -31zM256 405q0 -19 -13 -32.5t-32 -13.5t-32.5 13.5t-13.5 32.5t13.5 32t32.5 13t32 -13t13 -32z
M139 518q0 -19 -13.5 -32t-32.5 -13t-32 13t-13 32t13 32t32 13t32.5 -13t13.5 -32zM489 65q0 -19 -13.5 -32t-32.5 -13t-32 13t-13 32t13 32.5t32 13.5t32.5 -13.5t13.5 -32.5zM257 291q0 -19 -13 -32t-32 -13t-32 13t-13 32t13 32t32 13t32 -13t13 -32zM140 405
q0 -19 -13 -32.5t-32 -13.5t-32.5 13.5t-13.5 32.5t13.5 32t32.5 13t32 -13t13 -32zM374 66q0 -19 -13.5 -32t-32.5 -13t-32 13t-13 32t13 32.5t32 13.5t32.5 -13.5t13.5 -32.5zM258 178q0 -19 -13 -32t-32 -13t-32 13t-13 32t13 32t32 13t32 -13t13 -32zM141 291
q0 -19 -13 -32t-32 -13t-32 13t-13 32t13 32t32 13t32 -13t13 -32zM260 64q0 -19 -13.5 -32t-32.5 -13t-32 13t-13 32t13 32.5t32 13.5t32.5 -13.5t13.5 -32.5zM142 178q0 -19 -13 -32t-32 -13t-32 13t-13 32t13 32t32 13t32 -13t13 -32zM144 64q0 -19 -13.5 -32t-32.5 -13
t-32 13t-13 32t13 32.5t32 13.5t32.5 -13.5t13.5 -32.5z" />
    <glyph glyph-name="E" unicode="E" horiz-adv-x="682" 
d="M599 739q0 -19 -13.5 -32t-32.5 -13t-32 13t-13 32t13 32t32 13t32.5 -13t13.5 -32zM483 739q0 -19 -13.5 -32t-32.5 -13t-32 13t-13 32t13 32t32 13t32.5 -13t13.5 -32zM368 740q0 -19 -13.5 -32t-32.5 -13t-32 13t-13 32t13 32t32 13t32.5 -13t13.5 -32zM254 738
q0 -19 -13.5 -32t-32.5 -13t-32 13t-13 32t13 32t32 13t32.5 -13t13.5 -32zM485 406q0 -19 -13.5 -32.5t-31.5 -13.5q-19 0 -32.5 13.5t-13.5 32.5t13.5 32t32.5 13t32 -13t13 -32zM253 632q0 -19 -13 -32.5t-32 -13.5t-32 13.5t-13 32.5t13 32t32 13t32 -13t13 -32z
M138 738q0 -19 -13.5 -32t-32.5 -13t-32 13t-13 32t13 32t32 13t32.5 -13t13.5 -32zM370 407q0 -19 -13 -32.5t-32 -13.5t-32.5 13.5t-13.5 32.5t13.5 32t32.5 13t32 -13t13 -32zM255 518q0 -19 -13.5 -32t-32.5 -13t-32 13t-13 32t13 32t32 13t32.5 -13t13.5 -32zM137 632
q0 -19 -13 -32.5t-32 -13.5t-32 13.5t-13 32.5t13 32t32 13t32 -13t13 -32zM605 65q0 -19 -13.5 -32t-32.5 -13t-32 13t-13 32t13 32.5t32 13.5t32.5 -13.5t13.5 -32.5zM256 405q0 -19 -13 -32.5t-32 -13.5t-32.5 13.5t-13.5 32.5t13.5 32t32.5 13t32 -13t13 -32zM139 518
q0 -19 -13.5 -32t-32.5 -13t-32 13t-13 32t13 32t32 13t32.5 -13t13.5 -32zM489 65q0 -19 -13.5 -32t-32.5 -13t-32 13t-13 32t13 32.5t32 13.5t32.5 -13.5t13.5 -32.5zM257 291q0 -19 -13 -32t-32 -13t-32 13t-13 32t13 32t32 13t32 -13t13 -32zM140 405q0 -19 -13 -32.5
t-32 -13.5t-32.5 13.5t-13.5 32.5t13.5 32t32.5 13t32 -13t13 -32zM374 66q0 -19 -13.5 -32t-32.5 -13t-32 13t-13 32t13 32.5t32 13.5t32.5 -13.5t13.5 -32.5zM258 178q0 -19 -13 -32t-32 -13t-32 13t-13 32t13 32t32 13t32 -13t13 -32zM141 291q0 -19 -13 -32t-32 -13
t-32 13t-13 32t13 32t32 13t32 -13t13 -32zM260 64q0 -19 -13.5 -32t-32.5 -13t-32 13t-13 32t13 32.5t32 13.5t32.5 -13.5t13.5 -32.5zM142 178q0 -19 -13 -32t-32 -13t-32 13t-13 32t13 32t32 13t32 -13t13 -32zM144 64q0 -19 -13.5 -32t-32.5 -13t-32 13t-13 32t13 32.5
t32 13.5t32.5 -13.5t13.5 -32.5z" />
    <glyph glyph-name="F" unicode="F" horiz-adv-x="677" 
d="M599 739q0 -19 -13.5 -32t-32.5 -13t-32 13t-13 32t13 32t32 13t32.5 -13t13.5 -32zM483 739q0 -19 -13.5 -32t-32.5 -13t-32 13t-13 32t13 32t32 13t32.5 -13t13.5 -32zM368 740q0 -19 -13.5 -32t-32.5 -13t-32 13t-13 32t13 32t32 13t32.5 -13t13.5 -32zM254 738
q0 -19 -13.5 -32t-32.5 -13t-32 13t-13 32t13 32t32 13t32.5 -13t13.5 -32zM485 406q0 -19 -13.5 -32.5t-31.5 -13.5q-19 0 -32.5 13.5t-13.5 32.5t13.5 32t32.5 13t32 -13t13 -32zM253 632q0 -19 -13 -32.5t-32 -13.5t-32 13.5t-13 32.5t13 32t32 13t32 -13t13 -32z
M138 738q0 -19 -13.5 -32t-32.5 -13t-32 13t-13 32t13 32t32 13t32.5 -13t13.5 -32zM370 407q0 -19 -13 -32.5t-32 -13.5t-32.5 13.5t-13.5 32.5t13.5 32t32.5 13t32 -13t13 -32zM255 518q0 -19 -13.5 -32t-32.5 -13t-32 13t-13 32t13 32t32 13t32.5 -13t13.5 -32zM137 632
q0 -19 -13 -32.5t-32 -13.5t-32 13.5t-13 32.5t13 32t32 13t32 -13t13 -32zM256 405q0 -19 -13 -32.5t-32 -13.5t-32.5 13.5t-13.5 32.5t13.5 32t32.5 13t32 -13t13 -32zM139 518q0 -19 -13.5 -32t-32.5 -13t-32 13t-13 32t13 32t32 13t32.5 -13t13.5 -32zM257 291
q0 -19 -13 -32t-32 -13t-32 13t-13 32t13 32t32 13t32 -13t13 -32zM140 405q0 -19 -13 -32.5t-32 -13.5t-32.5 13.5t-13.5 32.5t13.5 32t32.5 13t32 -13t13 -32zM258 178q0 -19 -13 -32t-32 -13t-32 13t-13 32t13 32t32 13t32 -13t13 -32zM141 291q0 -19 -13 -32t-32 -13
t-32 13t-13 32t13 32t32 13t32 -13t13 -32zM260 64q0 -19 -13.5 -32t-32.5 -13t-32 13t-13 32t13 32.5t32 13.5t32.5 -13.5t13.5 -32.5zM142 178q0 -19 -13 -32t-32 -13t-32 13t-13 32t13 32t32 13t32 -13t13 -32zM144 64q0 -19 -13.5 -32t-32.5 -13t-32 13t-13 32t13 32.5
t32 13.5t32.5 -13.5t13.5 -32.5z" />
    <glyph glyph-name="G" unicode="G" horiz-adv-x="816" 
d="M713 741q0 -19 -13.5 -32t-32.5 -13t-32 13t-13 32t13 32t32 13t32.5 -13t13.5 -32zM599 739q0 -19 -13.5 -32t-32.5 -13t-32 13t-13 32t13 32t32 13t32.5 -13t13.5 -32zM483 739q0 -19 -13.5 -32t-32.5 -13t-32 13t-13 32t13 32t32 13t32.5 -13t13.5 -32zM715 408
q0 -19 -13.5 -32.5t-31.5 -13.5q-19 0 -32.5 13.5t-13.5 32.5t13.5 32t32.5 13t32 -13t13 -32zM368 740q0 -19 -13.5 -32t-32.5 -13t-32 13t-13 32t13 32t32 13t32.5 -13t13.5 -32zM716 294q0 -19 -13 -32t-32 -13t-32 13t-13 32t13 32t32 13t32 -13t13 -32zM601 406
q0 -19 -13.5 -32.5t-31.5 -13.5q-19 0 -32.5 13.5t-13.5 32.5t13.5 32t32.5 13t32 -13t13 -32zM354 634q0 -13 -9.5 -22.5t-22.5 -9.5t-22.5 9.5t-9.5 22.5q0 31 32 31t32 -31zM254 738q0 -19 -13.5 -32t-32.5 -13t-32 13t-13 32t13 32t32 13t32.5 -13t13.5 -32zM717 181
q0 -19 -13 -32t-32 -13t-32 13t-13 32t13 32t32 13t32 -13t13 -32zM602 292q0 -19 -13 -32t-32 -13t-32 13t-13 32t13 32t32 13t32 -13t13 -32zM485 406q0 -19 -13.5 -32.5t-31.5 -13.5q-19 0 -32.5 13.5t-13.5 32.5t13.5 32t32.5 13t32 -13t13 -32zM253 632
q0 -19 -13 -32.5t-32 -13.5t-32 13.5t-13 32.5t13 32t32 13t32 -13t13 -32zM110 738q0 -18 -18 -18t-18 18t18 18t18 -18zM719 67q0 -19 -13.5 -32t-32.5 -13t-32 13t-13 32t13 32.5t32 13.5t32.5 -13.5t13.5 -32.5zM603 179q0 -19 -13 -32t-32 -13t-32 13t-13 32t13 32
t32 13t32 -13t13 -32zM255 518q0 -19 -13.5 -32t-32.5 -13t-32 13t-13 32t13 32t32 13t32.5 -13t13.5 -32zM137 632q0 -19 -13 -32.5t-32 -13.5t-32 13.5t-13 32.5t13 32t32 13t32 -13t13 -32zM605 65q0 -19 -13.5 -32t-32.5 -13t-32 13t-13 32t13 32.5t32 13.5t32.5 -13.5
t13.5 -32.5zM460 179q0 -18 -18 -18t-18 18t18 18t18 -18zM256 405q0 -19 -13 -32.5t-32 -13.5t-32.5 13.5t-13.5 32.5t13.5 32t32.5 13t32 -13t13 -32zM139 518q0 -19 -13.5 -32t-32.5 -13t-32 13t-13 32t13 32t32 13t32.5 -13t13.5 -32zM489 65q0 -19 -13.5 -32t-32.5 -13
t-32 13t-13 32t13 32.5t32 13.5t32.5 -13.5t13.5 -32.5zM359 180q0 -13 -9.5 -22.5t-22.5 -9.5t-22.5 9.5t-9.5 22.5q0 31 32 31t32 -31zM257 291q0 -19 -13 -32t-32 -13t-32 13t-13 32t13 32t32 13t32 -13t13 -32zM140 405q0 -19 -13 -32.5t-32 -13.5t-32.5 13.5
t-13.5 32.5t13.5 32t32.5 13t32 -13t13 -32zM374 66q0 -19 -13.5 -32t-32.5 -13t-32 13t-13 32t13 32.5t32 13.5t32.5 -13.5t13.5 -32.5zM258 178q0 -19 -13 -32t-32 -13t-32 13t-13 32t13 32t32 13t32 -13t13 -32zM141 291q0 -19 -13 -32t-32 -13t-32 13t-13 32t13 32
t32 13t32 -13t13 -32zM260 64q0 -19 -13.5 -32t-32.5 -13t-32 13t-13 32t13 32.5t32 13.5t32.5 -13.5t13.5 -32.5zM142 178q0 -19 -13 -32t-32 -13t-32 13t-13 32t13 32t32 13t32 -13t13 -32zM116 64q0 -18 -18 -18t-18 18t18 18t18 -18z" />
    <glyph glyph-name="H" unicode="H" horiz-adv-x="837" 
d="M713 741q0 -19 -13.5 -32t-32.5 -13t-32 13t-13 32t13 32t32 13t32.5 -13t13.5 -32zM712 635q0 -19 -13.5 -32.5t-31.5 -13.5q-19 0 -32 13.5t-13 32.5t13 32t32 13t32 -13t13 -32zM599 739q0 -19 -13.5 -32t-32.5 -13t-32 13t-13 32t13 32t32 13t32.5 -13t13.5 -32z
M714 521q0 -19 -13.5 -32t-32.5 -13t-32 13t-13 32t13 32t32 13t32.5 -13t13.5 -32zM598 633q0 -19 -13.5 -32.5t-31.5 -13.5q-19 0 -32 13.5t-13 32.5t13 32t32 13t32 -13t13 -32zM715 408q0 -19 -13.5 -32.5t-31.5 -13.5q-19 0 -32.5 13.5t-13.5 32.5t13.5 32t32.5 13
t32 -13t13 -32zM600 519q0 -19 -13.5 -32t-32.5 -13t-32 13t-13 32t13 32t32 13t32.5 -13t13.5 -32zM716 294q0 -19 -13 -32t-32 -13t-32 13t-13 32t13 32t32 13t32 -13t13 -32zM601 406q0 -19 -13.5 -32.5t-31.5 -13.5q-19 0 -32.5 13.5t-13.5 32.5t13.5 32t32.5 13t32 -13
t13 -32zM254 738q0 -19 -13.5 -32t-32.5 -13t-32 13t-13 32t13 32t32 13t32.5 -13t13.5 -32zM717 181q0 -19 -13 -32t-32 -13t-32 13t-13 32t13 32t32 13t32 -13t13 -32zM602 292q0 -19 -13 -32t-32 -13t-32 13t-13 32t13 32t32 13t32 -13t13 -32zM485 406
q0 -19 -13.5 -32.5t-31.5 -13.5q-19 0 -32.5 13.5t-13.5 32.5t13.5 32t32.5 13t32 -13t13 -32zM253 632q0 -19 -13 -32.5t-32 -13.5t-32 13.5t-13 32.5t13 32t32 13t32 -13t13 -32zM138 738q0 -19 -13.5 -32t-32.5 -13t-32 13t-13 32t13 32t32 13t32.5 -13t13.5 -32zM719 67
q0 -19 -13.5 -32t-32.5 -13t-32 13t-13 32t13 32.5t32 13.5t32.5 -13.5t13.5 -32.5zM603 179q0 -19 -13 -32t-32 -13t-32 13t-13 32t13 32t32 13t32 -13t13 -32zM370 407q0 -19 -13 -32.5t-32 -13.5t-32.5 13.5t-13.5 32.5t13.5 32t32.5 13t32 -13t13 -32zM255 518
q0 -19 -13.5 -32t-32.5 -13t-32 13t-13 32t13 32t32 13t32.5 -13t13.5 -32zM137 632q0 -19 -13 -32.5t-32 -13.5t-32 13.5t-13 32.5t13 32t32 13t32 -13t13 -32zM605 65q0 -19 -13.5 -32t-32.5 -13t-32 13t-13 32t13 32.5t32 13.5t32.5 -13.5t13.5 -32.5zM256 405
q0 -19 -13 -32.5t-32 -13.5t-32.5 13.5t-13.5 32.5t13.5 32t32.5 13t32 -13t13 -32zM139 518q0 -19 -13.5 -32t-32.5 -13t-32 13t-13 32t13 32t32 13t32.5 -13t13.5 -32zM257 291q0 -19 -13 -32t-32 -13t-32 13t-13 32t13 32t32 13t32 -13t13 -32zM140 405q0 -19 -13 -32.5
t-32 -13.5t-32.5 13.5t-13.5 32.5t13.5 32t32.5 13t32 -13t13 -32zM258 178q0 -19 -13 -32t-32 -13t-32 13t-13 32t13 32t32 13t32 -13t13 -32zM141 291q0 -19 -13 -32t-32 -13t-32 13t-13 32t13 32t32 13t32 -13t13 -32zM260 64q0 -19 -13.5 -32t-32.5 -13t-32 13t-13 32
t13 32.5t32 13.5t32.5 -13.5t13.5 -32.5zM142 178q0 -19 -13 -32t-32 -13t-32 13t-13 32t13 32t32 13t32 -13t13 -32zM144 64q0 -19 -13.5 -32t-32.5 -13t-32 13t-13 32t13 32.5t32 13.5t32.5 -13.5t13.5 -32.5z" />
    <glyph glyph-name="I" unicode="I" horiz-adv-x="593" 
d="M483 739q0 -19 -13.5 -32t-32.5 -13t-32 13t-13 32t13 32t32 13t32.5 -13t13.5 -32zM368 740q0 -19 -13.5 -32t-32.5 -13t-32 13t-13 32t13 32t32 13t32.5 -13t13.5 -32zM367 634q0 -19 -13 -32.5t-32 -13.5t-32 13.5t-13 32.5t13 32t32 13t32 -13t13 -32zM254 738
q0 -19 -13.5 -32t-32.5 -13t-32 13t-13 32t13 32t32 13t32.5 -13t13.5 -32zM369 520q0 -19 -13.5 -32t-32.5 -13t-32 13t-13 32t13 32t32 13t32.5 -13t13.5 -32zM253 632q0 -19 -13 -32.5t-32 -13.5t-32 13.5t-13 32.5t13 32t32 13t32 -13t13 -32zM138 738q0 -19 -13.5 -32
t-32.5 -13t-32 13t-13 32t13 32t32 13t32.5 -13t13.5 -32zM370 407q0 -19 -13 -32.5t-32 -13.5t-32.5 13.5t-13.5 32.5t13.5 32t32.5 13t32 -13t13 -32zM255 518q0 -19 -13.5 -32t-32.5 -13t-32 13t-13 32t13 32t32 13t32.5 -13t13.5 -32zM371 293q0 -19 -13 -32t-32 -13
t-32 13t-13 32t13 32t32 13t32 -13t13 -32zM256 405q0 -19 -13 -32.5t-32 -13.5t-32.5 13.5t-13.5 32.5t13.5 32t32.5 13t32 -13t13 -32zM489 65q0 -19 -13.5 -32t-32.5 -13t-32 13t-13 32t13 32.5t32 13.5t32.5 -13.5t13.5 -32.5zM372 180q0 -19 -13 -32t-32 -13t-32 13
t-13 32t13 32t32 13t32 -13t13 -32zM257 291q0 -19 -13 -32t-32 -13t-32 13t-13 32t13 32t32 13t32 -13t13 -32zM374 66q0 -19 -13.5 -32t-32.5 -13t-32 13t-13 32t13 32.5t32 13.5t32.5 -13.5t13.5 -32.5zM258 178q0 -19 -13 -32t-32 -13t-32 13t-13 32t13 32t32 13t32 -13
t13 -32zM260 64q0 -19 -13.5 -32t-32.5 -13t-32 13t-13 32t13 32.5t32 13.5t32.5 -13.5t13.5 -32.5zM144 64q0 -19 -13.5 -32t-32.5 -13t-32 13t-13 32t13 32.5t32 13.5t32.5 -13.5t13.5 -32.5z" />
    <glyph glyph-name="J" unicode="J" horiz-adv-x="724" 
d="M599 739q0 -19 -13.5 -32t-32.5 -13t-32 13t-13 32t13 32t32 13t32.5 -13t13.5 -32zM598 633q0 -19 -13.5 -32.5t-31.5 -13.5q-19 0 -32 13.5t-13 32.5t13 32t32 13t32 -13t13 -32zM483 739q0 -19 -13.5 -32t-32.5 -13t-32 13t-13 32t13 32t32 13t32.5 -13t13.5 -32z
M600 519q0 -19 -13.5 -32t-32.5 -13t-32 13t-13 32t13 32t32 13t32.5 -13t13.5 -32zM482 633q0 -19 -13.5 -32.5t-31.5 -13.5q-19 0 -32 13.5t-13 32.5t13 32t32 13t32 -13t13 -32zM368 740q0 -19 -13.5 -32t-32.5 -13t-32 13t-13 32t13 32t32 13t32.5 -13t13.5 -32z
M601 406q0 -19 -13.5 -32.5t-31.5 -13.5q-19 0 -32.5 13.5t-13.5 32.5t13.5 32t32.5 13t32 -13t13 -32zM484 519q0 -19 -13.5 -32t-32.5 -13t-32 13t-13 32t13 32t32 13t32.5 -13t13.5 -32zM602 292q0 -19 -13 -32t-32 -13t-32 13t-13 32t13 32t32 13t32 -13t13 -32z
M485 406q0 -19 -13.5 -32.5t-31.5 -13.5q-19 0 -32.5 13.5t-13.5 32.5t13.5 32t32.5 13t32 -13t13 -32zM603 179q0 -19 -13 -32t-32 -13t-32 13t-13 32t13 32t32 13t32 -13t13 -32zM486 292q0 -19 -13 -32t-32 -13t-32 13t-13 32t13 32t32 13t32 -13t13 -32zM577 65
q0 -18 -18 -18t-18 18t18 18t18 -18zM487 179q0 -19 -13 -32t-32 -13t-32 13t-13 32t13 32t32 13t32 -13t13 -32zM489 65q0 -19 -13.5 -32t-32.5 -13t-32 13t-13 32t13 32.5t32 13.5t32.5 -13.5t13.5 -32.5zM359 180q0 -13 -9.5 -22.5t-22.5 -9.5t-22.5 9.5t-9.5 22.5
q0 31 32 31t32 -31zM257 291q0 -19 -13 -32t-32 -13t-32 13t-13 32t13 32t32 13t32 -13t13 -32zM374 66q0 -19 -13.5 -32t-32.5 -13t-32 13t-13 32t13 32.5t32 13.5t32.5 -13.5t13.5 -32.5zM258 178q0 -19 -13 -32t-32 -13t-32 13t-13 32t13 32t32 13t32 -13t13 -32z
M141 291q0 -19 -13 -32t-32 -13t-32 13t-13 32t13 32t32 13t32 -13t13 -32zM260 64q0 -19 -13.5 -32t-32.5 -13t-32 13t-13 32t13 32.5t32 13.5t32.5 -13.5t13.5 -32.5zM142 178q0 -19 -13 -32t-32 -13t-32 13t-13 32t13 32t32 13t32 -13t13 -32zM116 64q0 -18 -18 -18
t-18 18t18 18t18 -18z" />
    <glyph glyph-name="K" unicode="K" horiz-adv-x="803" 
d="M599 739q0 -19 -13.5 -32t-32.5 -13t-32 13t-13 32t13 32t32 13t32.5 -13t13.5 -32zM469 739q0 -13 -9.5 -22.5t-22.5 -9.5q-31 0 -31 32t31 32q13 0 22.5 -9.5t9.5 -22.5zM482 633q0 -19 -13.5 -32.5t-31.5 -13.5q-19 0 -32 13.5t-13 32.5t13 32t32 13t32 -13t13 -32z
M354 634q0 -13 -9.5 -22.5t-22.5 -9.5t-22.5 9.5t-9.5 22.5q0 31 32 31t32 -31zM254 738q0 -19 -13.5 -32t-32.5 -13t-32 13t-13 32t13 32t32 13t32.5 -13t13.5 -32zM369 520q0 -19 -13.5 -32t-32.5 -13t-32 13t-13 32t13 32t32 13t32.5 -13t13.5 -32zM253 632
q0 -19 -13 -32.5t-32 -13.5t-32 13.5t-13 32.5t13 32t32 13t32 -13t13 -32zM138 738q0 -19 -13.5 -32t-32.5 -13t-32 13t-13 32t13 32t32 13t32.5 -13t13.5 -32zM719 67q0 -19 -13.5 -32t-32.5 -13t-32 13t-13 32t13 32.5t32 13.5t32.5 -13.5t13.5 -32.5zM603 179
q0 -19 -13 -32t-32 -13t-32 13t-13 32t13 32t32 13t32 -13t13 -32zM486 292q0 -19 -13 -32t-32 -13t-32 13t-13 32t13 32t32 13t32 -13t13 -32zM370 407q0 -19 -13 -32.5t-32 -13.5t-32.5 13.5t-13.5 32.5t13.5 32t32.5 13t32 -13t13 -32zM255 518q0 -19 -13.5 -32
t-32.5 -13t-32 13t-13 32t13 32t32 13t32.5 -13t13.5 -32zM137 632q0 -19 -13 -32.5t-32 -13.5t-32 13.5t-13 32.5t13 32t32 13t32 -13t13 -32zM591 65q0 -31 -32 -31q-31 0 -31 31q0 32 31 32q13 0 22.5 -9.5t9.5 -22.5zM474 179q0 -13 -9.5 -22.5t-22.5 -9.5t-22.5 9.5
t-9.5 22.5q0 31 32 31t32 -31zM357 293q0 -31 -31 -31q-32 0 -32 31q0 13 9.5 22.5t22.5 9.5q31 0 31 -32zM256 405q0 -19 -13 -32.5t-32 -13.5t-32.5 13.5t-13.5 32.5t13.5 32t32.5 13t32 -13t13 -32zM139 518q0 -19 -13.5 -32t-32.5 -13t-32 13t-13 32t13 32t32 13
t32.5 -13t13.5 -32zM257 291q0 -19 -13 -32t-32 -13t-32 13t-13 32t13 32t32 13t32 -13t13 -32zM140 405q0 -19 -13 -32.5t-32 -13.5t-32.5 13.5t-13.5 32.5t13.5 32t32.5 13t32 -13t13 -32zM258 178q0 -19 -13 -32t-32 -13t-32 13t-13 32t13 32t32 13t32 -13t13 -32z
M141 291q0 -19 -13 -32t-32 -13t-32 13t-13 32t13 32t32 13t32 -13t13 -32zM260 64q0 -19 -13.5 -32t-32.5 -13t-32 13t-13 32t13 32.5t32 13.5t32.5 -13.5t13.5 -32.5zM142 178q0 -19 -13 -32t-32 -13t-32 13t-13 32t13 32t32 13t32 -13t13 -32zM144 64q0 -19 -13.5 -32
t-32.5 -13t-32 13t-13 32t13 32.5t32 13.5t32.5 -13.5t13.5 -32.5z" />
    <glyph glyph-name="L" unicode="L" horiz-adv-x="668" 
d="M254 738q0 -19 -13.5 -32t-32.5 -13t-32 13t-13 32t13 32t32 13t32.5 -13t13.5 -32zM253 632q0 -19 -13 -32.5t-32 -13.5t-32 13.5t-13 32.5t13 32t32 13t32 -13t13 -32zM138 738q0 -19 -13.5 -32t-32.5 -13t-32 13t-13 32t13 32t32 13t32.5 -13t13.5 -32zM255 518
q0 -19 -13.5 -32t-32.5 -13t-32 13t-13 32t13 32t32 13t32.5 -13t13.5 -32zM137 632q0 -19 -13 -32.5t-32 -13.5t-32 13.5t-13 32.5t13 32t32 13t32 -13t13 -32zM605 65q0 -19 -13.5 -32t-32.5 -13t-32 13t-13 32t13 32.5t32 13.5t32.5 -13.5t13.5 -32.5zM256 405
q0 -19 -13 -32.5t-32 -13.5t-32.5 13.5t-13.5 32.5t13.5 32t32.5 13t32 -13t13 -32zM139 518q0 -19 -13.5 -32t-32.5 -13t-32 13t-13 32t13 32t32 13t32.5 -13t13.5 -32zM489 65q0 -19 -13.5 -32t-32.5 -13t-32 13t-13 32t13 32.5t32 13.5t32.5 -13.5t13.5 -32.5zM257 291
q0 -19 -13 -32t-32 -13t-32 13t-13 32t13 32t32 13t32 -13t13 -32zM140 405q0 -19 -13 -32.5t-32 -13.5t-32.5 13.5t-13.5 32.5t13.5 32t32.5 13t32 -13t13 -32zM374 66q0 -19 -13.5 -32t-32.5 -13t-32 13t-13 32t13 32.5t32 13.5t32.5 -13.5t13.5 -32.5zM258 178
q0 -19 -13 -32t-32 -13t-32 13t-13 32t13 32t32 13t32 -13t13 -32zM141 291q0 -19 -13 -32t-32 -13t-32 13t-13 32t13 32t32 13t32 -13t13 -32zM260 64q0 -19 -13.5 -32t-32.5 -13t-32 13t-13 32t13 32.5t32 13.5t32.5 -13.5t13.5 -32.5zM142 178q0 -19 -13 -32t-32 -13
t-32 13t-13 32t13 32t32 13t32 -13t13 -32zM144 64q0 -19 -13.5 -32t-32.5 -13t-32 13t-13 32t13 32.5t32 13.5t32.5 -13.5t13.5 -32.5z" />
    <glyph glyph-name="M" unicode="M" horiz-adv-x="952" 
d="M826 741q0 -18 -13.5 -31.5t-32.5 -13.5q-18 0 -31.5 13.5t-13.5 31.5q0 19 13.5 32t31.5 13q19 0 32.5 -13t13.5 -32zM825 635q0 -18 -13 -32t-32 -14q-18 0 -31.5 14t-13.5 32q0 19 13.5 32t31.5 13q19 0 32 -13t13 -32zM713 741q0 -19 -13.5 -32t-32.5 -13t-32 13
t-13 32t13 32t32 13t32.5 -13t13.5 -32zM827 521q0 -18 -13.5 -31.5t-32.5 -13.5q-18 0 -31.5 13.5t-13.5 31.5q0 19 13.5 32t31.5 13q19 0 32.5 -13t13.5 -32zM712 635q0 -19 -13.5 -32.5t-31.5 -13.5q-19 0 -32 13.5t-13 32.5t13 32t32 13t32 -13t13 -32zM828 408
q0 -18 -13 -32t-32 -14q-18 0 -32 14t-14 32q0 19 14 32t32 13q19 0 32 -13t13 -32zM714 521q0 -19 -13.5 -32t-32.5 -13t-32 13t-13 32t13 32t32 13t32.5 -13t13.5 -32zM598 633q0 -19 -13.5 -32.5t-31.5 -13.5q-19 0 -32 13.5t-13 32.5t13 32t32 13t32 -13t13 -32z
M829 294q0 -18 -13 -31.5t-32 -13.5q-18 0 -31.5 13.5t-13.5 31.5q0 19 13.5 32t31.5 13q19 0 32 -13t13 -32zM715 408q0 -19 -13.5 -32.5t-31.5 -13.5q-19 0 -32.5 13.5t-13.5 32.5t13.5 32t32.5 13t32 -13t13 -32zM586 519q0 -13 -9.5 -22.5t-22.5 -9.5q-31 0 -31 32
t31 32q13 0 22.5 -9.5t9.5 -22.5zM455 633q0 -18 -18 -18t-18 18t18 18t18 -18zM830 181q0 -18 -13 -31.5t-32 -13.5q-18 0 -31.5 13.5t-13.5 31.5q0 19 13.5 32t31.5 13q19 0 32 -13t13 -32zM716 294q0 -19 -13 -32t-32 -13t-32 13t-13 32t13 32t32 13t32 -13t13 -32z
M484 519q0 -19 -13.5 -32t-32.5 -13t-32 13t-13 32t13 32t32 13t32.5 -13t13.5 -32zM367 634q0 -19 -13 -32.5t-32 -13.5t-32 13.5t-13 32.5t13 32t32 13t32 -13t13 -32zM254 738q0 -19 -13.5 -32t-32.5 -13t-32 13t-13 32t13 32t32 13t32.5 -13t13.5 -32zM832 67
q0 -18 -13.5 -31.5t-32.5 -13.5q-18 0 -31.5 13.5t-13.5 31.5q0 19 13.5 32.5t31.5 13.5q19 0 32.5 -13.5t13.5 -32.5zM717 181q0 -19 -13 -32t-32 -13t-32 13t-13 32t13 32t32 13t32 -13t13 -32zM485 406q0 -19 -13.5 -32.5t-31.5 -13.5q-19 0 -32.5 13.5t-13.5 32.5
t13.5 32t32.5 13t32 -13t13 -32zM355 520q0 -13 -9.5 -22.5t-22.5 -9.5q-31 0 -31 32t31 32q13 0 22.5 -9.5t9.5 -22.5zM253 632q0 -19 -13 -32.5t-32 -13.5t-32 13.5t-13 32.5t13 32t32 13t32 -13t13 -32zM138 738q0 -19 -13.5 -32t-32.5 -13t-32 13t-13 32t13 32t32 13
t32.5 -13t13.5 -32zM719 67q0 -19 -13.5 -32t-32.5 -13t-32 13t-13 32t13 32.5t32 13.5t32.5 -13.5t13.5 -32.5zM255 518q0 -19 -13.5 -32t-32.5 -13t-32 13t-13 32t13 32t32 13t32.5 -13t13.5 -32zM137 632q0 -19 -13 -32.5t-32 -13.5t-32 13.5t-13 32.5t13 32t32 13
t32 -13t13 -32zM256 405q0 -19 -13 -32.5t-32 -13.5t-32.5 13.5t-13.5 32.5t13.5 32t32.5 13t32 -13t13 -32zM139 518q0 -19 -13.5 -32t-32.5 -13t-32 13t-13 32t13 32t32 13t32.5 -13t13.5 -32zM257 291q0 -19 -13 -32t-32 -13t-32 13t-13 32t13 32t32 13t32 -13t13 -32z
M140 405q0 -19 -13 -32.5t-32 -13.5t-32.5 13.5t-13.5 32.5t13.5 32t32.5 13t32 -13t13 -32zM258 178q0 -19 -13 -32t-32 -13t-32 13t-13 32t13 32t32 13t32 -13t13 -32zM141 291q0 -19 -13 -32t-32 -13t-32 13t-13 32t13 32t32 13t32 -13t13 -32zM260 64q0 -19 -13.5 -32
t-32.5 -13t-32 13t-13 32t13 32.5t32 13.5t32.5 -13.5t13.5 -32.5zM142 178q0 -19 -13 -32t-32 -13t-32 13t-13 32t13 32t32 13t32 -13t13 -32zM144 64q0 -19 -13.5 -32t-32.5 -13t-32 13t-13 32t13 32.5t32 13.5t32.5 -13.5t13.5 -32.5z" />
    <glyph glyph-name="N" unicode="N" horiz-adv-x="837" 
d="M713 741q0 -19 -13.5 -32t-32.5 -13t-32 13t-13 32t13 32t32 13t32.5 -13t13.5 -32zM712 635q0 -19 -13.5 -32.5t-31.5 -13.5q-19 0 -32 13.5t-13 32.5t13 32t32 13t32 -13t13 -32zM599 739q0 -19 -13.5 -32t-32.5 -13t-32 13t-13 32t13 32t32 13t32.5 -13t13.5 -32z
M714 521q0 -19 -13.5 -32t-32.5 -13t-32 13t-13 32t13 32t32 13t32.5 -13t13.5 -32zM598 633q0 -19 -13.5 -32.5t-31.5 -13.5q-19 0 -32 13.5t-13 32.5t13 32t32 13t32 -13t13 -32zM715 408q0 -19 -13.5 -32.5t-31.5 -13.5q-19 0 -32.5 13.5t-13.5 32.5t13.5 32t32.5 13
t32 -13t13 -32zM600 519q0 -19 -13.5 -32t-32.5 -13t-32 13t-13 32t13 32t32 13t32.5 -13t13.5 -32zM716 294q0 -19 -13 -32t-32 -13t-32 13t-13 32t13 32t32 13t32 -13t13 -32zM601 406q0 -19 -13.5 -32.5t-31.5 -13.5q-19 0 -32.5 13.5t-13.5 32.5t13.5 32t32.5 13t32 -13
t13 -32zM470 519q0 -13 -9.5 -22.5t-22.5 -9.5q-31 0 -31 32t31 32q13 0 22.5 -9.5t9.5 -22.5zM354 634q0 -13 -9.5 -22.5t-22.5 -9.5t-22.5 9.5t-9.5 22.5q0 31 32 31t32 -31zM240 738q0 -13 -9.5 -22.5t-22.5 -9.5q-31 0 -31 32t31 32q13 0 22.5 -9.5t9.5 -22.5zM717 181
q0 -19 -13 -32t-32 -13t-32 13t-13 32t13 32t32 13t32 -13t13 -32zM602 292q0 -19 -13 -32t-32 -13t-32 13t-13 32t13 32t32 13t32 -13t13 -32zM485 406q0 -19 -13.5 -32.5t-31.5 -13.5q-19 0 -32.5 13.5t-13.5 32.5t13.5 32t32.5 13t32 -13t13 -32zM369 520
q0 -19 -13.5 -32t-32.5 -13t-32 13t-13 32t13 32t32 13t32.5 -13t13.5 -32zM253 632q0 -19 -13 -32.5t-32 -13.5t-32 13.5t-13 32.5t13 32t32 13t32 -13t13 -32zM138 738q0 -19 -13.5 -32t-32.5 -13t-32 13t-13 32t13 32t32 13t32.5 -13t13.5 -32zM719 67q0 -19 -13.5 -32
t-32.5 -13t-32 13t-13 32t13 32.5t32 13.5t32.5 -13.5t13.5 -32.5zM603 179q0 -19 -13 -32t-32 -13t-32 13t-13 32t13 32t32 13t32 -13t13 -32zM255 518q0 -19 -13.5 -32t-32.5 -13t-32 13t-13 32t13 32t32 13t32.5 -13t13.5 -32zM137 632q0 -19 -13 -32.5t-32 -13.5
t-32 13.5t-13 32.5t13 32t32 13t32 -13t13 -32zM605 65q0 -19 -13.5 -32t-32.5 -13t-32 13t-13 32t13 32.5t32 13.5t32.5 -13.5t13.5 -32.5zM256 405q0 -19 -13 -32.5t-32 -13.5t-32.5 13.5t-13.5 32.5t13.5 32t32.5 13t32 -13t13 -32zM139 518q0 -19 -13.5 -32t-32.5 -13
t-32 13t-13 32t13 32t32 13t32.5 -13t13.5 -32zM257 291q0 -19 -13 -32t-32 -13t-32 13t-13 32t13 32t32 13t32 -13t13 -32zM140 405q0 -19 -13 -32.5t-32 -13.5t-32.5 13.5t-13.5 32.5t13.5 32t32.5 13t32 -13t13 -32zM258 178q0 -19 -13 -32t-32 -13t-32 13t-13 32t13 32
t32 13t32 -13t13 -32zM141 291q0 -19 -13 -32t-32 -13t-32 13t-13 32t13 32t32 13t32 -13t13 -32zM260 64q0 -19 -13.5 -32t-32.5 -13t-32 13t-13 32t13 32.5t32 13.5t32.5 -13.5t13.5 -32.5zM142 178q0 -19 -13 -32t-32 -13t-32 13t-13 32t13 32t32 13t32 -13t13 -32z
M144 64q0 -19 -13.5 -32t-32.5 -13t-32 13t-13 32t13 32.5t32 13.5t32.5 -13.5t13.5 -32.5z" />
    <glyph glyph-name="O" unicode="O" horiz-adv-x="827" 
d="M685 741q0 -18 -18 -18t-18 18t18 18t18 -18zM699 635q0 -13 -9.5 -22.5t-22.5 -9.5t-22.5 9.5t-9.5 22.5q0 31 32 31t32 -31zM585 739q0 -13 -9.5 -22.5t-22.5 -9.5q-31 0 -31 32t31 32q13 0 22.5 -9.5t9.5 -22.5zM714 521q0 -19 -13.5 -32t-32.5 -13t-32 13t-13 32
t13 32t32 13t32.5 -13t13.5 -32zM598 633q0 -19 -13.5 -32.5t-31.5 -13.5q-19 0 -32 13.5t-13 32.5t13 32t32 13t32 -13t13 -32zM483 739q0 -19 -13.5 -32t-32.5 -13t-32 13t-13 32t13 32t32 13t32.5 -13t13.5 -32zM715 408q0 -19 -13.5 -32.5t-31.5 -13.5q-19 0 -32.5 13.5
t-13.5 32.5t13.5 32t32.5 13t32 -13t13 -32zM600 519q0 -19 -13.5 -32t-32.5 -13t-32 13t-13 32t13 32t32 13t32.5 -13t13.5 -32zM368 740q0 -19 -13.5 -32t-32.5 -13t-32 13t-13 32t13 32t32 13t32.5 -13t13.5 -32zM716 294q0 -19 -13 -32t-32 -13t-32 13t-13 32t13 32
t32 13t32 -13t13 -32zM601 406q0 -19 -13.5 -32.5t-31.5 -13.5q-19 0 -32.5 13.5t-13.5 32.5t13.5 32t32.5 13t32 -13t13 -32zM240 738q0 -13 -9.5 -22.5t-22.5 -9.5q-31 0 -31 32t31 32q13 0 22.5 -9.5t9.5 -22.5zM704 181q0 -13 -9.5 -22.5t-22.5 -9.5t-22.5 9.5
t-9.5 22.5q0 31 32 31t32 -31zM602 292q0 -19 -13 -32t-32 -13t-32 13t-13 32t13 32t32 13t32 -13t13 -32zM253 632q0 -19 -13 -32.5t-32 -13.5t-32 13.5t-13 32.5t13 32t32 13t32 -13t13 -32zM110 738q0 -18 -18 -18t-18 18t18 18t18 -18zM691 67q0 -18 -18 -18t-18 18
t18 18t18 -18zM603 179q0 -19 -13 -32t-32 -13t-32 13t-13 32t13 32t32 13t32 -13t13 -32zM255 518q0 -19 -13.5 -32t-32.5 -13t-32 13t-13 32t13 32t32 13t32.5 -13t13.5 -32zM124 632q0 -13 -9.5 -22.5t-22.5 -9.5t-22.5 9.5t-9.5 22.5q0 31 32 31t32 -31zM591 65
q0 -31 -32 -31q-31 0 -31 31q0 32 31 32q13 0 22.5 -9.5t9.5 -22.5zM256 405q0 -19 -13 -32.5t-32 -13.5t-32.5 13.5t-13.5 32.5t13.5 32t32.5 13t32 -13t13 -32zM139 518q0 -19 -13.5 -32t-32.5 -13t-32 13t-13 32t13 32t32 13t32.5 -13t13.5 -32zM489 65q0 -19 -13.5 -32
t-32.5 -13t-32 13t-13 32t13 32.5t32 13.5t32.5 -13.5t13.5 -32.5zM257 291q0 -19 -13 -32t-32 -13t-32 13t-13 32t13 32t32 13t32 -13t13 -32zM140 405q0 -19 -13 -32.5t-32 -13.5t-32.5 13.5t-13.5 32.5t13.5 32t32.5 13t32 -13t13 -32zM374 66q0 -19 -13.5 -32t-32.5 -13
t-32 13t-13 32t13 32.5t32 13.5t32.5 -13.5t13.5 -32.5zM258 178q0 -19 -13 -32t-32 -13t-32 13t-13 32t13 32t32 13t32 -13t13 -32zM141 291q0 -19 -13 -32t-32 -13t-32 13t-13 32t13 32t32 13t32 -13t13 -32zM246 64q0 -31 -32 -31q-31 0 -31 31q0 32 31 32
q13 0 22.5 -9.5t9.5 -22.5zM129 178q0 -13 -9.5 -22.5t-22.5 -9.5t-22.5 9.5t-9.5 22.5q0 31 32 31t32 -31zM116 64q0 -18 -18 -18t-18 18t18 18t18 -18z" />
    <glyph glyph-name="P" unicode="P" horiz-adv-x="699" 
d="M571 739q0 -18 -18 -18t-18 18t18 18t18 -18zM598 633q0 -19 -13.5 -32.5t-31.5 -13.5q-19 0 -32 13.5t-13 32.5t13 32t32 13t32 -13t13 -32zM483 739q0 -19 -13.5 -32t-32.5 -13t-32 13t-13 32t13 32t32 13t32.5 -13t13.5 -32zM600 519q0 -19 -13.5 -32t-32.5 -13
t-32 13t-13 32t13 32t32 13t32.5 -13t13.5 -32zM482 633q0 -19 -13.5 -32.5t-31.5 -13.5q-19 0 -32 13.5t-13 32.5t13 32t32 13t32 -13t13 -32zM368 740q0 -19 -13.5 -32t-32.5 -13t-32 13t-13 32t13 32t32 13t32.5 -13t13.5 -32zM601 406q0 -19 -13.5 -32.5t-31.5 -13.5
q-19 0 -32.5 13.5t-13.5 32.5t13.5 32t32.5 13t32 -13t13 -32zM484 519q0 -19 -13.5 -32t-32.5 -13t-32 13t-13 32t13 32t32 13t32.5 -13t13.5 -32zM254 738q0 -19 -13.5 -32t-32.5 -13t-32 13t-13 32t13 32t32 13t32.5 -13t13.5 -32zM575 292q0 -18 -18 -18t-18 18t18 18
t18 -18zM485 406q0 -19 -13.5 -32.5t-31.5 -13.5q-19 0 -32.5 13.5t-13.5 32.5t13.5 32t32.5 13t32 -13t13 -32zM253 632q0 -19 -13 -32.5t-32 -13.5t-32 13.5t-13 32.5t13 32t32 13t32 -13t13 -32zM138 738q0 -19 -13.5 -32t-32.5 -13t-32 13t-13 32t13 32t32 13t32.5 -13
t13.5 -32zM486 292q0 -19 -13 -32t-32 -13t-32 13t-13 32t13 32t32 13t32 -13t13 -32zM255 518q0 -19 -13.5 -32t-32.5 -13t-32 13t-13 32t13 32t32 13t32.5 -13t13.5 -32zM137 632q0 -19 -13 -32.5t-32 -13.5t-32 13.5t-13 32.5t13 32t32 13t32 -13t13 -32zM371 293
q0 -19 -13 -32t-32 -13t-32 13t-13 32t13 32t32 13t32 -13t13 -32zM256 405q0 -19 -13 -32.5t-32 -13.5t-32.5 13.5t-13.5 32.5t13.5 32t32.5 13t32 -13t13 -32zM139 518q0 -19 -13.5 -32t-32.5 -13t-32 13t-13 32t13 32t32 13t32.5 -13t13.5 -32zM257 291q0 -19 -13 -32
t-32 -13t-32 13t-13 32t13 32t32 13t32 -13t13 -32zM140 405q0 -19 -13 -32.5t-32 -13.5t-32.5 13.5t-13.5 32.5t13.5 32t32.5 13t32 -13t13 -32zM258 178q0 -19 -13 -32t-32 -13t-32 13t-13 32t13 32t32 13t32 -13t13 -32zM141 291q0 -19 -13 -32t-32 -13t-32 13t-13 32
t13 32t32 13t32 -13t13 -32zM260 64q0 -19 -13.5 -32t-32.5 -13t-32 13t-13 32t13 32.5t32 13.5t32.5 -13.5t13.5 -32.5zM142 178q0 -19 -13 -32t-32 -13t-32 13t-13 32t13 32t32 13t32 -13t13 -32zM144 64q0 -19 -13.5 -32t-32.5 -13t-32 13t-13 32t13 32.5t32 13.5
t32.5 -13.5t13.5 -32.5z" />
    <glyph glyph-name="Q" unicode="Q" horiz-adv-x="925" 
d="M699 635q0 -13 -9.5 -22.5t-22.5 -9.5t-22.5 9.5t-9.5 22.5q0 31 32 31t32 -31zM585 739q0 -13 -9.5 -22.5t-22.5 -9.5q-31 0 -31 32t31 32q13 0 22.5 -9.5t9.5 -22.5zM714 521q0 -19 -13.5 -32t-32.5 -13t-32 13t-13 32t13 32t32 13t32.5 -13t13.5 -32zM598 633
q0 -19 -13.5 -32.5t-31.5 -13.5q-19 0 -32 13.5t-13 32.5t13 32t32 13t32 -13t13 -32zM483 739q0 -19 -13.5 -32t-32.5 -13t-32 13t-13 32t13 32t32 13t32.5 -13t13.5 -32zM715 408q0 -19 -13.5 -32.5t-31.5 -13.5q-19 0 -32.5 13.5t-13.5 32.5t13.5 32t32.5 13t32 -13
t13 -32zM600 519q0 -19 -13.5 -32t-32.5 -13t-32 13t-13 32t13 32t32 13t32.5 -13t13.5 -32zM368 740q0 -19 -13.5 -32t-32.5 -13t-32 13t-13 32t13 32t32 13t32.5 -13t13.5 -32zM716 294q0 -19 -13 -32t-32 -13t-32 13t-13 32t13 32t32 13t32 -13t13 -32zM601 406
q0 -19 -13.5 -32.5t-31.5 -13.5q-19 0 -32.5 13.5t-13.5 32.5t13.5 32t32.5 13t32 -13t13 -32zM240 738q0 -13 -9.5 -22.5t-22.5 -9.5q-31 0 -31 32t31 32q13 0 22.5 -9.5t9.5 -22.5zM832 67q0 -18 -13.5 -31.5t-32.5 -13.5q-18 0 -31.5 13.5t-13.5 31.5q0 19 13.5 32.5
t31.5 13.5q19 0 32.5 -13.5t13.5 -32.5zM704 181q0 -13 -9.5 -22.5t-22.5 -9.5t-22.5 9.5t-9.5 22.5q0 31 32 31t32 -31zM602 292q0 -19 -13 -32t-32 -13t-32 13t-13 32t13 32t32 13t32 -13t13 -32zM253 632q0 -19 -13 -32.5t-32 -13.5t-32 13.5t-13 32.5t13 32t32 13
t32 -13t13 -32zM719 67q0 -19 -13.5 -32t-32.5 -13t-32 13t-13 32t13 32.5t32 13.5t32.5 -13.5t13.5 -32.5zM603 174q0 -19 -13 -32t-32 -13t-32 13t-13 32t13 32t32 13t32 -13t13 -32zM255 518q0 -19 -13.5 -32t-32.5 -13t-32 13t-13 32t13 32t32 13t32.5 -13t13.5 -32z
M124 632q0 -13 -9.5 -22.5t-22.5 -9.5t-22.5 9.5t-9.5 22.5q0 31 32 31t32 -31zM591 65q0 -31 -32 -31q-31 0 -31 31q0 32 31 32q13 0 22.5 -9.5t9.5 -22.5zM256 405q0 -19 -13 -32.5t-32 -13.5t-32.5 13.5t-13.5 32.5t13.5 32t32.5 13t32 -13t13 -32zM139 518
q0 -19 -13.5 -32t-32.5 -13t-32 13t-13 32t13 32t32 13t32.5 -13t13.5 -32zM489 65q0 -19 -13.5 -32t-32.5 -13t-32 13t-13 32t13 32.5t32 13.5t32.5 -13.5t13.5 -32.5zM257 291q0 -19 -13 -32t-32 -13t-32 13t-13 32t13 32t32 13t32 -13t13 -32zM140 405q0 -19 -13 -32.5
t-32 -13.5t-32.5 13.5t-13.5 32.5t13.5 32t32.5 13t32 -13t13 -32zM374 66q0 -19 -13.5 -32t-32.5 -13t-32 13t-13 32t13 32.5t32 13.5t32.5 -13.5t13.5 -32.5zM258 178q0 -19 -13 -32t-32 -13t-32 13t-13 32t13 32t32 13t32 -13t13 -32zM141 291q0 -19 -13 -32t-32 -13
t-32 13t-13 32t13 32t32 13t32 -13t13 -32zM246 64q0 -31 -32 -31q-31 0 -31 31q0 32 31 32q13 0 22.5 -9.5t9.5 -22.5zM129 178q0 -13 -9.5 -22.5t-22.5 -9.5t-22.5 9.5t-9.5 22.5q0 31 32 31t32 -31z" />
    <glyph glyph-name="R" unicode="R" 
d="M598 633q0 -19 -13.5 -32.5t-31.5 -13.5q-19 0 -32 13.5t-13 32.5t13 32t32 13t32 -13t13 -32zM469 739q0 -13 -9.5 -22.5t-22.5 -9.5q-31 0 -31 32t31 32q13 0 22.5 -9.5t9.5 -22.5zM600 519q0 -19 -13.5 -32t-32.5 -13t-32 13t-13 32t13 32t32 13t32.5 -13t13.5 -32z
M482 633q0 -19 -13.5 -32.5t-31.5 -13.5q-19 0 -32 13.5t-13 32.5t13 32t32 13t32 -13t13 -32zM368 740q0 -19 -13.5 -32t-32.5 -13t-32 13t-13 32t13 32t32 13t32.5 -13t13.5 -32zM601 406q0 -19 -13.5 -32.5t-31.5 -13.5q-19 0 -32.5 13.5t-13.5 32.5t13.5 32t32.5 13
t32 -13t13 -32zM484 519q0 -19 -13.5 -32t-32.5 -13t-32 13t-13 32t13 32t32 13t32.5 -13t13.5 -32zM254 738q0 -19 -13.5 -32t-32.5 -13t-32 13t-13 32t13 32t32 13t32.5 -13t13.5 -32zM575 292q0 -18 -18 -18t-18 18t18 18t18 -18zM485 406q0 -19 -13.5 -32.5t-31.5 -13.5
q-19 0 -32.5 13.5t-13.5 32.5t13.5 32t32.5 13t32 -13t13 -32zM253 632q0 -19 -13 -32.5t-32 -13.5t-32 13.5t-13 32.5t13 32t32 13t32 -13t13 -32zM138 738q0 -19 -13.5 -32t-32.5 -13t-32 13t-13 32t13 32t32 13t32.5 -13t13.5 -32zM603 179q0 -19 -13 -32t-32 -13t-32 13
t-13 32t13 32t32 13t32 -13t13 -32zM486 292q0 -19 -13 -32t-32 -13t-32 13t-13 32t13 32t32 13t32 -13t13 -32zM255 518q0 -19 -13.5 -32t-32.5 -13t-32 13t-13 32t13 32t32 13t32.5 -13t13.5 -32zM137 632q0 -19 -13 -32.5t-32 -13.5t-32 13.5t-13 32.5t13 32t32 13
t32 -13t13 -32zM605 65q0 -19 -13.5 -32t-32.5 -13t-32 13t-13 32t13 32.5t32 13.5t32.5 -13.5t13.5 -32.5zM487 179q0 -19 -13 -32t-32 -13t-32 13t-13 32t13 32t32 13t32 -13t13 -32zM371 293q0 -19 -13 -32t-32 -13t-32 13t-13 32t13 32t32 13t32 -13t13 -32zM256 405
q0 -19 -13 -32.5t-32 -13.5t-32.5 13.5t-13.5 32.5t13.5 32t32.5 13t32 -13t13 -32zM139 518q0 -19 -13.5 -32t-32.5 -13t-32 13t-13 32t13 32t32 13t32.5 -13t13.5 -32zM489 65q0 -19 -13.5 -32t-32.5 -13t-32 13t-13 32t13 32.5t32 13.5t32.5 -13.5t13.5 -32.5zM257 291
q0 -19 -13 -32t-32 -13t-32 13t-13 32t13 32t32 13t32 -13t13 -32zM140 405q0 -19 -13 -32.5t-32 -13.5t-32.5 13.5t-13.5 32.5t13.5 32t32.5 13t32 -13t13 -32zM258 178q0 -19 -13 -32t-32 -13t-32 13t-13 32t13 32t32 13t32 -13t13 -32zM141 291q0 -19 -13 -32t-32 -13
t-32 13t-13 32t13 32t32 13t32 -13t13 -32zM260 64q0 -19 -13.5 -32t-32.5 -13t-32 13t-13 32t13 32.5t32 13.5t32.5 -13.5t13.5 -32.5zM142 178q0 -19 -13 -32t-32 -13t-32 13t-13 32t13 32t32 13t32 -13t13 -32zM144 64q0 -19 -13.5 -32t-32.5 -13t-32 13t-13 32t13 32.5
t32 13.5t32.5 -13.5t13.5 -32.5z" />
    <glyph glyph-name="S" unicode="S" horiz-adv-x="708" 
d="M585 739q0 -13 -9.5 -22.5t-22.5 -9.5q-31 0 -31 32t31 32q13 0 22.5 -9.5t9.5 -22.5zM599 632q0 -19 -13.5 -32t-32.5 -13t-32 13t-13 32q0 18 13 31.5t32 13.5t32.5 -13.5t13.5 -31.5zM483 739q0 -19 -13.5 -32t-32.5 -13t-32 13t-13 32t13 32t32 13t32.5 -13t13.5 -32
zM368 740q0 -19 -13.5 -32t-32.5 -13t-32 13t-13 32t13 32t32 13t32.5 -13t13.5 -32zM574 406q0 -18 -18 -18t-18 18t18 18t18 -18zM254 738q0 -19 -13.5 -32t-32.5 -13t-32 13t-13 32t13 32t32 13t32.5 -13t13.5 -32zM602 292q0 -19 -13 -32t-32 -13t-32 13t-13 32t13 32
t32 13t32 -13t13 -32zM485 406q0 -19 -13.5 -32.5t-31.5 -13.5q-19 0 -32.5 13.5t-13.5 32.5t13.5 32t32.5 13t32 -13t13 -32zM253 632q0 -19 -13 -32.5t-32 -13.5t-32 13.5t-13 32.5t13 32t32 13t32 -13t13 -32zM110 738q0 -18 -18 -18t-18 18t18 18t18 -18zM603 179
q0 -19 -13 -32t-32 -13t-32 13t-13 32t13 32t32 13t32 -13t13 -32zM486 292q0 -19 -13 -32t-32 -13t-32 13t-13 32t13 32t32 13t32 -13t13 -32zM370 407q0 -19 -13 -32.5t-32 -13.5t-32.5 13.5t-13.5 32.5t13.5 32t32.5 13t32 -13t13 -32zM255 518q0 -19 -13.5 -32
t-32.5 -13t-32 13t-13 32t13 32t32 13t32.5 -13t13.5 -32zM137 632q0 -19 -13 -32.5t-32 -13.5t-32 13.5t-13 32.5t13 32t32 13t32 -13t13 -32zM577 65q0 -18 -18 -18t-18 18t18 18t18 -18zM487 179q0 -19 -13 -32t-32 -13t-32 13t-13 32t13 32t32 13t32 -13t13 -32z
M256 405q0 -19 -13 -32.5t-32 -13.5t-32.5 13.5t-13.5 32.5t13.5 32t32.5 13t32 -13t13 -32zM139 518q0 -19 -13.5 -32t-32.5 -13t-32 13t-13 32t13 32t32 13t32.5 -13t13.5 -32zM489 65q0 -19 -13.5 -32t-32.5 -13t-32 13t-13 32t13 32.5t32 13.5t32.5 -13.5t13.5 -32.5z
M113 405q0 -18 -18 -18t-18 18t18 18t18 -18zM374 66q0 -19 -13.5 -32t-32.5 -13t-32 13t-13 32t13 32.5t32 13.5t32.5 -13.5t13.5 -32.5zM260 64q0 -19 -13.5 -32t-32.5 -13t-32 13t-13 32t13 32.5t32 13.5t32.5 -13.5t13.5 -32.5zM142 178q0 -19 -13 -32t-32 -13t-32 13
t-13 32t13 32t32 13t32 -13t13 -32zM116 64q0 -18 -18 -18t-18 18t18 18t18 -18z" />
    <glyph glyph-name="T" unicode="T" horiz-adv-x="798" 
d="M713 741q0 -19 -13.5 -32t-32.5 -13t-32 13t-13 32t13 32t32 13t32.5 -13t13.5 -32zM599 739q0 -19 -13.5 -32t-32.5 -13t-32 13t-13 32t13 32t32 13t32.5 -13t13.5 -32zM483 739q0 -19 -13.5 -32t-32.5 -13t-32 13t-13 32t13 32t32 13t32.5 -13t13.5 -32zM482 633
q0 -19 -13.5 -32.5t-31.5 -13.5q-19 0 -32 13.5t-13 32.5t13 32t32 13t32 -13t13 -32zM368 740q0 -19 -13.5 -32t-32.5 -13t-32 13t-13 32t13 32t32 13t32.5 -13t13.5 -32zM484 519q0 -19 -13.5 -32t-32.5 -13t-32 13t-13 32t13 32t32 13t32.5 -13t13.5 -32zM367 634
q0 -19 -13 -32.5t-32 -13.5t-32 13.5t-13 32.5t13 32t32 13t32 -13t13 -32zM254 738q0 -19 -13.5 -32t-32.5 -13t-32 13t-13 32t13 32t32 13t32.5 -13t13.5 -32zM485 406q0 -19 -13.5 -32.5t-31.5 -13.5q-19 0 -32.5 13.5t-13.5 32.5t13.5 32t32.5 13t32 -13t13 -32z
M369 520q0 -19 -13.5 -32t-32.5 -13t-32 13t-13 32t13 32t32 13t32.5 -13t13.5 -32zM138 738q0 -19 -13.5 -32t-32.5 -13t-32 13t-13 32t13 32t32 13t32.5 -13t13.5 -32zM486 292q0 -19 -13 -32t-32 -13t-32 13t-13 32t13 32t32 13t32 -13t13 -32zM370 407q0 -19 -13 -32.5
t-32 -13.5t-32.5 13.5t-13.5 32.5t13.5 32t32.5 13t32 -13t13 -32zM487 179q0 -19 -13 -32t-32 -13t-32 13t-13 32t13 32t32 13t32 -13t13 -32zM371 293q0 -19 -13 -32t-32 -13t-32 13t-13 32t13 32t32 13t32 -13t13 -32zM489 65q0 -19 -13.5 -32t-32.5 -13t-32 13t-13 32
t13 32.5t32 13.5t32.5 -13.5t13.5 -32.5zM372 180q0 -19 -13 -32t-32 -13t-32 13t-13 32t13 32t32 13t32 -13t13 -32zM374 66q0 -19 -13.5 -32t-32.5 -13t-32 13t-13 32t13 32.5t32 13.5t32.5 -13.5t13.5 -32.5z" />
    <glyph glyph-name="U" unicode="U" horiz-adv-x="723" 
d="M599 739q0 -19 -13.5 -32t-32.5 -13t-32 13t-13 32t13 32t32 13t32.5 -13t13.5 -32zM598 633q0 -19 -13.5 -32.5t-31.5 -13.5q-19 0 -32 13.5t-13 32.5t13 32t32 13t32 -13t13 -32zM483 739q0 -19 -13.5 -32t-32.5 -13t-32 13t-13 32t13 32t32 13t32.5 -13t13.5 -32z
M600 519q0 -19 -13.5 -32t-32.5 -13t-32 13t-13 32t13 32t32 13t32.5 -13t13.5 -32zM482 633q0 -19 -13.5 -32.5t-31.5 -13.5q-19 0 -32 13.5t-13 32.5t13 32t32 13t32 -13t13 -32zM601 406q0 -19 -13.5 -32.5t-31.5 -13.5q-19 0 -32.5 13.5t-13.5 32.5t13.5 32t32.5 13
t32 -13t13 -32zM484 519q0 -19 -13.5 -32t-32.5 -13t-32 13t-13 32t13 32t32 13t32.5 -13t13.5 -32zM254 738q0 -19 -13.5 -32t-32.5 -13t-32 13t-13 32t13 32t32 13t32.5 -13t13.5 -32zM602 292q0 -19 -13 -32t-32 -13t-32 13t-13 32t13 32t32 13t32 -13t13 -32zM485 406
q0 -19 -13.5 -32.5t-31.5 -13.5q-19 0 -32.5 13.5t-13.5 32.5t13.5 32t32.5 13t32 -13t13 -32zM253 632q0 -19 -13 -32.5t-32 -13.5t-32 13.5t-13 32.5t13 32t32 13t32 -13t13 -32zM138 738q0 -19 -13.5 -32t-32.5 -13t-32 13t-13 32t13 32t32 13t32.5 -13t13.5 -32z
M603 179q0 -19 -13 -32t-32 -13t-32 13t-13 32t13 32t32 13t32 -13t13 -32zM486 292q0 -19 -13 -32t-32 -13t-32 13t-13 32t13 32t32 13t32 -13t13 -32zM255 518q0 -19 -13.5 -32t-32.5 -13t-32 13t-13 32t13 32t32 13t32.5 -13t13.5 -32zM137 632q0 -19 -13 -32.5
t-32 -13.5t-32 13.5t-13 32.5t13 32t32 13t32 -13t13 -32zM591 65q0 -31 -32 -31q-31 0 -31 31q0 32 31 32q13 0 22.5 -9.5t9.5 -22.5zM487 179q0 -19 -13 -32t-32 -13t-32 13t-13 32t13 32t32 13t32 -13t13 -32zM256 405q0 -19 -13 -32.5t-32 -13.5t-32.5 13.5t-13.5 32.5
t13.5 32t32.5 13t32 -13t13 -32zM139 518q0 -19 -13.5 -32t-32.5 -13t-32 13t-13 32t13 32t32 13t32.5 -13t13.5 -32zM489 65q0 -19 -13.5 -32t-32.5 -13t-32 13t-13 32t13 32.5t32 13.5t32.5 -13.5t13.5 -32.5zM257 291q0 -19 -13 -32t-32 -13t-32 13t-13 32t13 32t32 13
t32 -13t13 -32zM140 405q0 -19 -13 -32.5t-32 -13.5t-32.5 13.5t-13.5 32.5t13.5 32t32.5 13t32 -13t13 -32zM374 66q0 -19 -13.5 -32t-32.5 -13t-32 13t-13 32t13 32.5t32 13.5t32.5 -13.5t13.5 -32.5zM258 178q0 -19 -13 -32t-32 -13t-32 13t-13 32t13 32t32 13t32 -13
t13 -32zM141 291q0 -19 -13 -32t-32 -13t-32 13t-13 32t13 32t32 13t32 -13t13 -32zM260 64q0 -19 -13.5 -32t-32.5 -13t-32 13t-13 32t13 32.5t32 13.5t32.5 -13.5t13.5 -32.5zM142 178q0 -19 -13 -32t-32 -13t-32 13t-13 32t13 32t32 13t32 -13t13 -32zM130 64
q0 -31 -32 -31q-31 0 -31 31q0 32 31 32q13 0 22.5 -9.5t9.5 -22.5z" />
    <glyph glyph-name="V" unicode="V" horiz-adv-x="723" 
d="M599 739q0 -19 -13.5 -32t-32.5 -13t-32 13t-13 32t13 32t32 13t32.5 -13t13.5 -32zM598 633q0 -19 -13.5 -32.5t-31.5 -13.5q-19 0 -32 13.5t-13 32.5t13 32t32 13t32 -13t13 -32zM483 739q0 -19 -13.5 -32t-32.5 -13t-32 13t-13 32t13 32t32 13t32.5 -13t13.5 -32z
M600 519q0 -19 -13.5 -32t-32.5 -13t-32 13t-13 32t13 32t32 13t32.5 -13t13.5 -32zM482 633q0 -19 -13.5 -32.5t-31.5 -13.5q-19 0 -32 13.5t-13 32.5t13 32t32 13t32 -13t13 -32zM601 406q0 -19 -13.5 -32.5t-31.5 -13.5q-19 0 -32.5 13.5t-13.5 32.5t13.5 32t32.5 13
t32 -13t13 -32zM484 519q0 -19 -13.5 -32t-32.5 -13t-32 13t-13 32t13 32t32 13t32.5 -13t13.5 -32zM254 738q0 -19 -13.5 -32t-32.5 -13t-32 13t-13 32t13 32t32 13t32.5 -13t13.5 -32zM602 292q0 -19 -13 -32t-32 -13t-32 13t-13 32t13 32t32 13t32 -13t13 -32zM485 406
q0 -19 -13.5 -32.5t-31.5 -13.5q-19 0 -32.5 13.5t-13.5 32.5t13.5 32t32.5 13t32 -13t13 -32zM253 632q0 -19 -13 -32.5t-32 -13.5t-32 13.5t-13 32.5t13 32t32 13t32 -13t13 -32zM138 738q0 -19 -13.5 -32t-32.5 -13t-32 13t-13 32t13 32t32 13t32.5 -13t13.5 -32z
M590 179q0 -13 -9.5 -22.5t-22.5 -9.5t-22.5 9.5t-9.5 22.5q0 31 32 31t32 -31zM486 292q0 -19 -13 -32t-32 -13t-32 13t-13 32t13 32t32 13t32 -13t13 -32zM255 518q0 -19 -13.5 -32t-32.5 -13t-32 13t-13 32t13 32t32 13t32.5 -13t13.5 -32zM137 632q0 -19 -13 -32.5
t-32 -13.5t-32 13.5t-13 32.5t13 32t32 13t32 -13t13 -32zM487 179q0 -19 -13 -32t-32 -13t-32 13t-13 32t13 32t32 13t32 -13t13 -32zM256 405q0 -19 -13 -32.5t-32 -13.5t-32.5 13.5t-13.5 32.5t13.5 32t32.5 13t32 -13t13 -32zM139 518q0 -19 -13.5 -32t-32.5 -13t-32 13
t-13 32t13 32t32 13t32.5 -13t13.5 -32zM475 65q0 -31 -32 -31q-31 0 -31 31q0 32 31 32q13 0 22.5 -9.5t9.5 -22.5zM257 291q0 -19 -13 -32t-32 -13t-32 13t-13 32t13 32t32 13t32 -13t13 -32zM140 405q0 -19 -13 -32.5t-32 -13.5t-32.5 13.5t-13.5 32.5t13.5 32t32.5 13
t32 -13t13 -32zM374 66q0 -19 -13.5 -32t-32.5 -13t-32 13t-13 32t13 32.5t32 13.5t32.5 -13.5t13.5 -32.5zM258 178q0 -19 -13 -32t-32 -13t-32 13t-13 32t13 32t32 13t32 -13t13 -32zM141 291q0 -19 -13 -32t-32 -13t-32 13t-13 32t13 32t32 13t32 -13t13 -32zM246 64
q0 -31 -32 -31q-31 0 -31 31q0 32 31 32q13 0 22.5 -9.5t9.5 -22.5zM129 178q0 -13 -9.5 -22.5t-22.5 -9.5t-22.5 9.5t-9.5 22.5q0 31 32 31t32 -31z" />
    <glyph glyph-name="W" unicode="W" horiz-adv-x="952" 
d="M826 741q0 -18 -13.5 -31.5t-32.5 -13.5q-18 0 -31.5 13.5t-13.5 31.5q0 19 13.5 32t31.5 13q19 0 32.5 -13t13.5 -32zM825 635q0 -18 -13 -32t-32 -14q-18 0 -31.5 14t-13.5 32q0 19 13.5 32t31.5 13q19 0 32 -13t13 -32zM713 741q0 -19 -13.5 -32t-32.5 -13t-32 13
t-13 32t13 32t32 13t32.5 -13t13.5 -32zM827 521q0 -18 -13.5 -31.5t-32.5 -13.5q-18 0 -31.5 13.5t-13.5 31.5q0 19 13.5 32t31.5 13q19 0 32.5 -13t13.5 -32zM712 635q0 -19 -13.5 -32.5t-31.5 -13.5q-19 0 -32 13.5t-13 32.5t13 32t32 13t32 -13t13 -32zM828 408
q0 -18 -13 -32t-32 -14q-18 0 -32 14t-14 32q0 19 14 32t32 13q19 0 32 -13t13 -32zM714 521q0 -19 -13.5 -32t-32.5 -13t-32 13t-13 32t13 32t32 13t32.5 -13t13.5 -32zM829 294q0 -18 -13 -31.5t-32 -13.5q-18 0 -31.5 13.5t-13.5 31.5q0 19 13.5 32t31.5 13q19 0 32 -13
t13 -32zM715 408q0 -19 -13.5 -32.5t-31.5 -13.5q-19 0 -32.5 13.5t-13.5 32.5t13.5 32t32.5 13t32 -13t13 -32zM817 181q0 -13 -9 -22.5t-23 -9.5q-13 0 -22.5 9.5t-9.5 22.5q0 31 32 31t32 -31zM716 294q0 -19 -13 -32t-32 -13t-32 13t-13 32t13 32t32 13t32 -13t13 -32z
M254 738q0 -19 -13.5 -32t-32.5 -13t-32 13t-13 32t13 32t32 13t32.5 -13t13.5 -32zM717 181q0 -19 -13 -32t-32 -13t-32 13t-13 32t13 32t32 13t32 -13t13 -32zM485 406q0 -19 -13.5 -32.5t-31.5 -13.5q-19 0 -32.5 13.5t-13.5 32.5t13.5 32t32.5 13t32 -13t13 -32z
M253 632q0 -19 -13 -32.5t-32 -13.5t-32 13.5t-13 32.5t13 32t32 13t32 -13t13 -32zM138 738q0 -19 -13.5 -32t-32.5 -13t-32 13t-13 32t13 32t32 13t32.5 -13t13.5 -32zM719 67q0 -19 -13.5 -32t-32.5 -13t-32 13t-13 32t13 32.5t32 13.5t32.5 -13.5t13.5 -32.5zM603 179
q0 -19 -13 -32t-32 -13t-32 13t-13 32t13 32t32 13t32 -13t13 -32zM486 292q0 -19 -13 -32t-32 -13t-32 13t-13 32t13 32t32 13t32 -13t13 -32zM255 518q0 -19 -13.5 -32t-32.5 -13t-32 13t-13 32t13 32t32 13t32.5 -13t13.5 -32zM137 632q0 -19 -13 -32.5t-32 -13.5
t-32 13.5t-13 32.5t13 32t32 13t32 -13t13 -32zM591 65q0 -31 -32 -31q-31 0 -31 31q0 32 31 32q13 0 22.5 -9.5t9.5 -22.5zM487 179q0 -19 -13 -32t-32 -13t-32 13t-13 32t13 32t32 13t32 -13t13 -32zM256 405q0 -19 -13 -32.5t-32 -13.5t-32.5 13.5t-13.5 32.5t13.5 32
t32.5 13t32 -13t13 -32zM139 518q0 -19 -13.5 -32t-32.5 -13t-32 13t-13 32t13 32t32 13t32.5 -13t13.5 -32zM489 65q0 -19 -13.5 -32t-32.5 -13t-32 13t-13 32t13 32.5t32 13.5t32.5 -13.5t13.5 -32.5zM372 180q0 -19 -13 -32t-32 -13t-32 13t-13 32t13 32t32 13t32 -13
t13 -32zM257 291q0 -19 -13 -32t-32 -13t-32 13t-13 32t13 32t32 13t32 -13t13 -32zM140 405q0 -19 -13 -32.5t-32 -13.5t-32.5 13.5t-13.5 32.5t13.5 32t32.5 13t32 -13t13 -32zM360 66q0 -31 -32 -31q-31 0 -31 31q0 32 31 32q13 0 22.5 -9.5t9.5 -22.5zM258 178
q0 -19 -13 -32t-32 -13t-32 13t-13 32t13 32t32 13t32 -13t13 -32zM141 291q0 -19 -13 -32t-32 -13t-32 13t-13 32t13 32t32 13t32 -13t13 -32zM260 64q0 -19 -13.5 -32t-32.5 -13t-32 13t-13 32t13 32.5t32 13.5t32.5 -13.5t13.5 -32.5zM129 178q0 -13 -9.5 -22.5
t-22.5 -9.5t-22.5 9.5t-9.5 22.5q0 31 32 31t32 -31z" />
    <glyph glyph-name="X" unicode="X" horiz-adv-x="822" 
d="M713 741q0 -19 -13.5 -32t-32.5 -13t-32 13t-13 32t13 32t32 13t32.5 -13t13.5 -32zM712 635q0 -19 -13.5 -32.5t-31.5 -13.5q-19 0 -32 13.5t-13 32.5t13 32t32 13t32 -13t13 -32zM599 739q0 -19 -13.5 -32t-32.5 -13t-32 13t-13 32t13 32t32 13t32.5 -13t13.5 -32z
M598 633q0 -19 -13.5 -32.5t-31.5 -13.5q-19 0 -32 13.5t-13 32.5t13 32t32 13t32 -13t13 -32zM600 519q0 -19 -13.5 -32t-32.5 -13t-32 13t-13 32t13 32t32 13t32.5 -13t13.5 -32zM470 519q0 -13 -9.5 -22.5t-22.5 -9.5q-31 0 -31 32t31 32q13 0 22.5 -9.5t9.5 -22.5z
M254 738q0 -19 -13.5 -32t-32.5 -13t-32 13t-13 32t13 32t32 13t32.5 -13t13.5 -32zM717 181q0 -19 -13 -32t-32 -13t-32 13t-13 32t13 32t32 13t32 -13t13 -32zM588 292q0 -31 -31 -31q-32 0 -32 31q0 13 9.5 22.5t22.5 9.5q31 0 31 -32zM485 406q0 -19 -13.5 -32.5
t-31.5 -13.5q-19 0 -32.5 13.5t-13.5 32.5t13.5 32t32.5 13t32 -13t13 -32zM369 520q0 -19 -13.5 -32t-32.5 -13t-32 13t-13 32t13 32t32 13t32.5 -13t13.5 -32zM253 632q0 -19 -13 -32.5t-32 -13.5t-32 13.5t-13 32.5t13 32t32 13t32 -13t13 -32zM138 738q0 -19 -13.5 -32
t-32.5 -13t-32 13t-13 32t13 32t32 13t32.5 -13t13.5 -32zM719 67q0 -19 -13.5 -32t-32.5 -13t-32 13t-13 32t13 32.5t32 13.5t32.5 -13.5t13.5 -32.5zM603 179q0 -19 -13 -32t-32 -13t-32 13t-13 32t13 32t32 13t32 -13t13 -32zM486 292q0 -19 -13 -32t-32 -13t-32 13
t-13 32t13 32t32 13t32 -13t13 -32zM370 407q0 -19 -13 -32.5t-32 -13.5t-32.5 13.5t-13.5 32.5t13.5 32t32.5 13t32 -13t13 -32zM241 518q0 -13 -9.5 -22.5t-22.5 -9.5q-31 0 -31 32t31 32q13 0 22.5 -9.5t9.5 -22.5zM137 632q0 -19 -13 -32.5t-32 -13.5t-32 13.5t-13 32.5
t13 32t32 13t32 -13t13 -32zM605 65q0 -19 -13.5 -32t-32.5 -13t-32 13t-13 32t13 32.5t32 13.5t32.5 -13.5t13.5 -32.5zM357 293q0 -31 -31 -31q-32 0 -32 31q0 13 9.5 22.5t22.5 9.5q31 0 31 -32zM257 291q0 -19 -13 -32t-32 -13t-32 13t-13 32t13 32t32 13t32 -13t13 -32
zM258 178q0 -19 -13 -32t-32 -13t-32 13t-13 32t13 32t32 13t32 -13t13 -32zM260 64q0 -19 -13.5 -32t-32.5 -13t-32 13t-13 32t13 32.5t32 13.5t32.5 -13.5t13.5 -32.5zM142 178q0 -19 -13 -32t-32 -13t-32 13t-13 32t13 32t32 13t32 -13t13 -32zM144 64q0 -19 -13.5 -32
t-32.5 -13t-32 13t-13 32t13 32.5t32 13.5t32.5 -13.5t13.5 -32.5z" />
    <glyph glyph-name="Y" unicode="Y" horiz-adv-x="820" 
d="M713 741q0 -19 -13.5 -32t-32.5 -13t-32 13t-13 32t13 32t32 13t32.5 -13t13.5 -32zM712 635q0 -19 -13.5 -32.5t-31.5 -13.5q-19 0 -32 13.5t-13 32.5t13 32t32 13t32 -13t13 -32zM599 739q0 -19 -13.5 -32t-32.5 -13t-32 13t-13 32t13 32t32 13t32.5 -13t13.5 -32z
M714 521q0 -19 -13.5 -32t-32.5 -13t-32 13t-13 32t13 32t32 13t32.5 -13t13.5 -32zM598 633q0 -19 -13.5 -32.5t-31.5 -13.5q-19 0 -32 13.5t-13 32.5t13 32t32 13t32 -13t13 -32zM688 408q0 -18 -18 -18t-18 18t18 18t18 -18zM600 519q0 -19 -13.5 -32t-32.5 -13t-32 13
t-13 32t13 32t32 13t32.5 -13t13.5 -32zM601 406q0 -19 -13.5 -32.5t-31.5 -13.5q-19 0 -32.5 13.5t-13.5 32.5t13.5 32t32.5 13t32 -13t13 -32zM254 738q0 -19 -13.5 -32t-32.5 -13t-32 13t-13 32t13 32t32 13t32.5 -13t13.5 -32zM485 406q0 -19 -13.5 -32.5t-31.5 -13.5
q-19 0 -32.5 13.5t-13.5 32.5t13.5 32t32.5 13t32 -13t13 -32zM253 632q0 -19 -13 -32.5t-32 -13.5t-32 13.5t-13 32.5t13 32t32 13t32 -13t13 -32zM138 738q0 -19 -13.5 -32t-32.5 -13t-32 13t-13 32t13 32t32 13t32.5 -13t13.5 -32zM486 292q0 -19 -13 -32t-32 -13t-32 13
t-13 32t13 32t32 13t32 -13t13 -32zM370 407q0 -19 -13 -32.5t-32 -13.5t-32.5 13.5t-13.5 32.5t13.5 32t32.5 13t32 -13t13 -32zM255 518q0 -19 -13.5 -32t-32.5 -13t-32 13t-13 32t13 32t32 13t32.5 -13t13.5 -32zM137 632q0 -19 -13 -32.5t-32 -13.5t-32 13.5t-13 32.5
t13 32t32 13t32 -13t13 -32zM487 179q0 -19 -13 -32t-32 -13t-32 13t-13 32t13 32t32 13t32 -13t13 -32zM371 293q0 -19 -13 -32t-32 -13t-32 13t-13 32t13 32t32 13t32 -13t13 -32zM256 405q0 -19 -13 -32.5t-32 -13.5t-32.5 13.5t-13.5 32.5t13.5 32t32.5 13t32 -13
t13 -32zM139 518q0 -19 -13.5 -32t-32.5 -13t-32 13t-13 32t13 32t32 13t32.5 -13t13.5 -32zM489 65q0 -19 -13.5 -32t-32.5 -13t-32 13t-13 32t13 32.5t32 13.5t32.5 -13.5t13.5 -32.5zM372 180q0 -19 -13 -32t-32 -13t-32 13t-13 32t13 32t32 13t32 -13t13 -32zM113 405
q0 -18 -18 -18t-18 18t18 18t18 -18zM374 66q0 -19 -13.5 -32t-32.5 -13t-32 13t-13 32t13 32.5t32 13.5t32.5 -13.5t13.5 -32.5z" />
    <glyph glyph-name="Z" unicode="Z" horiz-adv-x="700" 
d="M599 739q0 -19 -13.5 -32t-32.5 -13t-32 13t-13 32t13 32t32 13t32.5 -13t13.5 -32zM598 633q0 -19 -13.5 -32.5t-31.5 -13.5q-19 0 -32 13.5t-13 32.5t13 32t32 13t32 -13t13 -32zM483 739q0 -19 -13.5 -32t-32.5 -13t-32 13t-13 32t13 32t32 13t32.5 -13t13.5 -32z
M586 519q0 -13 -9.5 -22.5t-22.5 -9.5q-31 0 -31 32t31 32q13 0 22.5 -9.5t9.5 -22.5zM469 633q0 -13 -9.5 -22.5t-22.5 -9.5t-22.5 9.5t-9.5 22.5q0 31 32 31t32 -31zM368 740q0 -19 -13.5 -32t-32.5 -13t-32 13t-13 32t13 32t32 13t32.5 -13t13.5 -32zM484 519
q0 -19 -13.5 -32t-32.5 -13t-32 13t-13 32t13 32t32 13t32.5 -13t13.5 -32zM254 738q0 -19 -13.5 -32t-32.5 -13t-32 13t-13 32t13 32t32 13t32.5 -13t13.5 -32zM471 406q0 -32 -31 -32q-13 0 -22.5 9.5t-9.5 22.5q0 31 32 31q31 0 31 -31zM138 738q0 -19 -13.5 -32
t-32.5 -13t-32 13t-13 32t13 32t32 13t32.5 -13t13.5 -32zM370 407q0 -19 -13 -32.5t-32 -13.5t-32.5 13.5t-13.5 32.5t13.5 32t32.5 13t32 -13t13 -32zM605 65q0 -19 -13.5 -32t-32.5 -13t-32 13t-13 32t13 32.5t32 13.5t32.5 -13.5t13.5 -32.5zM357 293q0 -31 -31 -31
q-32 0 -32 31q0 13 9.5 22.5t22.5 9.5q31 0 31 -32zM489 65q0 -19 -13.5 -32t-32.5 -13t-32 13t-13 32t13 32.5t32 13.5t32.5 -13.5t13.5 -32.5zM257 291q0 -19 -13 -32t-32 -13t-32 13t-13 32t13 32t32 13t32 -13t13 -32zM374 66q0 -19 -13.5 -32t-32.5 -13t-32 13t-13 32
t13 32.5t32 13.5t32.5 -13.5t13.5 -32.5zM258 178q0 -19 -13 -32t-32 -13t-32 13t-13 32t13 32t32 13t32 -13t13 -32zM260 64q0 -19 -13.5 -32t-32.5 -13t-32 13t-13 32t13 32.5t32 13.5t32.5 -13.5t13.5 -32.5zM142 178q0 -19 -13 -32t-32 -13t-32 13t-13 32t13 32t32 13
t32 -13t13 -32zM144 64q0 -19 -13.5 -32t-32.5 -13t-32 13t-13 32t13 32.5t32 13.5t32.5 -13.5t13.5 -32.5z" />
    <glyph glyph-name="bracketleft" unicode="[" horiz-adv-x="577" 
d="M483 739q0 -19 -13.5 -32t-32.5 -13t-32 13t-13 32t13 32t32 13t32.5 -13t13.5 -32zM368 740q0 -19 -13.5 -32t-32.5 -13t-32 13t-13 32t13 32t32 13t32.5 -13t13.5 -32zM254 738q0 -19 -13.5 -32t-32.5 -13t-32 13t-13 32t13 32t32 13t32.5 -13t13.5 -32zM253 632
q0 -19 -13 -32.5t-32 -13.5t-32 13.5t-13 32.5t13 32t32 13t32 -13t13 -32zM138 738q0 -19 -13.5 -32t-32.5 -13t-32 13t-13 32t13 32t32 13t32.5 -13t13.5 -32zM255 518q0 -19 -13.5 -32t-32.5 -13t-32 13t-13 32t13 32t32 13t32.5 -13t13.5 -32zM137 632q0 -19 -13 -32.5
t-32 -13.5t-32 13.5t-13 32.5t13 32t32 13t32 -13t13 -32zM256 405q0 -19 -13 -32.5t-32 -13.5t-32.5 13.5t-13.5 32.5t13.5 32t32.5 13t32 -13t13 -32zM139 518q0 -19 -13.5 -32t-32.5 -13t-32 13t-13 32t13 32t32 13t32.5 -13t13.5 -32zM489 65q0 -19 -13.5 -32t-32.5 -13
t-32 13t-13 32t13 32.5t32 13.5t32.5 -13.5t13.5 -32.5zM257 291q0 -19 -13 -32t-32 -13t-32 13t-13 32t13 32t32 13t32 -13t13 -32zM140 405q0 -19 -13 -32.5t-32 -13.5t-32.5 13.5t-13.5 32.5t13.5 32t32.5 13t32 -13t13 -32zM374 66q0 -19 -13.5 -32t-32.5 -13t-32 13
t-13 32t13 32.5t32 13.5t32.5 -13.5t13.5 -32.5zM258 178q0 -19 -13 -32t-32 -13t-32 13t-13 32t13 32t32 13t32 -13t13 -32zM141 291q0 -19 -13 -32t-32 -13t-32 13t-13 32t13 32t32 13t32 -13t13 -32zM260 64q0 -19 -13.5 -32t-32.5 -13t-32 13t-13 32t13 32.5t32 13.5
t32.5 -13.5t13.5 -32.5zM142 178q0 -19 -13 -32t-32 -13t-32 13t-13 32t13 32t32 13t32 -13t13 -32zM144 64q0 -19 -13.5 -32t-32.5 -13t-32 13t-13 32t13 32.5t32 13.5t32.5 -13.5t13.5 -32.5z" />
    <glyph glyph-name="backslash" unicode="\" horiz-adv-x="966" 
d="M920 67q0 -18 -18 -18t-18 18t18 18t18 -18zM803 181q0 -18 -18 -18t-18 18t18 18t18 -18zM689 294q0 -18 -18 -18t-18 18t18 18t18 -18zM574 406q0 -18 -18 -18t-18 18t18 18t18 -18zM456 519q0 -18 -18 -18t-18 18t18 18t18 -18zM340 634q0 -18 -18 -18t-18 18t18 18
t18 -18zM226 738q0 -18 -18 -18t-18 18t18 18t18 -18zM832 67q0 -18 -13.5 -31.5t-32.5 -13.5q-18 0 -31.5 13.5t-13.5 31.5q0 19 13.5 32.5t31.5 13.5q19 0 32.5 -13.5t13.5 -32.5zM717 181q0 -19 -13 -32t-32 -13t-32 13t-13 32t13 32t32 13t32 -13t13 -32zM602 292
q0 -19 -13 -32t-32 -13t-32 13t-13 32t13 32t32 13t32 -13t13 -32zM485 406q0 -19 -13.5 -32.5t-31.5 -13.5q-19 0 -32.5 13.5t-13.5 32.5t13.5 32t32.5 13t32 -13t13 -32zM369 520q0 -19 -13.5 -32t-32.5 -13t-32 13t-13 32t13 32t32 13t32.5 -13t13.5 -32zM253 632
q0 -19 -13 -32.5t-32 -13.5t-32 13.5t-13 32.5t13 32t32 13t32 -13t13 -32zM138 738q0 -19 -13.5 -32t-32.5 -13t-32 13t-13 32t13 32t32 13t32.5 -13t13.5 -32zM705 67q0 -31 -32 -31q-31 0 -31 31q0 32 31 32q13 0 22.5 -9.5t9.5 -22.5zM590 179q0 -13 -9.5 -22.5
t-22.5 -9.5t-22.5 9.5t-9.5 22.5q0 31 32 31t32 -31zM472 292q0 -31 -31 -31q-32 0 -32 31q0 13 9.5 22.5t22.5 9.5q31 0 31 -32zM356 407q0 -32 -31 -32q-13 0 -22.5 9.5t-9.5 22.5q0 31 32 31q31 0 31 -31zM241 518q0 -13 -9.5 -22.5t-22.5 -9.5q-31 0 -31 32t31 32
q13 0 22.5 -9.5t9.5 -22.5zM124 632q0 -13 -9.5 -22.5t-22.5 -9.5t-22.5 9.5t-9.5 22.5q0 31 32 31t32 -31z" />
    <glyph glyph-name="bracketright" unicode="]" horiz-adv-x="607" 
d="M483 739q0 -19 -13.5 -32t-32.5 -13t-32 13t-13 32t13 32t32 13t32.5 -13t13.5 -32zM482 633q0 -19 -13.5 -32.5t-31.5 -13.5q-19 0 -32 13.5t-13 32.5t13 32t32 13t32 -13t13 -32zM368 740q0 -19 -13.5 -32t-32.5 -13t-32 13t-13 32t13 32t32 13t32.5 -13t13.5 -32z
M484 519q0 -19 -13.5 -32t-32.5 -13t-32 13t-13 32t13 32t32 13t32.5 -13t13.5 -32zM367 634q0 -19 -13 -32.5t-32 -13.5t-32 13.5t-13 32.5t13 32t32 13t32 -13t13 -32zM254 738q0 -19 -13.5 -32t-32.5 -13t-32 13t-13 32t13 32t32 13t32.5 -13t13.5 -32zM485 406
q0 -19 -13.5 -32.5t-31.5 -13.5q-19 0 -32.5 13.5t-13.5 32.5t13.5 32t32.5 13t32 -13t13 -32zM369 520q0 -19 -13.5 -32t-32.5 -13t-32 13t-13 32t13 32t32 13t32.5 -13t13.5 -32zM138 738q0 -19 -13.5 -32t-32.5 -13t-32 13t-13 32t13 32t32 13t32.5 -13t13.5 -32z
M486 292q0 -19 -13 -32t-32 -13t-32 13t-13 32t13 32t32 13t32 -13t13 -32zM370 407q0 -19 -13 -32.5t-32 -13.5t-32.5 13.5t-13.5 32.5t13.5 32t32.5 13t32 -13t13 -32zM487 179q0 -19 -13 -32t-32 -13t-32 13t-13 32t13 32t32 13t32 -13t13 -32zM371 293q0 -19 -13 -32
t-32 -13t-32 13t-13 32t13 32t32 13t32 -13t13 -32zM489 65q0 -19 -13.5 -32t-32.5 -13t-32 13t-13 32t13 32.5t32 13.5t32.5 -13.5t13.5 -32.5zM372 180q0 -19 -13 -32t-32 -13t-32 13t-13 32t13 32t32 13t32 -13t13 -32zM374 66q0 -19 -13.5 -32t-32.5 -13t-32 13t-13 32
t13 32.5t32 13.5t32.5 -13.5t13.5 -32.5zM260 64q0 -19 -13.5 -32t-32.5 -13t-32 13t-13 32t13 32.5t32 13.5t32.5 -13.5t13.5 -32.5zM144 64q0 -19 -13.5 -32t-32.5 -13t-32 13t-13 32t13 32.5t32 13.5t32.5 -13.5t13.5 -32.5z" />
    <glyph glyph-name="asciicircum" unicode="^" horiz-adv-x="728" 
d="M598 633q0 -19 -13.5 -32.5t-31.5 -13.5q-19 0 -32 13.5t-13 32.5t13 32t32 13t32 -13t13 -32zM469 739q0 -13 -9.5 -22.5t-22.5 -9.5q-31 0 -31 32t31 32q13 0 22.5 -9.5t9.5 -22.5zM600 519q0 -19 -13.5 -32t-32.5 -13t-32 13t-13 32t13 32t32 13t32.5 -13t13.5 -32z
M482 633q0 -19 -13.5 -32.5t-31.5 -13.5q-19 0 -32 13.5t-13 32.5t13 32t32 13t32 -13t13 -32zM368 740q0 -19 -13.5 -32t-32.5 -13t-32 13t-13 32t13 32t32 13t32.5 -13t13.5 -32zM484 519q0 -19 -13.5 -32t-32.5 -13t-32 13t-13 32t13 32t32 13t32.5 -13t13.5 -32z
M354 634q0 -13 -9.5 -22.5t-22.5 -9.5t-22.5 9.5t-9.5 22.5q0 31 32 31t32 -31zM240 738q0 -13 -9.5 -22.5t-22.5 -9.5q-31 0 -31 32t31 32q13 0 22.5 -9.5t9.5 -22.5zM253 632q0 -19 -13 -32.5t-32 -13.5t-32 13.5t-13 32.5t13 32t32 13t32 -13t13 -32zM255 518
q0 -19 -13.5 -32t-32.5 -13t-32 13t-13 32t13 32t32 13t32.5 -13t13.5 -32zM137 632q0 -19 -13 -32.5t-32 -13.5t-32 13.5t-13 32.5t13 32t32 13t32 -13t13 -32zM139 518q0 -19 -13.5 -32t-32.5 -13t-32 13t-13 32t13 32t32 13t32.5 -13t13.5 -32z" />
    <glyph glyph-name="underscore" unicode="_" horiz-adv-x="1188" 
d="M1062 69q0 -18 -13.5 -31.5t-32.5 -13.5q-18 0 -31.5 13.5t-13.5 31.5q0 19 13.5 32.5t31.5 13.5q19 0 32.5 -13.5t13.5 -32.5zM948 67q0 -18 -13.5 -31.5t-32.5 -13.5q-18 0 -31.5 13.5t-13.5 31.5q0 19 13.5 32.5t31.5 13.5q19 0 32.5 -13.5t13.5 -32.5zM832 67
q0 -18 -13.5 -31.5t-32.5 -13.5q-18 0 -31.5 13.5t-13.5 31.5q0 19 13.5 32.5t31.5 13.5q19 0 32.5 -13.5t13.5 -32.5zM719 67q0 -19 -13.5 -32t-32.5 -13t-32 13t-13 32t13 32.5t32 13.5t32.5 -13.5t13.5 -32.5zM605 65q0 -19 -13.5 -32t-32.5 -13t-32 13t-13 32t13 32.5
t32 13.5t32.5 -13.5t13.5 -32.5zM489 65q0 -19 -13.5 -32t-32.5 -13t-32 13t-13 32t13 32.5t32 13.5t32.5 -13.5t13.5 -32.5zM374 66q0 -19 -13.5 -32t-32.5 -13t-32 13t-13 32t13 32.5t32 13.5t32.5 -13.5t13.5 -32.5zM260 64q0 -19 -13.5 -32t-32.5 -13t-32 13t-13 32
t13 32.5t32 13.5t32.5 -13.5t13.5 -32.5zM144 64q0 -19 -13.5 -32t-32.5 -13t-32 13t-13 32t13 32.5t32 13.5t32.5 -13.5t13.5 -32.5z" />
    <glyph glyph-name="grave" unicode="`" horiz-adv-x="498" 
d="M340 740q0 -18 -18 -18t-18 18t18 18t18 -18zM367 634q0 -19 -13 -32.5t-32 -13.5t-32 13.5t-13 32.5t13 32t32 13t32 -13t13 -32zM254 738q0 -19 -13.5 -32t-32.5 -13t-32 13t-13 32t13 32t32 13t32.5 -13t13.5 -32zM369 520q0 -19 -13.5 -32t-32.5 -13t-32 13t-13 32
t13 32t32 13t32.5 -13t13.5 -32zM253 632q0 -19 -13 -32.5t-32 -13.5t-32 13.5t-13 32.5t13 32t32 13t32 -13t13 -32zM138 738q0 -19 -13.5 -32t-32.5 -13t-32 13t-13 32t13 32t32 13t32.5 -13t13.5 -32zM255 518q0 -19 -13.5 -32t-32.5 -13t-32 13t-13 32t13 32t32 13
t32.5 -13t13.5 -32zM137 632q0 -19 -13 -32.5t-32 -13.5t-32 13.5t-13 32.5t13 32t32 13t32 -13t13 -32z" />
    <glyph glyph-name="a" unicode="a" horiz-adv-x="834" 
d="M685 525q0 -18 -18 -18t-18 18t18 18t18 -18zM714 411q0 -19 -13.5 -32t-32.5 -13t-32 13t-13 32q0 18 13 31.5t32 13.5t32.5 -13.5t13.5 -31.5zM598 523q0 -19 -13.5 -32.5t-31.5 -13.5q-19 0 -32 13.5t-13 32.5q0 18 13 31.5t32 13.5t32 -13.5t13 -31.5zM715 298
q0 -19 -13.5 -32.5t-31.5 -13.5q-19 0 -32.5 13.5t-13.5 32.5q0 18 13.5 31.5t32.5 13.5t32 -13.5t13 -31.5zM600 409q0 -19 -13.5 -32t-32.5 -13t-32 13t-13 32q0 18 13 31.5t32 13.5t32.5 -13.5t13.5 -31.5zM482 523q0 -19 -13.5 -32.5t-31.5 -13.5q-19 0 -32 13.5
t-13 32.5q0 18 13 31.5t32 13.5t32 -13.5t13 -31.5zM717 181q0 -19 -13 -32t-32 -13t-32 13t-13 32t13 32t32 13t32 -13t13 -32zM601 296q0 -19 -13.5 -32.5t-31.5 -13.5q-19 0 -32.5 13.5t-13.5 32.5q0 18 13.5 31.5t32.5 13.5t32 -13.5t13 -31.5zM367 524q0 -19 -13 -32.5
t-32 -13.5t-32 13.5t-13 32.5q0 18 13 31.5t32 13.5t32 -13.5t13 -31.5zM719 67q0 -19 -13.5 -32t-32.5 -13t-32 13t-13 32t13 32.5t32 13.5t32.5 -13.5t13.5 -32.5zM603 179q0 -19 -13 -32t-32 -13t-32 13t-13 32t13 32t32 13t32 -13t13 -32zM485 296q0 -19 -13.5 -32.5
t-31.5 -13.5q-19 0 -32.5 13.5t-13.5 32.5q0 18 13.5 31.5t32.5 13.5t32 -13.5t13 -31.5zM253 522q0 -19 -13 -32.5t-32 -13.5t-32 13.5t-13 32.5q0 18 13 31.5t32 13.5t32 -13.5t13 -31.5zM605 65q0 -19 -13.5 -32t-32.5 -13t-32 13t-13 32t13 32.5t32 13.5t32.5 -13.5
t13.5 -32.5zM370 297q0 -19 -13 -32.5t-32 -13.5t-32.5 13.5t-13.5 32.5q0 18 13.5 31.5t32.5 13.5t32 -13.5t13 -31.5zM489 65q0 -19 -13.5 -32t-32.5 -13t-32 13t-13 32t13 32.5t32 13.5t32.5 -13.5t13.5 -32.5zM256 295q0 -19 -13 -32.5t-32 -13.5t-32.5 13.5t-13.5 32.5
q0 18 13.5 31.5t32.5 13.5t32 -13.5t13 -31.5zM374 66q0 -19 -13.5 -32t-32.5 -13t-32 13t-13 32t13 32.5t32 13.5t32.5 -13.5t13.5 -32.5zM258 178q0 -19 -13 -32t-32 -13t-32 13t-13 32t13 32t32 13t32 -13t13 -32zM113 295q0 -18 -18 -18t-18 18t18 18t18 -18zM260 64
q0 -19 -13.5 -32t-32.5 -13t-32 13t-13 32t13 32.5t32 13.5t32.5 -13.5t13.5 -32.5zM142 178q0 -19 -13 -32t-32 -13t-32 13t-13 32t13 32t32 13t32 -13t13 -32zM116 64q0 -18 -18 -18t-18 18t18 18t18 -18z" />
    <glyph glyph-name="b" unicode="b" horiz-adv-x="709" 
d="M574 406q0 -18 -18 -18t-18 18t18 18t18 -18zM254 738q0 -19 -13.5 -32t-32.5 -13t-32 13t-13 32t13 32t32 13t32.5 -13t13.5 -32zM602 292q0 -19 -13 -32t-32 -13t-32 13t-13 32t13 32t32 13t32 -13t13 -32zM485 406q0 -19 -13.5 -32.5t-31.5 -13.5q-19 0 -32.5 13.5
t-13.5 32.5t13.5 32t32.5 13t32 -13t13 -32zM253 632q0 -19 -13 -32.5t-32 -13.5t-32 13.5t-13 32.5t13 32t32 13t32 -13t13 -32zM138 738q0 -19 -13.5 -32t-32.5 -13t-32 13t-13 32t13 32t32 13t32.5 -13t13.5 -32zM603 179q0 -19 -13 -32t-32 -13t-32 13t-13 32t13 32
t32 13t32 -13t13 -32zM486 292q0 -19 -13 -32t-32 -13t-32 13t-13 32t13 32t32 13t32 -13t13 -32zM370 407q0 -19 -13 -32.5t-32 -13.5t-32.5 13.5t-13.5 32.5t13.5 32t32.5 13t32 -13t13 -32zM255 518q0 -19 -13.5 -32t-32.5 -13t-32 13t-13 32t13 32t32 13t32.5 -13
t13.5 -32zM137 632q0 -19 -13 -32.5t-32 -13.5t-32 13.5t-13 32.5t13 32t32 13t32 -13t13 -32zM577 65q0 -18 -18 -18t-18 18t18 18t18 -18zM487 179q0 -19 -13 -32t-32 -13t-32 13t-13 32t13 32t32 13t32 -13t13 -32zM256 405q0 -19 -13 -32.5t-32 -13.5t-32.5 13.5
t-13.5 32.5t13.5 32t32.5 13t32 -13t13 -32zM139 518q0 -19 -13.5 -32t-32.5 -13t-32 13t-13 32t13 32t32 13t32.5 -13t13.5 -32zM489 65q0 -19 -13.5 -32t-32.5 -13t-32 13t-13 32t13 32.5t32 13.5t32.5 -13.5t13.5 -32.5zM257 291q0 -19 -13 -32t-32 -13t-32 13t-13 32
t13 32t32 13t32 -13t13 -32zM140 405q0 -19 -13 -32.5t-32 -13.5t-32.5 13.5t-13.5 32.5t13.5 32t32.5 13t32 -13t13 -32zM374 66q0 -19 -13.5 -32t-32.5 -13t-32 13t-13 32t13 32.5t32 13.5t32.5 -13.5t13.5 -32.5zM258 178q0 -19 -13 -32t-32 -13t-32 13t-13 32t13 32
t32 13t32 -13t13 -32zM141 291q0 -19 -13 -32t-32 -13t-32 13t-13 32t13 32t32 13t32 -13t13 -32zM260 64q0 -19 -13.5 -32t-32.5 -13t-32 13t-13 32t13 32.5t32 13.5t32.5 -13.5t13.5 -32.5zM142 178q0 -19 -13 -32t-32 -13t-32 13t-13 32t13 32t32 13t32 -13t13 -32z
M144 64q0 -19 -13.5 -32t-32.5 -13t-32 13t-13 32t13 32.5t32 13.5t32.5 -13.5t13.5 -32.5z" />
    <glyph glyph-name="c" unicode="c" horiz-adv-x="585" 
d="M484 519q0 -19 -13.5 -32t-32.5 -13t-32 13t-13 32t13 32t32 13t32.5 -13t13.5 -32zM369 520q0 -19 -13.5 -32t-32.5 -13t-32 13t-13 32t13 32t32 13t32.5 -13t13.5 -32zM343 407q0 -18 -18 -18t-18 18t18 18t18 -18zM255 518q0 -19 -13.5 -32t-32.5 -13t-32 13t-13 32
t13 32t32 13t32.5 -13t13.5 -32zM256 405q0 -19 -13 -32.5t-32 -13.5t-32.5 13.5t-13.5 32.5t13.5 32t32.5 13t32 -13t13 -32zM111 518q0 -18 -18 -18t-18 18t18 18t18 -18zM489 65q0 -19 -13.5 -32t-32.5 -13t-32 13t-13 32t13 32.5t32 13.5t32.5 -13.5t13.5 -32.5z
M345 180q0 -18 -18 -18t-18 18t18 18t18 -18zM257 291q0 -19 -13 -32t-32 -13t-32 13t-13 32t13 32t32 13t32 -13t13 -32zM140 405q0 -19 -13 -32.5t-32 -13.5t-32.5 13.5t-13.5 32.5t13.5 32t32.5 13t32 -13t13 -32zM374 66q0 -19 -13.5 -32t-32.5 -13t-32 13t-13 32
t13 32.5t32 13.5t32.5 -13.5t13.5 -32.5zM258 178q0 -19 -13 -32t-32 -13t-32 13t-13 32t13 32t32 13t32 -13t13 -32zM141 291q0 -19 -13 -32t-32 -13t-32 13t-13 32t13 32t32 13t32 -13t13 -32zM260 64q0 -19 -13.5 -32t-32.5 -13t-32 13t-13 32t13 32.5t32 13.5
t32.5 -13.5t13.5 -32.5zM142 178q0 -19 -13 -32t-32 -13t-32 13t-13 32t13 32t32 13t32 -13t13 -32zM116 64q0 -18 -18 -18t-18 18t18 18t18 -18z" />
    <glyph glyph-name="d" unicode="d" horiz-adv-x="724" 
d="M599 739q0 -19 -13.5 -32t-32.5 -13t-32 13t-13 32t13 32t32 13t32.5 -13t13.5 -32zM598 633q0 -19 -13.5 -32.5t-31.5 -13.5q-19 0 -32 13.5t-13 32.5t13 32t32 13t32 -13t13 -32zM483 739q0 -19 -13.5 -32t-32.5 -13t-32 13t-13 32t13 32t32 13t32.5 -13t13.5 -32z
M600 519q0 -19 -13.5 -32t-32.5 -13t-32 13t-13 32t13 32t32 13t32.5 -13t13.5 -32zM482 633q0 -19 -13.5 -32.5t-31.5 -13.5q-19 0 -32 13.5t-13 32.5t13 32t32 13t32 -13t13 -32zM601 406q0 -19 -13.5 -32.5t-31.5 -13.5q-19 0 -32.5 13.5t-13.5 32.5t13.5 32t32.5 13
t32 -13t13 -32zM484 519q0 -19 -13.5 -32t-32.5 -13t-32 13t-13 32t13 32t32 13t32.5 -13t13.5 -32zM602 292q0 -19 -13 -32t-32 -13t-32 13t-13 32t13 32t32 13t32 -13t13 -32zM485 406q0 -19 -13.5 -32.5t-31.5 -13.5q-19 0 -32.5 13.5t-13.5 32.5t13.5 32t32.5 13t32 -13
t13 -32zM603 179q0 -19 -13 -32t-32 -13t-32 13t-13 32t13 32t32 13t32 -13t13 -32zM486 292q0 -19 -13 -32t-32 -13t-32 13t-13 32t13 32t32 13t32 -13t13 -32zM370 407q0 -19 -13 -32.5t-32 -13.5t-32.5 13.5t-13.5 32.5t13.5 32t32.5 13t32 -13t13 -32zM605 65
q0 -19 -13.5 -32t-32.5 -13t-32 13t-13 32t13 32.5t32 13.5t32.5 -13.5t13.5 -32.5zM487 179q0 -19 -13 -32t-32 -13t-32 13t-13 32t13 32t32 13t32 -13t13 -32zM256 405q0 -19 -13 -32.5t-32 -13.5t-32.5 13.5t-13.5 32.5t13.5 32t32.5 13t32 -13t13 -32zM489 65
q0 -19 -13.5 -32t-32.5 -13t-32 13t-13 32t13 32.5t32 13.5t32.5 -13.5t13.5 -32.5zM257 291q0 -19 -13 -32t-32 -13t-32 13t-13 32t13 32t32 13t32 -13t13 -32zM113 405q0 -18 -18 -18t-18 18t18 18t18 -18zM374 66q0 -19 -13.5 -32t-32.5 -13t-32 13t-13 32t13 32.5
t32 13.5t32.5 -13.5t13.5 -32.5zM258 178q0 -19 -13 -32t-32 -13t-32 13t-13 32t13 32t32 13t32 -13t13 -32zM141 291q0 -19 -13 -32t-32 -13t-32 13t-13 32t13 32t32 13t32 -13t13 -32zM260 64q0 -19 -13.5 -32t-32.5 -13t-32 13t-13 32t13 32.5t32 13.5t32.5 -13.5
t13.5 -32.5zM142 178q0 -19 -13 -32t-32 -13t-32 13t-13 32t13 32t32 13t32 -13t13 -32zM116 64q0 -18 -18 -18t-18 18t18 18t18 -18z" />
    <glyph glyph-name="e" unicode="e" horiz-adv-x="704" 
d="M571 520q0 -18 -18 -18t-18 18t18 18t18 -18zM600 406q0 -19 -13.5 -32t-32.5 -13t-32 13t-13 32t13 32t32 13t32.5 -13t13.5 -32zM482 520q0 -19 -13.5 -32.5t-31.5 -13.5q-19 0 -32 13.5t-13 32.5t13 32t32 13t32 -13t13 -32zM602 292q0 -19 -13 -32t-32 -13t-32 13
t-13 32t13 32t32 13t32 -13t13 -32zM484 406q0 -19 -13.5 -32t-32.5 -13t-32 13t-13 32t13 32t32 13t32.5 -13t13.5 -32zM367 521q0 -19 -13 -32.5t-32 -13.5t-32 13.5t-13 32.5t13 32t32 13t32 -13t13 -32zM486 292q0 -19 -13 -32t-32 -13t-32 13t-13 32t13 32t32 13
t32 -13t13 -32zM253 519q0 -19 -13 -32.5t-32 -13.5t-32 13.5t-13 32.5t13 32t32 13t32 -13t13 -32zM605 65q0 -19 -13.5 -32t-32.5 -13t-32 13t-13 32t13 32.5t32 13.5t32.5 -13.5t13.5 -32.5zM371 293q0 -19 -13 -32t-32 -13t-32 13t-13 32t13 32t32 13t32 -13t13 -32z
M255 405q0 -19 -13.5 -32t-32.5 -13t-32 13t-13 32t13 32t32 13t32.5 -13t13.5 -32zM124 519q0 -13 -9.5 -22.5t-22.5 -9.5t-22.5 9.5t-9.5 22.5q0 31 32 31t32 -31zM489 65q0 -19 -13.5 -32t-32.5 -13t-32 13t-13 32t13 32.5t32 13.5t32.5 -13.5t13.5 -32.5zM257 291
q0 -19 -13 -32t-32 -13t-32 13t-13 32t13 32t32 13t32 -13t13 -32zM139 405q0 -19 -13.5 -32t-32.5 -13t-32 13t-13 32t13 32t32 13t32.5 -13t13.5 -32zM374 66q0 -19 -13.5 -32t-32.5 -13t-32 13t-13 32t13 32.5t32 13.5t32.5 -13.5t13.5 -32.5zM258 178q0 -19 -13 -32
t-32 -13t-32 13t-13 32t13 32t32 13t32 -13t13 -32zM141 291q0 -19 -13 -32t-32 -13t-32 13t-13 32t13 32t32 13t32 -13t13 -32zM260 64q0 -19 -13.5 -32t-32.5 -13t-32 13t-13 32t13 32.5t32 13.5t32.5 -13.5t13.5 -32.5zM142 178q0 -19 -13 -32t-32 -13t-32 13t-13 32
t13 32t32 13t32 -13t13 -32zM116 64q0 -18 -18 -18t-18 18t18 18t18 -18z" />
    <glyph glyph-name="f" unicode="f" horiz-adv-x="595" 
d="M599 739q0 -19 -13.5 -32t-32.5 -13t-32 13t-13 32t13 32t32 13t32.5 -13t13.5 -32zM483 739q0 -19 -13.5 -32t-32.5 -13t-32 13t-13 32t13 32t32 13t32.5 -13t13.5 -32zM455 633q0 -18 -18 -18t-18 18t18 18t18 -18zM368 740q0 -19 -13.5 -32t-32.5 -13t-32 13t-13 32
t13 32t32 13t32.5 -13t13.5 -32zM367 634q0 -19 -13 -32.5t-32 -13.5t-32 13.5t-13 32.5t13 32t32 13t32 -13t13 -32zM226 738q0 -18 -18 -18t-18 18t18 18t18 -18zM485 406q0 -19 -13.5 -32.5t-31.5 -13.5q-19 0 -32.5 13.5t-13.5 32.5t13.5 32t32.5 13t32 -13t13 -32z
M369 520q0 -19 -13.5 -32t-32.5 -13t-32 13t-13 32t13 32t32 13t32.5 -13t13.5 -32zM253 632q0 -19 -13 -32.5t-32 -13.5t-32 13.5t-13 32.5t13 32t32 13t32 -13t13 -32zM370 407q0 -19 -13 -32.5t-32 -13.5t-32.5 13.5t-13.5 32.5t13.5 32t32.5 13t32 -13t13 -32zM255 518
q0 -19 -13.5 -32t-32.5 -13t-32 13t-13 32t13 32t32 13t32.5 -13t13.5 -32zM371 293q0 -19 -13 -32t-32 -13t-32 13t-13 32t13 32t32 13t32 -13t13 -32zM256 405q0 -19 -13 -32.5t-32 -13.5t-32.5 13.5t-13.5 32.5t13.5 32t32.5 13t32 -13t13 -32zM372 180q0 -19 -13 -32
t-32 -13t-32 13t-13 32t13 32t32 13t32 -13t13 -32zM257 291q0 -19 -13 -32t-32 -13t-32 13t-13 32t13 32t32 13t32 -13t13 -32zM140 405q0 -19 -13 -32.5t-32 -13.5t-32.5 13.5t-13.5 32.5t13.5 32t32.5 13t32 -13t13 -32zM374 66q0 -19 -13.5 -32t-32.5 -13t-32 13t-13 32
t13 32.5t32 13.5t32.5 -13.5t13.5 -32.5zM258 178q0 -19 -13 -32t-32 -13t-32 13t-13 32t13 32t32 13t32 -13t13 -32zM260 64q0 -19 -13.5 -32t-32.5 -13t-32 13t-13 32t13 32.5t32 13.5t32.5 -13.5t13.5 -32.5z" />
    <glyph glyph-name="g" unicode="g" horiz-adv-x="718" 
d="M585 633q0 -13 -9.5 -22.5t-22.5 -9.5t-22.5 9.5t-9.5 22.5q0 31 32 31t32 -31zM600 519q0 -19 -13.5 -32t-32.5 -13t-32 13t-13 32t13 32t32 13t32.5 -13t13.5 -32zM482 633q0 -19 -13.5 -32.5t-31.5 -13.5q-19 0 -32 13.5t-13 32.5t13 32t32 13t32 -13t13 -32zM601 406
q0 -19 -13.5 -32.5t-31.5 -13.5q-19 0 -32.5 13.5t-13.5 32.5t13.5 32t32.5 13t32 -13t13 -32zM484 519q0 -19 -13.5 -32t-32.5 -13t-32 13t-13 32t13 32t32 13t32.5 -13t13.5 -32zM367 634q0 -19 -13 -32.5t-32 -13.5t-32 13.5t-13 32.5t13 32t32 13t32 -13t13 -32z
M602 292q0 -19 -13 -32t-32 -13t-32 13t-13 32t13 32t32 13t32 -13t13 -32zM485 406q0 -19 -13.5 -32.5t-31.5 -13.5q-19 0 -32.5 13.5t-13.5 32.5t13.5 32t32.5 13t32 -13t13 -32zM253 632q0 -19 -13 -32.5t-32 -13.5t-32 13.5t-13 32.5t13 32t32 13t32 -13t13 -32z
M603 179q0 -19 -13 -32t-32 -13t-32 13t-13 32t13 32t32 13t32 -13t13 -32zM486 292q0 -19 -13 -32t-32 -13t-32 13t-13 32t13 32t32 13t32 -13t13 -32zM255 518q0 -19 -13.5 -32t-32.5 -13t-32 13t-13 32t13 32t32 13t32.5 -13t13.5 -32zM110 632q0 -18 -18 -18t-18 18
t18 18t18 -18zM577 65q0 -18 -18 -18t-18 18t18 18t18 -18zM487 179q0 -19 -13 -32t-32 -13t-32 13t-13 32t13 32t32 13t32 -13t13 -32zM371 293q0 -19 -13 -32t-32 -13t-32 13t-13 32t13 32t32 13t32 -13t13 -32zM256 405q0 -19 -13 -32.5t-32 -13.5t-32.5 13.5t-13.5 32.5
t13.5 32t32.5 13t32 -13t13 -32zM139 518q0 -19 -13.5 -32t-32.5 -13t-32 13t-13 32t13 32t32 13t32.5 -13t13.5 -32zM489 65q0 -19 -13.5 -32t-32.5 -13t-32 13t-13 32t13 32.5t32 13.5t32.5 -13.5t13.5 -32.5zM257 291q0 -19 -13 -32t-32 -13t-32 13t-13 32t13 32t32 13
t32 -13t13 -32zM140 405q0 -19 -13 -32.5t-32 -13.5t-32.5 13.5t-13.5 32.5t13.5 32t32.5 13t32 -13t13 -32zM374 66q0 -19 -13.5 -32t-32.5 -13t-32 13t-13 32t13 32.5t32 13.5t32.5 -13.5t13.5 -32.5zM114 291q0 -18 -18 -18t-18 18t18 18t18 -18zM260 64q0 -19 -13.5 -32
t-32.5 -13t-32 13t-13 32t13 32.5t32 13.5t32.5 -13.5t13.5 -32.5z" />
    <glyph glyph-name="h" unicode="h" horiz-adv-x="705" 
d="M574 406q0 -18 -18 -18t-18 18t18 18t18 -18zM254 738q0 -19 -13.5 -32t-32.5 -13t-32 13t-13 32t13 32t32 13t32.5 -13t13.5 -32zM602 292q0 -19 -13 -32t-32 -13t-32 13t-13 32t13 32t32 13t32 -13t13 -32zM485 406q0 -19 -13.5 -32.5t-31.5 -13.5q-19 0 -32.5 13.5
t-13.5 32.5t13.5 32t32.5 13t32 -13t13 -32zM253 632q0 -19 -13 -32.5t-32 -13.5t-32 13.5t-13 32.5t13 32t32 13t32 -13t13 -32zM138 738q0 -19 -13.5 -32t-32.5 -13t-32 13t-13 32t13 32t32 13t32.5 -13t13.5 -32zM603 179q0 -19 -13 -32t-32 -13t-32 13t-13 32t13 32
t32 13t32 -13t13 -32zM486 292q0 -19 -13 -32t-32 -13t-32 13t-13 32t13 32t32 13t32 -13t13 -32zM370 407q0 -19 -13 -32.5t-32 -13.5t-32.5 13.5t-13.5 32.5t13.5 32t32.5 13t32 -13t13 -32zM255 518q0 -19 -13.5 -32t-32.5 -13t-32 13t-13 32t13 32t32 13t32.5 -13
t13.5 -32zM137 632q0 -19 -13 -32.5t-32 -13.5t-32 13.5t-13 32.5t13 32t32 13t32 -13t13 -32zM605 65q0 -19 -13.5 -32t-32.5 -13t-32 13t-13 32t13 32.5t32 13.5t32.5 -13.5t13.5 -32.5zM487 179q0 -19 -13 -32t-32 -13t-32 13t-13 32t13 32t32 13t32 -13t13 -32zM256 405
q0 -19 -13 -32.5t-32 -13.5t-32.5 13.5t-13.5 32.5t13.5 32t32.5 13t32 -13t13 -32zM139 518q0 -19 -13.5 -32t-32.5 -13t-32 13t-13 32t13 32t32 13t32.5 -13t13.5 -32zM489 65q0 -19 -13.5 -32t-32.5 -13t-32 13t-13 32t13 32.5t32 13.5t32.5 -13.5t13.5 -32.5zM257 291
q0 -19 -13 -32t-32 -13t-32 13t-13 32t13 32t32 13t32 -13t13 -32zM140 405q0 -19 -13 -32.5t-32 -13.5t-32.5 13.5t-13.5 32.5t13.5 32t32.5 13t32 -13t13 -32zM258 178q0 -19 -13 -32t-32 -13t-32 13t-13 32t13 32t32 13t32 -13t13 -32zM141 291q0 -19 -13 -32t-32 -13
t-32 13t-13 32t13 32t32 13t32 -13t13 -32zM260 64q0 -19 -13.5 -32t-32.5 -13t-32 13t-13 32t13 32.5t32 13.5t32.5 -13.5t13.5 -32.5zM142 178q0 -19 -13 -32t-32 -13t-32 13t-13 32t13 32t32 13t32 -13t13 -32zM144 64q0 -19 -13.5 -32t-32.5 -13t-32 13t-13 32t13 32.5
t32 13.5t32.5 -13.5t13.5 -32.5z" />
    <glyph glyph-name="i" unicode="i" horiz-adv-x="588" 
d="M368 740q0 -19 -13.5 -32t-32.5 -13t-32 13t-13 32t13 32t32 13t32.5 -13t13.5 -32zM254 738q0 -19 -13.5 -32t-32.5 -13t-32 13t-13 32t13 32t32 13t32.5 -13t13.5 -32zM369 520q0 -19 -13.5 -32t-32.5 -13t-32 13t-13 32t13 32t32 13t32.5 -13t13.5 -32zM370 407
q0 -19 -13 -32.5t-32 -13.5t-32.5 13.5t-13.5 32.5t13.5 32t32.5 13t32 -13t13 -32zM255 518q0 -19 -13.5 -32t-32.5 -13t-32 13t-13 32t13 32t32 13t32.5 -13t13.5 -32zM371 293q0 -19 -13 -32t-32 -13t-32 13t-13 32t13 32t32 13t32 -13t13 -32zM256 405q0 -19 -13 -32.5
t-32 -13.5t-32.5 13.5t-13.5 32.5t13.5 32t32.5 13t32 -13t13 -32zM139 518q0 -19 -13.5 -32t-32.5 -13t-32 13t-13 32t13 32t32 13t32.5 -13t13.5 -32zM489 65q0 -19 -13.5 -32t-32.5 -13t-32 13t-13 32t13 32.5t32 13.5t32.5 -13.5t13.5 -32.5zM372 180q0 -19 -13 -32
t-32 -13t-32 13t-13 32t13 32t32 13t32 -13t13 -32zM257 291q0 -19 -13 -32t-32 -13t-32 13t-13 32t13 32t32 13t32 -13t13 -32zM374 66q0 -19 -13.5 -32t-32.5 -13t-32 13t-13 32t13 32.5t32 13.5t32.5 -13.5t13.5 -32.5zM258 178q0 -19 -13 -32t-32 -13t-32 13t-13 32
t13 32t32 13t32 -13t13 -32zM260 64q0 -19 -13.5 -32t-32.5 -13t-32 13t-13 32t13 32.5t32 13.5t32.5 -13.5t13.5 -32.5zM144 64q0 -19 -13.5 -32t-32.5 -13t-32 13t-13 32t13 32.5t32 13.5t32.5 -13.5t13.5 -32.5z" />
    <glyph glyph-name="j" unicode="j" horiz-adv-x="599" 
d="M483 739q0 -19 -13.5 -32t-32.5 -13t-32 13t-13 32t13 32t32 13t32.5 -13t13.5 -32zM368 740q0 -19 -13.5 -32t-32.5 -13t-32 13t-13 32t13 32t32 13t32.5 -13t13.5 -32zM484 519q0 -19 -13.5 -32t-32.5 -13t-32 13t-13 32t13 32t32 13t32.5 -13t13.5 -32zM485 406
q0 -19 -13.5 -32.5t-31.5 -13.5q-19 0 -32.5 13.5t-13.5 32.5t13.5 32t32.5 13t32 -13t13 -32zM369 520q0 -19 -13.5 -32t-32.5 -13t-32 13t-13 32t13 32t32 13t32.5 -13t13.5 -32zM486 292q0 -19 -13 -32t-32 -13t-32 13t-13 32t13 32t32 13t32 -13t13 -32zM370 407
q0 -19 -13 -32.5t-32 -13.5t-32.5 13.5t-13.5 32.5t13.5 32t32.5 13t32 -13t13 -32zM255 518q0 -19 -13.5 -32t-32.5 -13t-32 13t-13 32t13 32t32 13t32.5 -13t13.5 -32zM487 179q0 -19 -13 -32t-32 -13t-32 13t-13 32t13 32t32 13t32 -13t13 -32zM371 293q0 -19 -13 -32
t-32 -13t-32 13t-13 32t13 32t32 13t32 -13t13 -32zM461 65q0 -18 -18 -18t-18 18t18 18t18 -18zM372 180q0 -19 -13 -32t-32 -13t-32 13t-13 32t13 32t32 13t32 -13t13 -32zM374 66q0 -19 -13.5 -32t-32.5 -13t-32 13t-13 32t13 32.5t32 13.5t32.5 -13.5t13.5 -32.5z
M231 178q0 -18 -18 -18t-18 18t18 18t18 -18zM260 64q0 -19 -13.5 -32t-32.5 -13t-32 13t-13 32t13 32.5t32 13.5t32.5 -13.5t13.5 -32.5zM142 178q0 -19 -13 -32t-32 -13t-32 13t-13 32t13 32t32 13t32 -13t13 -32zM116 64q0 -18 -18 -18t-18 18t18 18t18 -18z" />
    <glyph glyph-name="k" unicode="k" horiz-adv-x="707" 
d="M600 519q0 -19 -13.5 -32t-32.5 -13t-32 13t-13 32t13 32t32 13t32.5 -13t13.5 -32zM456 519q0 -18 -18 -18t-18 18t18 18t18 -18zM254 738q0 -19 -13.5 -32t-32.5 -13t-32 13t-13 32t13 32t32 13t32.5 -13t13.5 -32zM485 406q0 -19 -13.5 -32.5t-31.5 -13.5
q-19 0 -32.5 13.5t-13.5 32.5t13.5 32t32.5 13t32 -13t13 -32zM253 632q0 -19 -13 -32.5t-32 -13.5t-32 13.5t-13 32.5t13 32t32 13t32 -13t13 -32zM138 738q0 -19 -13.5 -32t-32.5 -13t-32 13t-13 32t13 32t32 13t32.5 -13t13.5 -32zM486 292q0 -19 -13 -32t-32 -13t-32 13
t-13 32t13 32t32 13t32 -13t13 -32zM343 407q0 -18 -18 -18t-18 18t18 18t18 -18zM255 518q0 -19 -13.5 -32t-32.5 -13t-32 13t-13 32t13 32t32 13t32.5 -13t13.5 -32zM137 632q0 -19 -13 -32.5t-32 -13.5t-32 13.5t-13 32.5t13 32t32 13t32 -13t13 -32zM605 65
q0 -19 -13.5 -32t-32.5 -13t-32 13t-13 32t13 32.5t32 13.5t32.5 -13.5t13.5 -32.5zM487 179q0 -19 -13 -32t-32 -13t-32 13t-13 32t13 32t32 13t32 -13t13 -32zM371 293q0 -19 -13 -32t-32 -13t-32 13t-13 32t13 32t32 13t32 -13t13 -32zM256 405q0 -19 -13 -32.5
t-32 -13.5t-32.5 13.5t-13.5 32.5t13.5 32t32.5 13t32 -13t13 -32zM139 518q0 -19 -13.5 -32t-32.5 -13t-32 13t-13 32t13 32t32 13t32.5 -13t13.5 -32zM461 65q0 -18 -18 -18t-18 18t18 18t18 -18zM345 180q0 -18 -18 -18t-18 18t18 18t18 -18zM257 291q0 -19 -13 -32
t-32 -13t-32 13t-13 32t13 32t32 13t32 -13t13 -32zM140 405q0 -19 -13 -32.5t-32 -13.5t-32.5 13.5t-13.5 32.5t13.5 32t32.5 13t32 -13t13 -32zM258 178q0 -19 -13 -32t-32 -13t-32 13t-13 32t13 32t32 13t32 -13t13 -32zM141 291q0 -19 -13 -32t-32 -13t-32 13t-13 32
t13 32t32 13t32 -13t13 -32zM260 64q0 -19 -13.5 -32t-32.5 -13t-32 13t-13 32t13 32.5t32 13.5t32.5 -13.5t13.5 -32.5zM142 178q0 -19 -13 -32t-32 -13t-32 13t-13 32t13 32t32 13t32 -13t13 -32zM144 64q0 -19 -13.5 -32t-32.5 -13t-32 13t-13 32t13 32.5t32 13.5
t32.5 -13.5t13.5 -32.5z" />
    <glyph glyph-name="l" unicode="l" horiz-adv-x="592" 
d="M368 740q0 -19 -13.5 -32t-32.5 -13t-32 13t-13 32t13 32t32 13t32.5 -13t13.5 -32zM367 634q0 -19 -13 -32.5t-32 -13.5t-32 13.5t-13 32.5t13 32t32 13t32 -13t13 -32zM254 738q0 -19 -13.5 -32t-32.5 -13t-32 13t-13 32t13 32t32 13t32.5 -13t13.5 -32zM369 520
q0 -19 -13.5 -32t-32.5 -13t-32 13t-13 32t13 32t32 13t32.5 -13t13.5 -32zM253 632q0 -19 -13 -32.5t-32 -13.5t-32 13.5t-13 32.5t13 32t32 13t32 -13t13 -32zM138 738q0 -19 -13.5 -32t-32.5 -13t-32 13t-13 32t13 32t32 13t32.5 -13t13.5 -32zM370 407q0 -19 -13 -32.5
t-32 -13.5t-32.5 13.5t-13.5 32.5t13.5 32t32.5 13t32 -13t13 -32zM255 518q0 -19 -13.5 -32t-32.5 -13t-32 13t-13 32t13 32t32 13t32.5 -13t13.5 -32zM371 293q0 -19 -13 -32t-32 -13t-32 13t-13 32t13 32t32 13t32 -13t13 -32zM256 405q0 -19 -13 -32.5t-32 -13.5
t-32.5 13.5t-13.5 32.5t13.5 32t32.5 13t32 -13t13 -32zM489 65q0 -19 -13.5 -32t-32.5 -13t-32 13t-13 32t13 32.5t32 13.5t32.5 -13.5t13.5 -32.5zM372 180q0 -19 -13 -32t-32 -13t-32 13t-13 32t13 32t32 13t32 -13t13 -32zM257 291q0 -19 -13 -32t-32 -13t-32 13t-13 32
t13 32t32 13t32 -13t13 -32zM374 66q0 -19 -13.5 -32t-32.5 -13t-32 13t-13 32t13 32.5t32 13.5t32.5 -13.5t13.5 -32.5zM258 178q0 -19 -13 -32t-32 -13t-32 13t-13 32t13 32t32 13t32 -13t13 -32zM260 64q0 -19 -13.5 -32t-32.5 -13t-32 13t-13 32t13 32.5t32 13.5
t32.5 -13.5t13.5 -32.5zM144 64q0 -19 -13.5 -32t-32.5 -13t-32 13t-13 32t13 32.5t32 13.5t32.5 -13.5t13.5 -32.5z" />
    <glyph glyph-name="m" unicode="m" horiz-adv-x="949" 
d="M799 521q0 -18 -18 -18t-18 18t18 18t18 -18zM828 408q0 -18 -13 -32t-32 -14q-18 0 -32 14t-14 32q0 19 14 32t32 13q19 0 32 -13t13 -32zM714 521q0 -19 -13.5 -32t-32.5 -13t-32 13t-13 32t13 32t32 13t32.5 -13t13.5 -32zM829 294q0 -18 -13 -31.5t-32 -13.5
q-18 0 -31.5 13.5t-13.5 31.5q0 19 13.5 32t31.5 13q19 0 32 -13t13 -32zM715 408q0 -19 -13.5 -32.5t-31.5 -13.5q-19 0 -32.5 13.5t-13.5 32.5t13.5 32t32.5 13t32 -13t13 -32zM600 519q0 -19 -13.5 -32t-32.5 -13t-32 13t-13 32t13 32t32 13t32.5 -13t13.5 -32zM830 181
q0 -18 -13 -31.5t-32 -13.5q-18 0 -31.5 13.5t-13.5 31.5q0 19 13.5 32t31.5 13q19 0 32 -13t13 -32zM716 294q0 -19 -13 -32t-32 -13t-32 13t-13 32t13 32t32 13t32 -13t13 -32zM601 406q0 -19 -13.5 -32.5t-31.5 -13.5q-19 0 -32.5 13.5t-13.5 32.5t13.5 32t32.5 13
t32 -13t13 -32zM456 519q0 -18 -18 -18t-18 18t18 18t18 -18zM832 67q0 -18 -13.5 -31.5t-32.5 -13.5q-18 0 -31.5 13.5t-13.5 31.5q0 19 13.5 32.5t31.5 13.5q19 0 32.5 -13.5t13.5 -32.5zM717 181q0 -19 -13 -32t-32 -13t-32 13t-13 32t13 32t32 13t32 -13t13 -32z
M485 406q0 -19 -13.5 -32.5t-31.5 -13.5q-19 0 -32.5 13.5t-13.5 32.5t13.5 32t32.5 13t32 -13t13 -32zM369 520q0 -19 -13.5 -32t-32.5 -13t-32 13t-13 32t13 32t32 13t32.5 -13t13.5 -32zM719 67q0 -19 -13.5 -32t-32.5 -13t-32 13t-13 32t13 32.5t32 13.5t32.5 -13.5
t13.5 -32.5zM486 292q0 -19 -13 -32t-32 -13t-32 13t-13 32t13 32t32 13t32 -13t13 -32zM370 407q0 -19 -13 -32.5t-32 -13.5t-32.5 13.5t-13.5 32.5t13.5 32t32.5 13t32 -13t13 -32zM227 518q0 -18 -18 -18t-18 18t18 18t18 -18zM487 179q0 -19 -13 -32t-32 -13t-32 13
t-13 32t13 32t32 13t32 -13t13 -32zM256 405q0 -19 -13 -32.5t-32 -13.5t-32.5 13.5t-13.5 32.5t13.5 32t32.5 13t32 -13t13 -32zM139 518q0 -19 -13.5 -32t-32.5 -13t-32 13t-13 32t13 32t32 13t32.5 -13t13.5 -32zM489 65q0 -19 -13.5 -32t-32.5 -13t-32 13t-13 32
t13 32.5t32 13.5t32.5 -13.5t13.5 -32.5zM257 291q0 -19 -13 -32t-32 -13t-32 13t-13 32t13 32t32 13t32 -13t13 -32zM140 405q0 -19 -13 -32.5t-32 -13.5t-32.5 13.5t-13.5 32.5t13.5 32t32.5 13t32 -13t13 -32zM258 178q0 -19 -13 -32t-32 -13t-32 13t-13 32t13 32t32 13
t32 -13t13 -32zM141 291q0 -19 -13 -32t-32 -13t-32 13t-13 32t13 32t32 13t32 -13t13 -32zM260 64q0 -19 -13.5 -32t-32.5 -13t-32 13t-13 32t13 32.5t32 13.5t32.5 -13.5t13.5 -32.5zM142 178q0 -19 -13 -32t-32 -13t-32 13t-13 32t13 32t32 13t32 -13t13 -32zM144 64
q0 -19 -13.5 -32t-32.5 -13t-32 13t-13 32t13 32.5t32 13.5t32.5 -13.5t13.5 -32.5z" />
    <glyph glyph-name="n" unicode="n" horiz-adv-x="832" 
d="M689 519q0 -18 -18 -18t-18 18t18 18t18 -18zM715 408q0 -19 -13.5 -32.5t-31.5 -13.5q-19 0 -32.5 13.5t-13.5 32.5t13.5 32t32.5 13t32 -13t13 -32zM599 519q0 -19 -13.5 -32t-32.5 -13t-32 13t-13 32t13 32t32 13t32.5 -13t13.5 -32zM716 294q0 -19 -13 -32t-32 -13
t-32 13t-13 32t13 32t32 13t32 -13t13 -32zM601 406q0 -19 -13.5 -32.5t-31.5 -13.5q-19 0 -32.5 13.5t-13.5 32.5t13.5 32t32.5 13t32 -13t13 -32zM485 520q0 -19 -13.5 -32t-32.5 -13t-32 13t-13 32t13 32t32 13t32.5 -13t13.5 -32zM717 181q0 -19 -13 -32t-32 -13t-32 13
t-13 32t13 32t32 13t32 -13t13 -32zM602 292q0 -19 -13 -32t-32 -13t-32 13t-13 32t13 32t32 13t32 -13t13 -32zM486 405q0 -19 -13 -32.5t-32 -13.5t-32.5 13.5t-13.5 32.5t13.5 32t32.5 13t32 -13t13 -32zM369 520q0 -19 -13.5 -32t-32.5 -13t-32 13t-13 32t13 32t32 13
t32.5 -13t13.5 -32zM719 67q0 -19 -13.5 -32t-32.5 -13t-32 13t-13 32t13 32.5t32 13.5t32.5 -13.5t13.5 -32.5zM603 179q0 -19 -13 -32t-32 -13t-32 13t-13 32t13 32t32 13t32 -13t13 -32zM370 405q0 -19 -13 -32.5t-32 -13.5t-32.5 13.5t-13.5 32.5t13.5 32t32.5 13
t32 -13t13 -32zM227 518q0 -18 -18 -18t-18 18t18 18t18 -18zM605 65q0 -19 -13.5 -32t-32.5 -13t-32 13t-13 32t13 32.5t32 13.5t32.5 -13.5t13.5 -32.5zM256 405q0 -19 -13 -32.5t-32 -13.5t-32.5 13.5t-13.5 32.5t13.5 32t32.5 13t32 -13t13 -32zM139 518
q0 -19 -13.5 -32t-32.5 -13t-32 13t-13 32t13 32t32 13t32.5 -13t13.5 -32zM257 291q0 -19 -13 -32t-32 -13t-32 13t-13 32t13 32t32 13t32 -13t13 -32zM140 405q0 -19 -13 -32.5t-32 -13.5t-32.5 13.5t-13.5 32.5t13.5 32t32.5 13t32 -13t13 -32zM258 178q0 -19 -13 -32
t-32 -13t-32 13t-13 32t13 32t32 13t32 -13t13 -32zM141 291q0 -19 -13 -32t-32 -13t-32 13t-13 32t13 32t32 13t32 -13t13 -32zM260 64q0 -19 -13.5 -32t-32.5 -13t-32 13t-13 32t13 32.5t32 13.5t32.5 -13.5t13.5 -32.5zM142 178q0 -19 -13 -32t-32 -13t-32 13t-13 32
t13 32t32 13t32 -13t13 -32zM144 64q0 -19 -13.5 -32t-32.5 -13t-32 13t-13 32t13 32.5t32 13.5t32.5 -13.5t13.5 -32.5z" />
    <glyph glyph-name="o" unicode="o" horiz-adv-x="714" 
d="M572 519q0 -18 -18 -18t-18 18t18 18t18 -18zM601 406q0 -19 -13.5 -32.5t-31.5 -13.5q-19 0 -32.5 13.5t-13.5 32.5t13.5 32t32.5 13t32 -13t13 -32zM484 519q0 -19 -13.5 -32t-32.5 -13t-32 13t-13 32t13 32t32 13t32.5 -13t13.5 -32zM602 292q0 -19 -13 -32t-32 -13
t-32 13t-13 32t13 32t32 13t32 -13t13 -32zM485 406q0 -19 -13.5 -32.5t-31.5 -13.5q-19 0 -32.5 13.5t-13.5 32.5t13.5 32t32.5 13t32 -13t13 -32zM369 520q0 -19 -13.5 -32t-32.5 -13t-32 13t-13 32t13 32t32 13t32.5 -13t13.5 -32zM603 179q0 -19 -13 -32t-32 -13t-32 13
t-13 32t13 32t32 13t32 -13t13 -32zM486 292q0 -19 -13 -32t-32 -13t-32 13t-13 32t13 32t32 13t32 -13t13 -32zM255 518q0 -19 -13.5 -32t-32.5 -13t-32 13t-13 32t13 32t32 13t32.5 -13t13.5 -32zM577 65q0 -18 -18 -18t-18 18t18 18t18 -18zM487 179q0 -19 -13 -32
t-32 -13t-32 13t-13 32t13 32t32 13t32 -13t13 -32zM256 405q0 -19 -13 -32.5t-32 -13.5t-32.5 13.5t-13.5 32.5t13.5 32t32.5 13t32 -13t13 -32zM111 518q0 -18 -18 -18t-18 18t18 18t18 -18zM489 65q0 -19 -13.5 -32t-32.5 -13t-32 13t-13 32t13 32.5t32 13.5t32.5 -13.5
t13.5 -32.5zM257 291q0 -19 -13 -32t-32 -13t-32 13t-13 32t13 32t32 13t32 -13t13 -32zM140 405q0 -19 -13 -32.5t-32 -13.5t-32.5 13.5t-13.5 32.5t13.5 32t32.5 13t32 -13t13 -32zM374 66q0 -19 -13.5 -32t-32.5 -13t-32 13t-13 32t13 32.5t32 13.5t32.5 -13.5
t13.5 -32.5zM258 178q0 -19 -13 -32t-32 -13t-32 13t-13 32t13 32t32 13t32 -13t13 -32zM141 291q0 -19 -13 -32t-32 -13t-32 13t-13 32t13 32t32 13t32 -13t13 -32zM260 64q0 -19 -13.5 -32t-32.5 -13t-32 13t-13 32t13 32.5t32 13.5t32.5 -13.5t13.5 -32.5zM142 178
q0 -19 -13 -32t-32 -13t-32 13t-13 32t13 32t32 13t32 -13t13 -32zM116 64q0 -18 -18 -18t-18 18t18 18t18 -18z" />
    <glyph glyph-name="p" unicode="p" horiz-adv-x="695" 
d="M571 633q0 -18 -18 -18t-18 18t18 18t18 -18zM600 519q0 -19 -13.5 -32t-32.5 -13t-32 13t-13 32t13 32t32 13t32.5 -13t13.5 -32zM482 633q0 -19 -13.5 -32.5t-31.5 -13.5q-19 0 -32 13.5t-13 32.5t13 32t32 13t32 -13t13 -32zM601 406q0 -19 -13.5 -32.5t-31.5 -13.5
q-19 0 -32.5 13.5t-13.5 32.5t13.5 32t32.5 13t32 -13t13 -32zM484 519q0 -19 -13.5 -32t-32.5 -13t-32 13t-13 32t13 32t32 13t32.5 -13t13.5 -32zM367 634q0 -19 -13 -32.5t-32 -13.5t-32 13.5t-13 32.5t13 32t32 13t32 -13t13 -32zM575 292q0 -18 -18 -18t-18 18t18 18
t18 -18zM485 406q0 -19 -13.5 -32.5t-31.5 -13.5q-19 0 -32.5 13.5t-13.5 32.5t13.5 32t32.5 13t32 -13t13 -32zM253 632q0 -19 -13 -32.5t-32 -13.5t-32 13.5t-13 32.5t13 32t32 13t32 -13t13 -32zM486 292q0 -19 -13 -32t-32 -13t-32 13t-13 32t13 32t32 13t32 -13t13 -32
zM255 518q0 -19 -13.5 -32t-32.5 -13t-32 13t-13 32t13 32t32 13t32.5 -13t13.5 -32zM137 632q0 -19 -13 -32.5t-32 -13.5t-32 13.5t-13 32.5t13 32t32 13t32 -13t13 -32zM371 293q0 -19 -13 -32t-32 -13t-32 13t-13 32t13 32t32 13t32 -13t13 -32zM256 405q0 -19 -13 -32.5
t-32 -13.5t-32.5 13.5t-13.5 32.5t13.5 32t32.5 13t32 -13t13 -32zM139 518q0 -19 -13.5 -32t-32.5 -13t-32 13t-13 32t13 32t32 13t32.5 -13t13.5 -32zM257 291q0 -19 -13 -32t-32 -13t-32 13t-13 32t13 32t32 13t32 -13t13 -32zM140 405q0 -19 -13 -32.5t-32 -13.5
t-32.5 13.5t-13.5 32.5t13.5 32t32.5 13t32 -13t13 -32zM258 178q0 -19 -13 -32t-32 -13t-32 13t-13 32t13 32t32 13t32 -13t13 -32zM141 291q0 -19 -13 -32t-32 -13t-32 13t-13 32t13 32t32 13t32 -13t13 -32zM260 64q0 -19 -13.5 -32t-32.5 -13t-32 13t-13 32t13 32.5
t32 13.5t32.5 -13.5t13.5 -32.5zM142 178q0 -19 -13 -32t-32 -13t-32 13t-13 32t13 32t32 13t32 -13t13 -32zM144 64q0 -19 -13.5 -32t-32.5 -13t-32 13t-13 32t13 32.5t32 13.5t32.5 -13.5t13.5 -32.5z" />
    <glyph glyph-name="q" unicode="q" horiz-adv-x="722" 
d="M598 633q0 -19 -13.5 -32.5t-31.5 -13.5q-19 0 -32 13.5t-13 32.5t13 32t32 13t32 -13t13 -32zM600 519q0 -19 -13.5 -32t-32.5 -13t-32 13t-13 32t13 32t32 13t32.5 -13t13.5 -32zM482 633q0 -19 -13.5 -32.5t-31.5 -13.5q-19 0 -32 13.5t-13 32.5t13 32t32 13t32 -13
t13 -32zM601 406q0 -19 -13.5 -32.5t-31.5 -13.5q-19 0 -32.5 13.5t-13.5 32.5t13.5 32t32.5 13t32 -13t13 -32zM484 519q0 -19 -13.5 -32t-32.5 -13t-32 13t-13 32t13 32t32 13t32.5 -13t13.5 -32zM367 634q0 -19 -13 -32.5t-32 -13.5t-32 13.5t-13 32.5t13 32t32 13
t32 -13t13 -32zM602 292q0 -19 -13 -32t-32 -13t-32 13t-13 32t13 32t32 13t32 -13t13 -32zM485 406q0 -19 -13.5 -32.5t-31.5 -13.5q-19 0 -32.5 13.5t-13.5 32.5t13.5 32t32.5 13t32 -13t13 -32zM253 632q0 -19 -13 -32.5t-32 -13.5t-32 13.5t-13 32.5t13 32t32 13t32 -13
t13 -32zM603 179q0 -19 -13 -32t-32 -13t-32 13t-13 32t13 32t32 13t32 -13t13 -32zM486 292q0 -19 -13 -32t-32 -13t-32 13t-13 32t13 32t32 13t32 -13t13 -32zM255 518q0 -19 -13.5 -32t-32.5 -13t-32 13t-13 32t13 32t32 13t32.5 -13t13.5 -32zM110 632q0 -18 -18 -18
t-18 18t18 18t18 -18zM605 65q0 -19 -13.5 -32t-32.5 -13t-32 13t-13 32t13 32.5t32 13.5t32.5 -13.5t13.5 -32.5zM487 179q0 -19 -13 -32t-32 -13t-32 13t-13 32t13 32t32 13t32 -13t13 -32zM371 293q0 -19 -13 -32t-32 -13t-32 13t-13 32t13 32t32 13t32 -13t13 -32z
M256 405q0 -19 -13 -32.5t-32 -13.5t-32.5 13.5t-13.5 32.5t13.5 32t32.5 13t32 -13t13 -32zM139 518q0 -19 -13.5 -32t-32.5 -13t-32 13t-13 32t13 32t32 13t32.5 -13t13.5 -32zM489 65q0 -19 -13.5 -32t-32.5 -13t-32 13t-13 32t13 32.5t32 13.5t32.5 -13.5t13.5 -32.5z
M257 291q0 -19 -13 -32t-32 -13t-32 13t-13 32t13 32t32 13t32 -13t13 -32zM140 405q0 -19 -13 -32.5t-32 -13.5t-32.5 13.5t-13.5 32.5t13.5 32t32.5 13t32 -13t13 -32zM114 291q0 -18 -18 -18t-18 18t18 18t18 -18z" />
    <glyph glyph-name="r" unicode="r" horiz-adv-x="691" 
d="M600 519q0 -19 -13.5 -32t-32.5 -13t-32 13t-13 32t13 32t32 13t32.5 -13t13.5 -32zM601 406q0 -19 -13.5 -32.5t-31.5 -13.5q-19 0 -32.5 13.5t-13.5 32.5t13.5 32t32.5 13t32 -13t13 -32zM484 519q0 -19 -13.5 -32t-32.5 -13t-32 13t-13 32t13 32t32 13t32.5 -13
t13.5 -32zM485 406q0 -19 -13.5 -32.5t-31.5 -13.5q-19 0 -32.5 13.5t-13.5 32.5t13.5 32t32.5 13t32 -13t13 -32zM341 520q0 -18 -18 -18t-18 18t18 18t18 -18zM370 407q0 -19 -13 -32.5t-32 -13.5t-32.5 13.5t-13.5 32.5t13.5 32t32.5 13t32 -13t13 -32zM255 518
q0 -19 -13.5 -32t-32.5 -13t-32 13t-13 32t13 32t32 13t32.5 -13t13.5 -32zM344 293q0 -18 -18 -18t-18 18t18 18t18 -18zM256 405q0 -19 -13 -32.5t-32 -13.5t-32.5 13.5t-13.5 32.5t13.5 32t32.5 13t32 -13t13 -32zM139 518q0 -19 -13.5 -32t-32.5 -13t-32 13t-13 32
t13 32t32 13t32.5 -13t13.5 -32zM257 291q0 -19 -13 -32t-32 -13t-32 13t-13 32t13 32t32 13t32 -13t13 -32zM140 405q0 -19 -13 -32.5t-32 -13.5t-32.5 13.5t-13.5 32.5t13.5 32t32.5 13t32 -13t13 -32zM258 178q0 -19 -13 -32t-32 -13t-32 13t-13 32t13 32t32 13t32 -13
t13 -32zM141 291q0 -19 -13 -32t-32 -13t-32 13t-13 32t13 32t32 13t32 -13t13 -32zM260 64q0 -19 -13.5 -32t-32.5 -13t-32 13t-13 32t13 32.5t32 13.5t32.5 -13.5t13.5 -32.5zM142 178q0 -19 -13 -32t-32 -13t-32 13t-13 32t13 32t32 13t32 -13t13 -32zM144 64
q0 -19 -13.5 -32t-32.5 -13t-32 13t-13 32t13 32.5t32 13.5t32.5 -13.5t13.5 -32.5z" />
    <glyph glyph-name="s" unicode="s" horiz-adv-x="698" 
d="M484 519q0 -19 -13.5 -32t-32.5 -13t-32 13t-13 32t13 32t32 13t32.5 -13t13.5 -32zM575 292q0 -18 -18 -18t-18 18t18 18t18 -18zM369 520q0 -19 -13.5 -32t-32.5 -13t-32 13t-13 32t13 32t32 13t32.5 -13t13.5 -32zM603 179q0 -19 -13 -32t-32 -13t-32 13t-13 32t13 32
t32 13t32 -13t13 -32zM486 292q0 -19 -13 -32t-32 -13t-32 13t-13 32t13 32t32 13t32 -13t13 -32zM255 518q0 -19 -13.5 -32t-32.5 -13t-32 13t-13 32t13 32t32 13t32.5 -13t13.5 -32zM591 65q0 -31 -32 -31q-31 0 -31 31q0 32 31 32q13 0 22.5 -9.5t9.5 -22.5zM487 179
q0 -19 -13 -32t-32 -13t-32 13t-13 32t13 32t32 13t32 -13t13 -32zM371 293q0 -19 -13 -32t-32 -13t-32 13t-13 32t13 32t32 13t32 -13t13 -32zM256 405q0 -19 -13 -32.5t-32 -13.5t-32.5 13.5t-13.5 32.5t13.5 32t32.5 13t32 -13t13 -32zM125 518q0 -13 -9.5 -22.5
t-22.5 -9.5q-31 0 -31 32t31 32q13 0 22.5 -9.5t9.5 -22.5zM489 65q0 -19 -13.5 -32t-32.5 -13t-32 13t-13 32t13 32.5t32 13.5t32.5 -13.5t13.5 -32.5zM257 291q0 -19 -13 -32t-32 -13t-32 13t-13 32t13 32t32 13t32 -13t13 -32zM140 405q0 -19 -13 -32.5t-32 -13.5
t-32.5 13.5t-13.5 32.5t13.5 32t32.5 13t32 -13t13 -32zM374 66q0 -19 -13.5 -32t-32.5 -13t-32 13t-13 32t13 32.5t32 13.5t32.5 -13.5t13.5 -32.5zM114 291q0 -18 -18 -18t-18 18t18 18t18 -18zM260 64q0 -19 -13.5 -32t-32.5 -13t-32 13t-13 32t13 32.5t32 13.5
t32.5 -13.5t13.5 -32.5zM144 64q0 -19 -13.5 -32t-32.5 -13t-32 13t-13 32t13 32.5t32 13.5t32.5 -13.5t13.5 -32.5z" />
    <glyph glyph-name="t" unicode="t" horiz-adv-x="594" 
d="M368 740q0 -19 -13.5 -32t-32.5 -13t-32 13t-13 32t13 32t32 13t32.5 -13t13.5 -32zM367 634q0 -19 -13 -32.5t-32 -13.5t-32 13.5t-13 32.5t13 32t32 13t32 -13t13 -32zM254 738q0 -19 -13.5 -32t-32.5 -13t-32 13t-13 32t13 32t32 13t32.5 -13t13.5 -32zM485 406
q0 -19 -13.5 -32.5t-31.5 -13.5q-19 0 -32.5 13.5t-13.5 32.5t13.5 32t32.5 13t32 -13t13 -32zM369 520q0 -19 -13.5 -32t-32.5 -13t-32 13t-13 32t13 32t32 13t32.5 -13t13.5 -32zM253 632q0 -19 -13 -32.5t-32 -13.5t-32 13.5t-13 32.5t13 32t32 13t32 -13t13 -32z
M370 407q0 -19 -13 -32.5t-32 -13.5t-32.5 13.5t-13.5 32.5t13.5 32t32.5 13t32 -13t13 -32zM255 518q0 -19 -13.5 -32t-32.5 -13t-32 13t-13 32t13 32t32 13t32.5 -13t13.5 -32zM371 293q0 -19 -13 -32t-32 -13t-32 13t-13 32t13 32t32 13t32 -13t13 -32zM256 405
q0 -19 -13 -32.5t-32 -13.5t-32.5 13.5t-13.5 32.5t13.5 32t32.5 13t32 -13t13 -32zM489 65q0 -19 -13.5 -32t-32.5 -13t-32 13t-13 32t13 32.5t32 13.5t32.5 -13.5t13.5 -32.5zM372 180q0 -19 -13 -32t-32 -13t-32 13t-13 32t13 32t32 13t32 -13t13 -32zM257 291
q0 -19 -13 -32t-32 -13t-32 13t-13 32t13 32t32 13t32 -13t13 -32zM140 405q0 -19 -13 -32.5t-32 -13.5t-32.5 13.5t-13.5 32.5t13.5 32t32.5 13t32 -13t13 -32zM374 66q0 -19 -13.5 -32t-32.5 -13t-32 13t-13 32t13 32.5t32 13.5t32.5 -13.5t13.5 -32.5zM258 178
q0 -19 -13 -32t-32 -13t-32 13t-13 32t13 32t32 13t32 -13t13 -32zM246 64q0 -31 -32 -31q-31 0 -31 31q0 32 31 32q13 0 22.5 -9.5t9.5 -22.5z" />
    <glyph glyph-name="u" unicode="u" horiz-adv-x="723" 
d="M600 519q0 -19 -13.5 -32t-32.5 -13t-32 13t-13 32t13 32t32 13t32.5 -13t13.5 -32zM601 406q0 -19 -13.5 -32.5t-31.5 -13.5q-19 0 -32.5 13.5t-13.5 32.5t13.5 32t32.5 13t32 -13t13 -32zM484 519q0 -19 -13.5 -32t-32.5 -13t-32 13t-13 32t13 32t32 13t32.5 -13
t13.5 -32zM602 292q0 -19 -13 -32t-32 -13t-32 13t-13 32t13 32t32 13t32 -13t13 -32zM485 406q0 -19 -13.5 -32.5t-31.5 -13.5q-19 0 -32.5 13.5t-13.5 32.5t13.5 32t32.5 13t32 -13t13 -32zM603 179q0 -19 -13 -32t-32 -13t-32 13t-13 32t13 32t32 13t32 -13t13 -32z
M486 292q0 -19 -13 -32t-32 -13t-32 13t-13 32t13 32t32 13t32 -13t13 -32zM255 518q0 -19 -13.5 -32t-32.5 -13t-32 13t-13 32t13 32t32 13t32.5 -13t13.5 -32zM605 65q0 -19 -13.5 -32t-32.5 -13t-32 13t-13 32t13 32.5t32 13.5t32.5 -13.5t13.5 -32.5zM487 179
q0 -19 -13 -32t-32 -13t-32 13t-13 32t13 32t32 13t32 -13t13 -32zM256 405q0 -19 -13 -32.5t-32 -13.5t-32.5 13.5t-13.5 32.5t13.5 32t32.5 13t32 -13t13 -32zM139 518q0 -19 -13.5 -32t-32.5 -13t-32 13t-13 32t13 32t32 13t32.5 -13t13.5 -32zM475 65q0 -31 -32 -31
q-31 0 -31 31q0 32 31 32q13 0 22.5 -9.5t9.5 -22.5zM257 291q0 -19 -13 -32t-32 -13t-32 13t-13 32t13 32t32 13t32 -13t13 -32zM140 405q0 -19 -13 -32.5t-32 -13.5t-32.5 13.5t-13.5 32.5t13.5 32t32.5 13t32 -13t13 -32zM374 66q0 -19 -13.5 -32t-32.5 -13t-32 13
t-13 32t13 32.5t32 13.5t32.5 -13.5t13.5 -32.5zM258 178q0 -19 -13 -32t-32 -13t-32 13t-13 32t13 32t32 13t32 -13t13 -32zM141 291q0 -19 -13 -32t-32 -13t-32 13t-13 32t13 32t32 13t32 -13t13 -32zM260 64q0 -19 -13.5 -32t-32.5 -13t-32 13t-13 32t13 32.5t32 13.5
t32.5 -13.5t13.5 -32.5zM142 178q0 -19 -13 -32t-32 -13t-32 13t-13 32t13 32t32 13t32 -13t13 -32zM116 64q0 -18 -18 -18t-18 18t18 18t18 -18z" />
    <glyph glyph-name="v" unicode="v" horiz-adv-x="712" 
d="M600 519q0 -19 -13.5 -32t-32.5 -13t-32 13t-13 32t13 32t32 13t32.5 -13t13.5 -32zM601 406q0 -19 -13.5 -32.5t-31.5 -13.5q-19 0 -32.5 13.5t-13.5 32.5t13.5 32t32.5 13t32 -13t13 -32zM484 519q0 -19 -13.5 -32t-32.5 -13t-32 13t-13 32t13 32t32 13t32.5 -13
t13.5 -32zM602 292q0 -19 -13 -32t-32 -13t-32 13t-13 32t13 32t32 13t32 -13t13 -32zM485 406q0 -19 -13.5 -32.5t-31.5 -13.5q-19 0 -32.5 13.5t-13.5 32.5t13.5 32t32.5 13t32 -13t13 -32zM590 179q0 -13 -9.5 -22.5t-22.5 -9.5t-22.5 9.5t-9.5 22.5q0 31 32 31t32 -31z
M486 292q0 -19 -13 -32t-32 -13t-32 13t-13 32t13 32t32 13t32 -13t13 -32zM255 518q0 -19 -13.5 -32t-32.5 -13t-32 13t-13 32t13 32t32 13t32.5 -13t13.5 -32zM487 179q0 -19 -13 -32t-32 -13t-32 13t-13 32t13 32t32 13t32 -13t13 -32zM256 405q0 -19 -13 -32.5
t-32 -13.5t-32.5 13.5t-13.5 32.5t13.5 32t32.5 13t32 -13t13 -32zM139 518q0 -19 -13.5 -32t-32.5 -13t-32 13t-13 32t13 32t32 13t32.5 -13t13.5 -32zM475 65q0 -31 -32 -31q-31 0 -31 31q0 32 31 32q13 0 22.5 -9.5t9.5 -22.5zM257 291q0 -19 -13 -32t-32 -13t-32 13
t-13 32t13 32t32 13t32 -13t13 -32zM140 405q0 -19 -13 -32.5t-32 -13.5t-32.5 13.5t-13.5 32.5t13.5 32t32.5 13t32 -13t13 -32zM374 66q0 -19 -13.5 -32t-32.5 -13t-32 13t-13 32t13 32.5t32 13.5t32.5 -13.5t13.5 -32.5zM258 178q0 -19 -13 -32t-32 -13t-32 13t-13 32
t13 32t32 13t32 -13t13 -32zM141 291q0 -19 -13 -32t-32 -13t-32 13t-13 32t13 32t32 13t32 -13t13 -32zM246 64q0 -31 -32 -31q-31 0 -31 31q0 32 31 32q13 0 22.5 -9.5t9.5 -22.5zM129 178q0 -13 -9.5 -22.5t-22.5 -9.5t-22.5 9.5t-9.5 22.5q0 31 32 31t32 -31z" />
    <glyph glyph-name="w" unicode="w" horiz-adv-x="952" 
d="M827 521q0 -18 -13.5 -31.5t-32.5 -13.5q-18 0 -31.5 13.5t-13.5 31.5q0 19 13.5 32t31.5 13q19 0 32.5 -13t13.5 -32zM828 408q0 -18 -13 -32t-32 -14q-18 0 -32 14t-14 32q0 19 14 32t32 13q19 0 32 -13t13 -32zM714 521q0 -19 -13.5 -32t-32.5 -13t-32 13t-13 32
t13 32t32 13t32.5 -13t13.5 -32zM829 294q0 -18 -13 -31.5t-32 -13.5q-18 0 -31.5 13.5t-13.5 31.5q0 19 13.5 32t31.5 13q19 0 32 -13t13 -32zM715 408q0 -19 -13.5 -32.5t-31.5 -13.5q-19 0 -32.5 13.5t-13.5 32.5t13.5 32t32.5 13t32 -13t13 -32zM830 181
q0 -18 -13 -31.5t-32 -13.5q-18 0 -31.5 13.5t-13.5 31.5q0 19 13.5 32t31.5 13q19 0 32 -13t13 -32zM716 294q0 -19 -13 -32t-32 -13t-32 13t-13 32t13 32t32 13t32 -13t13 -32zM818 67q0 -31 -32 -31q-31 0 -31 31q0 32 31 32q14 0 23 -9t9 -23zM717 181q0 -19 -13 -32
t-32 -13t-32 13t-13 32t13 32t32 13t32 -13t13 -32zM719 67q0 -19 -13.5 -32t-32.5 -13t-32 13t-13 32t13 32.5t32 13.5t32.5 -13.5t13.5 -32.5zM486 292q0 -19 -13 -32t-32 -13t-32 13t-13 32t13 32t32 13t32 -13t13 -32zM255 518q0 -19 -13.5 -32t-32.5 -13t-32 13t-13 32
t13 32t32 13t32.5 -13t13.5 -32zM605 65q0 -19 -13.5 -32t-32.5 -13t-32 13t-13 32t13 32.5t32 13.5t32.5 -13.5t13.5 -32.5zM487 179q0 -19 -13 -32t-32 -13t-32 13t-13 32t13 32t32 13t32 -13t13 -32zM256 405q0 -19 -13 -32.5t-32 -13.5t-32.5 13.5t-13.5 32.5t13.5 32
t32.5 13t32 -13t13 -32zM139 518q0 -19 -13.5 -32t-32.5 -13t-32 13t-13 32t13 32t32 13t32.5 -13t13.5 -32zM475 65q0 -31 -32 -31q-31 0 -31 31q0 32 31 32q13 0 22.5 -9.5t9.5 -22.5zM257 291q0 -19 -13 -32t-32 -13t-32 13t-13 32t13 32t32 13t32 -13t13 -32zM140 405
q0 -19 -13 -32.5t-32 -13.5t-32.5 13.5t-13.5 32.5t13.5 32t32.5 13t32 -13t13 -32zM374 66q0 -19 -13.5 -32t-32.5 -13t-32 13t-13 32t13 32.5t32 13.5t32.5 -13.5t13.5 -32.5zM258 178q0 -19 -13 -32t-32 -13t-32 13t-13 32t13 32t32 13t32 -13t13 -32zM141 291
q0 -19 -13 -32t-32 -13t-32 13t-13 32t13 32t32 13t32 -13t13 -32zM260 64q0 -19 -13.5 -32t-32.5 -13t-32 13t-13 32t13 32.5t32 13.5t32.5 -13.5t13.5 -32.5zM142 178q0 -19 -13 -32t-32 -13t-32 13t-13 32t13 32t32 13t32 -13t13 -32zM130 64q0 -31 -32 -31q-31 0 -31 31
q0 32 31 32q13 0 22.5 -9.5t9.5 -22.5z" />
    <glyph glyph-name="x" unicode="x" horiz-adv-x="710" 
d="M600 519q0 -19 -13.5 -32t-32.5 -13t-32 13t-13 32t13 32t32 13t32.5 -13t13.5 -32zM587 406q0 -32 -31 -32q-13 0 -22.5 9.5t-9.5 22.5q0 31 32 31q31 0 31 -31zM484 519q0 -19 -13.5 -32t-32.5 -13t-32 13t-13 32t13 32t32 13t32.5 -13t13.5 -32zM485 406
q0 -19 -13.5 -32.5t-31.5 -13.5q-19 0 -32.5 13.5t-13.5 32.5t13.5 32t32.5 13t32 -13t13 -32zM590 179q0 -13 -9.5 -22.5t-22.5 -9.5t-22.5 9.5t-9.5 22.5q0 31 32 31t32 -31zM459 292q0 -18 -18 -18t-18 18t18 18t18 -18zM370 407q0 -19 -13 -32.5t-32 -13.5t-32.5 13.5
t-13.5 32.5t13.5 32t32.5 13t32 -13t13 -32zM255 518q0 -19 -13.5 -32t-32.5 -13t-32 13t-13 32t13 32t32 13t32.5 -13t13.5 -32zM605 65q0 -19 -13.5 -32t-32.5 -13t-32 13t-13 32t13 32.5t32 13.5t32.5 -13.5t13.5 -32.5zM487 179q0 -19 -13 -32t-32 -13t-32 13t-13 32
t13 32t32 13t32 -13t13 -32zM371 293q0 -19 -13 -32t-32 -13t-32 13t-13 32t13 32t32 13t32 -13t13 -32zM256 405q0 -19 -13 -32.5t-32 -13.5t-32.5 13.5t-13.5 32.5t13.5 32t32.5 13t32 -13t13 -32zM139 518q0 -19 -13.5 -32t-32.5 -13t-32 13t-13 32t13 32t32 13t32.5 -13
t13.5 -32zM489 65q0 -19 -13.5 -32t-32.5 -13t-32 13t-13 32t13 32.5t32 13.5t32.5 -13.5t13.5 -32.5zM372 180q0 -19 -13 -32t-32 -13t-32 13t-13 32t13 32t32 13t32 -13t13 -32zM230 291q0 -18 -18 -18t-18 18t18 18t18 -18zM126 405q0 -32 -31 -32q-13 0 -22.5 9.5
t-9.5 22.5q0 31 32 31q31 0 31 -31zM258 178q0 -19 -13 -32t-32 -13t-32 13t-13 32t13 32t32 13t32 -13t13 -32zM260 64q0 -19 -13.5 -32t-32.5 -13t-32 13t-13 32t13 32.5t32 13.5t32.5 -13.5t13.5 -32.5zM129 178q0 -13 -9.5 -22.5t-22.5 -9.5t-22.5 9.5t-9.5 22.5
q0 31 32 31t32 -31zM144 64q0 -19 -13.5 -32t-32.5 -13t-32 13t-13 32t13 32.5t32 13.5t32.5 -13.5t13.5 -32.5z" />
    <glyph glyph-name="y" unicode="y" horiz-adv-x="717" 
d="M600 519q0 -19 -13.5 -32t-32.5 -13t-32 13t-13 32t13 32t32 13t32.5 -13t13.5 -32zM601 406q0 -19 -13.5 -32.5t-31.5 -13.5q-19 0 -32.5 13.5t-13.5 32.5t13.5 32t32.5 13t32 -13t13 -32zM484 519q0 -19 -13.5 -32t-32.5 -13t-32 13t-13 32t13 32t32 13t32.5 -13
t13.5 -32zM602 292q0 -19 -13 -32t-32 -13t-32 13t-13 32t13 32t32 13t32 -13t13 -32zM485 406q0 -19 -13.5 -32.5t-31.5 -13.5q-19 0 -32.5 13.5t-13.5 32.5t13.5 32t32.5 13t32 -13t13 -32zM603 179q0 -19 -13 -32t-32 -13t-32 13t-13 32t13 32t32 13t32 -13t13 -32z
M486 292q0 -19 -13 -32t-32 -13t-32 13t-13 32t13 32t32 13t32 -13t13 -32zM255 518q0 -19 -13.5 -32t-32.5 -13t-32 13t-13 32t13 32t32 13t32.5 -13t13.5 -32zM577 65q0 -18 -18 -18t-18 18t18 18t18 -18zM487 179q0 -19 -13 -32t-32 -13t-32 13t-13 32t13 32t32 13
t32 -13t13 -32zM371 293q0 -19 -13 -32t-32 -13t-32 13t-13 32t13 32t32 13t32 -13t13 -32zM256 405q0 -19 -13 -32.5t-32 -13.5t-32.5 13.5t-13.5 32.5t13.5 32t32.5 13t32 -13t13 -32zM139 518q0 -19 -13.5 -32t-32.5 -13t-32 13t-13 32t13 32t32 13t32.5 -13t13.5 -32z
M489 65q0 -19 -13.5 -32t-32.5 -13t-32 13t-13 32t13 32.5t32 13.5t32.5 -13.5t13.5 -32.5zM257 291q0 -19 -13 -32t-32 -13t-32 13t-13 32t13 32t32 13t32 -13t13 -32zM140 405q0 -19 -13 -32.5t-32 -13.5t-32.5 13.5t-13.5 32.5t13.5 32t32.5 13t32 -13t13 -32zM374 66
q0 -19 -13.5 -32t-32.5 -13t-32 13t-13 32t13 32.5t32 13.5t32.5 -13.5t13.5 -32.5zM127 291q0 -31 -31 -31q-32 0 -32 31q0 13 9.5 22.5t22.5 9.5q31 0 31 -32zM260 64q0 -19 -13.5 -32t-32.5 -13t-32 13t-13 32t13 32.5t32 13.5t32.5 -13.5t13.5 -32.5zM144 64
q0 -19 -13.5 -32t-32.5 -13t-32 13t-13 32t13 32.5t32 13.5t32.5 -13.5t13.5 -32.5z" />
    <glyph glyph-name="z" unicode="z" horiz-adv-x="593" 
d="M484 519q0 -19 -13.5 -32t-32.5 -13t-32 13t-13 32t13 32t32 13t32.5 -13t13.5 -32zM485 406q0 -19 -13.5 -32.5t-31.5 -13.5q-19 0 -32.5 13.5t-13.5 32.5t13.5 32t32.5 13t32 -13t13 -32zM369 520q0 -19 -13.5 -32t-32.5 -13t-32 13t-13 32t13 32t32 13t32.5 -13
t13.5 -32zM357 406q0 -31 -31 -31q-32 0 -32 31q0 13 9.5 22.5t22.5 9.5q31 0 31 -32zM255 518q0 -19 -13.5 -32t-32.5 -13t-32 13t-13 32t13 32t32 13t32.5 -13t13.5 -32zM371 293q0 -19 -13 -32t-32 -13t-32 13t-13 32t13 32t32 13t32 -13t13 -32zM139 518
q0 -19 -13.5 -32t-32.5 -13t-32 13t-13 32t13 32t32 13t32.5 -13t13.5 -32zM489 65q0 -19 -13.5 -32t-32.5 -13t-32 13t-13 32t13 32.5t32 13.5t32.5 -13.5t13.5 -32.5zM245 291q0 -13 -9.5 -22.5t-22.5 -9.5t-22.5 9.5t-9.5 22.5q0 31 32 31t32 -31zM374 66
q0 -19 -13.5 -32t-32.5 -13t-32 13t-13 32t13 32.5t32 13.5t32.5 -13.5t13.5 -32.5zM258 178q0 -19 -13 -32t-32 -13t-32 13t-13 32t13 32t32 13t32 -13t13 -32zM260 64q0 -19 -13.5 -32t-32.5 -13t-32 13t-13 32t13 32.5t32 13.5t32.5 -13.5t13.5 -32.5zM130 177
q0 -31 -32 -31q-31 0 -31 31q0 32 31 32q13 0 22.5 -9.5t9.5 -22.5zM144 64q0 -19 -13.5 -32t-32.5 -13t-32 13t-13 32t13 32.5t32 13.5t32.5 -13.5t13.5 -32.5z" />
    <glyph glyph-name="braceleft" unicode="{" horiz-adv-x="593" 
d="M483 739q0 -19 -13.5 -32t-32.5 -13t-32 13t-13 32t13 32t32 13t32.5 -13t13.5 -32zM368 740q0 -19 -13.5 -32t-32.5 -13t-32 13t-13 32t13 32t32 13t32.5 -13t13.5 -32zM367 634q0 -19 -13 -32.5t-32 -13.5t-32 13.5t-13 32.5t13 32t32 13t32 -13t13 -32zM226 738
q0 -18 -18 -18t-18 18t18 18t18 -18zM369 520q0 -19 -13.5 -32t-32.5 -13t-32 13t-13 32t13 32t32 13t32.5 -13t13.5 -32zM253 632q0 -19 -13 -32.5t-32 -13.5t-32 13.5t-13 32.5t13 32t32 13t32 -13t13 -32zM343 407q0 -18 -18 -18t-18 18t18 18t18 -18zM255 518
q0 -19 -13.5 -32t-32.5 -13t-32 13t-13 32t13 32t32 13t32.5 -13t13.5 -32zM371 293q0 -19 -13 -32t-32 -13t-32 13t-13 32t13 32t32 13t32 -13t13 -32zM256 405q0 -19 -13 -32.5t-32 -13.5t-32.5 13.5t-13.5 32.5t13.5 32t32.5 13t32 -13t13 -32zM489 65q0 -19 -13.5 -32
t-32.5 -13t-32 13t-13 32t13 32.5t32 13.5t32.5 -13.5t13.5 -32.5zM372 180q0 -19 -13 -32t-32 -13t-32 13t-13 32t13 32t32 13t32 -13t13 -32zM257 291q0 -19 -13 -32t-32 -13t-32 13t-13 32t13 32t32 13t32 -13t13 -32zM140 405q0 -19 -13 -32.5t-32 -13.5t-32.5 13.5
t-13.5 32.5t13.5 32t32.5 13t32 -13t13 -32zM374 66q0 -19 -13.5 -32t-32.5 -13t-32 13t-13 32t13 32.5t32 13.5t32.5 -13.5t13.5 -32.5zM258 178q0 -19 -13 -32t-32 -13t-32 13t-13 32t13 32t32 13t32 -13t13 -32zM232 64q0 -18 -18 -18t-18 18t18 18t18 -18zM437 678z" />
    <glyph glyph-name="bar" unicode="|" horiz-adv-x="379" 
d="M254 738q0 -19 -13.5 -32t-32.5 -13t-32 13t-13 32t13 32t32 13t32.5 -13t13.5 -32zM253 632q0 -19 -13 -32.5t-32 -13.5t-32 13.5t-13 32.5t13 32t32 13t32 -13t13 -32zM138 738q0 -19 -13.5 -32t-32.5 -13t-32 13t-13 32t13 32t32 13t32.5 -13t13.5 -32zM255 518
q0 -19 -13.5 -32t-32.5 -13t-32 13t-13 32t13 32t32 13t32.5 -13t13.5 -32zM137 632q0 -19 -13 -32.5t-32 -13.5t-32 13.5t-13 32.5t13 32t32 13t32 -13t13 -32zM139 518q0 -19 -13.5 -32t-32.5 -13t-32 13t-13 32t13 32t32 13t32.5 -13t13.5 -32zM257 291q0 -19 -13 -32
t-32 -13t-32 13t-13 32t13 32t32 13t32 -13t13 -32zM258 178q0 -19 -13 -32t-32 -13t-32 13t-13 32t13 32t32 13t32 -13t13 -32zM141 291q0 -19 -13 -32t-32 -13t-32 13t-13 32t13 32t32 13t32 -13t13 -32zM260 64q0 -19 -13.5 -32t-32.5 -13t-32 13t-13 32t13 32.5t32 13.5
t32.5 -13.5t13.5 -32.5zM142 178q0 -19 -13 -32t-32 -13t-32 13t-13 32t13 32t32 13t32 -13t13 -32zM144 64q0 -19 -13.5 -32t-32.5 -13t-32 13t-13 32t13 32.5t32 13.5t32.5 -13.5t13.5 -32.5z" />
    <glyph glyph-name="braceright" unicode="}" horiz-adv-x="585" 
d="M340 740q0 -18 -18 -18t-18 18t18 18t18 -18zM367 634q0 -19 -13 -32.5t-32 -13.5t-32 13.5t-13 32.5t13 32t32 13t32 -13t13 -32zM254 738q0 -19 -13.5 -32t-32.5 -13t-32 13t-13 32t13 32t32 13t32.5 -13t13.5 -32zM485 406q0 -19 -13.5 -32.5t-31.5 -13.5
q-19 0 -32.5 13.5t-13.5 32.5t13.5 32t32.5 13t32 -13t13 -32zM369 520q0 -19 -13.5 -32t-32.5 -13t-32 13t-13 32t13 32t32 13t32.5 -13t13.5 -32zM253 632q0 -19 -13 -32.5t-32 -13.5t-32 13.5t-13 32.5t13 32t32 13t32 -13t13 -32zM138 738q0 -19 -13.5 -32t-32.5 -13
t-32 13t-13 32t13 32t32 13t32.5 -13t13.5 -32zM370 407q0 -19 -13 -32.5t-32 -13.5t-32.5 13.5t-13.5 32.5t13.5 32t32.5 13t32 -13t13 -32zM255 518q0 -19 -13.5 -32t-32.5 -13t-32 13t-13 32t13 32t32 13t32.5 -13t13.5 -32zM371 293q0 -19 -13 -32t-32 -13t-32 13
t-13 32t13 32t32 13t32 -13t13 -32zM229 405q0 -18 -18 -18t-18 18t18 18t18 -18zM372 180q0 -19 -13 -32t-32 -13t-32 13t-13 32t13 32t32 13t32 -13t13 -32zM257 291q0 -19 -13 -32t-32 -13t-32 13t-13 32t13 32t32 13t32 -13t13 -32zM346 66q0 -18 -18 -18t-18 18t18 18
t18 -18zM258 178q0 -19 -13 -32t-32 -13t-32 13t-13 32t13 32t32 13t32 -13t13 -32zM260 64q0 -19 -13.5 -32t-32.5 -13t-32 13t-13 32t13 32.5t32 13.5t32.5 -13.5t13.5 -32.5zM144 64q0 -19 -13.5 -32t-32.5 -13t-32 13t-13 32t13 32.5t32 13.5t32.5 -13.5t13.5 -32.5z
" />
    <glyph glyph-name="asciitilde" unicode="~" horiz-adv-x="1063" 
d="M942 741q0 -18 -13.5 -31.5t-32.5 -13.5q-18 0 -31.5 13.5t-13.5 31.5q0 19 13.5 32t31.5 13q19 0 32.5 -13t13.5 -32zM941 635q0 -18 -13 -32t-32 -14q-18 0 -31.5 14t-13.5 32q0 19 13.5 32t31.5 13q19 0 32 -13t13 -32zM826 741q0 -18 -13.5 -31.5t-32.5 -13.5
q-18 0 -31.5 13.5t-13.5 31.5q0 19 13.5 32t31.5 13q19 0 32.5 -13t13.5 -32zM825 635q0 -18 -13 -32t-32 -14q-18 0 -31.5 14t-13.5 32q0 19 13.5 32t31.5 13q19 0 32 -13t13 -32zM813 521q0 -13 -9 -22.5t-23 -9.5q-31 0 -31 32t31 32q14 0 23 -9t9 -23zM685 635
q0 -18 -18 -18t-18 18t18 18t18 -18zM571 739q0 -18 -18 -18t-18 18t18 18t18 -18zM714 521q0 -19 -13.5 -32t-32.5 -13t-32 13t-13 32t13 32t32 13t32.5 -13t13.5 -32zM598 633q0 -19 -13.5 -32.5t-31.5 -13.5q-19 0 -32 13.5t-13 32.5t13 32t32 13t32 -13t13 -32zM483 739
q0 -19 -13.5 -32t-32.5 -13t-32 13t-13 32t13 32t32 13t32.5 -13t13.5 -32zM600 519q0 -19 -13.5 -32t-32.5 -13t-32 13t-13 32t13 32t32 13t32.5 -13t13.5 -32zM482 633q0 -19 -13.5 -32.5t-31.5 -13.5q-19 0 -32 13.5t-13 32.5t13 32t32 13t32 -13t13 -32zM368 740
q0 -19 -13.5 -32t-32.5 -13t-32 13t-13 32t13 32t32 13t32.5 -13t13.5 -32zM456 519q0 -18 -18 -18t-18 18t18 18t18 -18zM340 634q0 -18 -18 -18t-18 18t18 18t18 -18zM240 738q0 -13 -9.5 -22.5t-22.5 -9.5q-31 0 -31 32t31 32q13 0 22.5 -9.5t9.5 -22.5zM253 632
q0 -19 -13 -32.5t-32 -13.5t-32 13.5t-13 32.5t13 32t32 13t32 -13t13 -32zM255 518q0 -19 -13.5 -32t-32.5 -13t-32 13t-13 32t13 32t32 13t32.5 -13t13.5 -32zM137 632q0 -19 -13 -32.5t-32 -13.5t-32 13.5t-13 32.5t13 32t32 13t32 -13t13 -32zM139 518q0 -19 -13.5 -32
t-32.5 -13t-32 13t-13 32t13 32t32 13t32.5 -13t13.5 -32z" />
    <glyph glyph-name="exclamdown" unicode="&#xa1;" horiz-adv-x="391" 
d="M71 64q0 19 13.5 32t32.5 13t32 -13t13 -32t-13 -32t-32 -13t-32.5 13t-13.5 32zM72 170q0 19 13 32.5t32 13.5t32 -13.5t13 -32.5t-13 -32t-32 -13t-32 13t-13 32zM201 64q0 13 9.5 22.5t22.5 9.5q31 0 31 -32t-31 -32q-13 0 -22.5 9.5t-9.5 22.5zM70 284q0 19 13.5 32
t32.5 13t32 -13t13 -32t-13 -32t-32 -13t-32.5 13t-13.5 32zM188 170q0 19 13 32.5t32 13.5t32 -13.5t13 -32.5t-13 -32t-32 -13t-32 13t-13 32zM69 397q0 19 13 32.5t32 13.5t32.5 -13.5t13.5 -32.5t-13.5 -32t-32.5 -13t-32 13t-13 32zM186 284q0 19 13.5 32t32.5 13
t32 -13t13 -32t-13 -32t-32 -13t-32.5 13t-13.5 32zM199 397q0 32 31 32q13 0 22.5 -9.5t9.5 -22.5q0 -31 -32 -31q-31 0 -31 31zM67 624q0 19 13 32t32 13t32 -13t13 -32t-13 -32t-32 -13t-32 13t-13 32zM65 738q0 19 13.5 32t32.5 13t32 -13t13 -32t-13 -32.5t-32 -13.5
t-32.5 13.5t-13.5 32.5zM183 624q0 19 13 32t32 13t32 -13t13 -32t-13 -32t-32 -13t-32 13t-13 32zM181 738q0 19 13.5 32t32.5 13t32 -13t13 -32t-13 -32.5t-32 -13.5t-32.5 13.5t-13.5 32.5zM48 168zM47 282z" />
    <glyph glyph-name="cent" unicode="&#xa2;" horiz-adv-x="1181" 
d="M1056 743q0 -18 -13.5 -31.5t-32.5 -13.5q-18 0 -31.5 13.5t-13.5 31.5q0 19 13.5 32t31.5 13q19 0 32.5 -13t13.5 -32zM1042 743q0 14 -9 23t-23 9q-31 0 -31 -32t31 -32q14 0 23 9.5t9 22.5zM1028 743q0 -18 -18 -18t-18 18t18 18t18 -18zM1055 637q0 -18 -13 -32
t-32 -14q-18 0 -31.5 14t-13.5 32q0 19 13.5 32t31.5 13q19 0 32 -13t13 -32zM1042 637q0 31 -32 31t-32 -31q0 -13 9.5 -22.5t22.5 -9.5q14 0 23 9.5t9 22.5zM1028 637q0 -18 -18 -18t-18 18t18 18t18 -18zM942 741q0 -18 -13.5 -31.5t-32.5 -13.5q-18 0 -31.5 13.5
t-13.5 31.5q0 19 13.5 32t31.5 13q19 0 32.5 -13t13.5 -32zM928 741q0 14 -9 23t-23 9q-31 0 -31 -32t31 -32q14 0 23 9.5t9 22.5zM914 741q0 -18 -18 -18t-18 18t18 18t18 -18zM1057 523q0 -18 -13.5 -31.5t-32.5 -13.5q-18 0 -31.5 13.5t-13.5 31.5q0 19 13.5 32t31.5 13
q19 0 32.5 -13t13.5 -32zM1043 523q0 14 -9 23t-23 9q-31 0 -31 -32t31 -32q14 0 23 9.5t9 22.5zM1029 523q0 -18 -18 -18t-18 18t18 18t18 -18zM941 635q0 -18 -13 -32t-32 -14q-18 0 -31.5 14t-13.5 32q0 19 13.5 32t31.5 13q19 0 32 -13t13 -32zM928 635q0 31 -32 31
t-32 -31q0 -13 9.5 -22.5t22.5 -9.5q14 0 23 9.5t9 22.5zM914 635q0 -18 -18 -18t-18 18t18 18t18 -18zM826 741q0 -18 -13.5 -31.5t-32.5 -13.5q-18 0 -31.5 13.5t-13.5 31.5q0 19 13.5 32t31.5 13q19 0 32.5 -13t13.5 -32zM812 741q0 14 -9 23t-23 9q-31 0 -31 -32t31 -32
q14 0 23 9.5t9 22.5zM798 741q0 -18 -18 -18t-18 18t18 18t18 -18zM1058 410q0 -18 -13 -32t-32 -14q-18 0 -32 14t-14 32q0 19 14 32t32 13q19 0 32 -13t13 -32zM1044 410q0 31 -31 31q-32 0 -32 -31q0 -13 9.5 -22.5t22.5 -9.5q31 0 31 32zM1031 410q0 -18 -18 -18t-18 18
t18 18t18 -18zM943 521q0 -18 -13.5 -31.5t-32.5 -13.5q-18 0 -31.5 13.5t-13.5 31.5q0 19 13.5 32t31.5 13q19 0 32.5 -13t13.5 -32zM929 521q0 14 -9 23t-23 9q-31 0 -31 -32t31 -32q14 0 23 9.5t9 22.5zM915 521q0 -18 -18 -18t-18 18t18 18t18 -18zM825 635
q0 -18 -13 -32t-32 -14q-18 0 -31.5 14t-13.5 32q0 19 13.5 32t31.5 13q19 0 32 -13t13 -32zM812 635q0 31 -32 31t-32 -31q0 -13 9.5 -22.5t22.5 -9.5q14 0 23 9.5t9 22.5zM798 635q0 -18 -18 -18t-18 18t18 18t18 -18zM713 741q0 -19 -13.5 -32t-32.5 -13t-32 13t-13 32
t13 32t32 13t32.5 -13t13.5 -32zM699 741q0 13 -9.5 22.5t-22.5 9.5q-31 0 -31 -32t31 -32q13 0 22.5 9.5t9.5 22.5zM685 741q0 -18 -18 -18t-18 18t18 18t18 -18zM1059 296q0 -18 -13 -31.5t-32 -13.5q-18 0 -31.5 13.5t-13.5 31.5q0 19 13.5 32t31.5 13q19 0 32 -13
t13 -32zM1045 296q0 32 -31 32q-13 0 -22.5 -9t-9.5 -23q0 -31 32 -31q31 0 31 31zM1032 296q0 -18 -18 -18t-18 18t18 18t18 -18zM944 408q0 -18 -13 -32t-32 -14q-18 0 -32 14t-14 32q0 19 14 32t32 13q19 0 32 -13t13 -32zM930 408q0 31 -31 31q-32 0 -32 -31
q0 -13 9.5 -22.5t22.5 -9.5q31 0 31 32zM917 408q0 -18 -18 -18t-18 18t18 18t18 -18zM827 521q0 -18 -13.5 -31.5t-32.5 -13.5q-18 0 -31.5 13.5t-13.5 31.5q0 19 13.5 32t31.5 13q19 0 32.5 -13t13.5 -32zM813 521q0 14 -9 23t-23 9q-31 0 -31 -32t31 -32q14 0 23 9.5
t9 22.5zM799 521q0 -18 -18 -18t-18 18t18 18t18 -18zM712 635q0 -19 -13.5 -32.5t-31.5 -13.5q-19 0 -32 13.5t-13 32.5t13 32t32 13t32 -13t13 -32zM699 635q0 31 -32 31t-32 -31q0 -13 9.5 -22.5t22.5 -9.5t22.5 9.5t9.5 22.5zM685 635q0 -18 -18 -18t-18 18t18 18
t18 -18zM599 739q0 -19 -13.5 -32t-32.5 -13t-32 13t-13 32t13 32t32 13t32.5 -13t13.5 -32zM585 739q0 13 -9.5 22.5t-22.5 9.5q-31 0 -31 -32t31 -32q13 0 22.5 9.5t9.5 22.5zM571 739q0 -18 -18 -18t-18 18t18 18t18 -18zM1060 183q0 -18 -13 -31.5t-32 -13.5
q-18 0 -31.5 13.5t-13.5 31.5q0 19 13.5 32t31.5 13q19 0 32 -13t13 -32zM1047 183q0 31 -32 31t-32 -31q0 -13 9.5 -22.5t22.5 -9.5q14 0 23 9.5t9 22.5zM1033 183q0 -18 -18 -18t-18 18t18 18t18 -18zM945 294q0 -18 -13 -31.5t-32 -13.5q-18 0 -31.5 13.5t-13.5 31.5
q0 19 13.5 32t31.5 13q19 0 32 -13t13 -32zM931 294q0 32 -31 32q-13 0 -22.5 -9t-9.5 -23q0 -31 32 -31q31 0 31 31zM918 294q0 -18 -18 -18t-18 18t18 18t18 -18zM828 408q0 -18 -13 -32t-32 -14q-18 0 -32 14t-14 32q0 19 14 32t32 13q19 0 32 -13t13 -32zM814 408
q0 31 -31 31q-32 0 -32 -31q0 -13 9.5 -22.5t22.5 -9.5q31 0 31 32zM801 408q0 -18 -18 -18t-18 18t18 18t18 -18zM714 521q0 -19 -13.5 -32t-32.5 -13t-32 13t-13 32t13 32t32 13t32.5 -13t13.5 -32zM700 521q0 13 -9.5 22.5t-22.5 9.5q-31 0 -31 -32t31 -32q13 0 22.5 9.5
t9.5 22.5zM686 521q0 -18 -18 -18t-18 18t18 18t18 -18zM598 633q0 -19 -13.5 -32.5t-31.5 -13.5q-19 0 -32 13.5t-13 32.5t13 32t32 13t32 -13t13 -32zM585 633q0 31 -32 31t-32 -31q0 -13 9.5 -22.5t22.5 -9.5t22.5 9.5t9.5 22.5zM571 633q0 -18 -18 -18t-18 18t18 18
t18 -18zM483 739q0 -19 -13.5 -32t-32.5 -13t-32 13t-13 32t13 32t32 13t32.5 -13t13.5 -32zM469 739q0 13 -9.5 22.5t-22.5 9.5q-31 0 -31 -32t31 -32q13 0 22.5 9.5t9.5 22.5zM455 739q0 -18 -18 -18t-18 18t18 18t18 -18zM1062 69q0 -18 -13.5 -31.5t-32.5 -13.5
q-18 0 -31.5 13.5t-13.5 31.5q0 19 13.5 32.5t31.5 13.5q19 0 32.5 -13.5t13.5 -32.5zM1048 69q0 14 -9 23t-23 9q-31 0 -31 -32q0 -31 31 -31q32 0 32 31zM1034 69q0 -18 -18 -18t-18 18t18 18t18 -18zM946 181q0 -18 -13 -31.5t-32 -13.5q-18 0 -31.5 13.5t-13.5 31.5
q0 19 13.5 32t31.5 13q19 0 32 -13t13 -32zM933 181q0 31 -32 31t-32 -31q0 -13 9.5 -22.5t22.5 -9.5q14 0 23 9.5t9 22.5zM919 181q0 -18 -18 -18t-18 18t18 18t18 -18zM829 294q0 -18 -13 -31.5t-32 -13.5q-18 0 -31.5 13.5t-13.5 31.5q0 19 13.5 32t31.5 13q19 0 32 -13
t13 -32zM815 294q0 32 -31 32q-13 0 -22.5 -9t-9.5 -23q0 -31 32 -31q31 0 31 31zM802 294q0 -18 -18 -18t-18 18t18 18t18 -18zM715 408q0 -19 -13.5 -32.5t-31.5 -13.5q-19 0 -32.5 13.5t-13.5 32.5t13.5 32t32.5 13t32 -13t13 -32zM701 408q0 31 -31 31q-32 0 -32 -31
q0 -13 9.5 -22.5t22.5 -9.5q31 0 31 32zM688 408q0 -18 -18 -18t-18 18t18 18t18 -18zM600 519q0 -19 -13.5 -32t-32.5 -13t-32 13t-13 32t13 32t32 13t32.5 -13t13.5 -32zM586 519q0 13 -9.5 22.5t-22.5 9.5q-31 0 -31 -32t31 -32q13 0 22.5 9.5t9.5 22.5zM572 519
q0 -18 -18 -18t-18 18t18 18t18 -18zM482 633q0 -19 -13.5 -32.5t-31.5 -13.5q-19 0 -32 13.5t-13 32.5t13 32t32 13t32 -13t13 -32zM469 633q0 31 -32 31t-32 -31q0 -13 9.5 -22.5t22.5 -9.5t22.5 9.5t9.5 22.5zM455 633q0 -18 -18 -18t-18 18t18 18t18 -18zM368 740
q0 -19 -13.5 -32t-32.5 -13t-32 13t-13 32t13 32t32 13t32.5 -13t13.5 -32zM354 740q0 13 -9.5 22.5t-22.5 9.5q-31 0 -31 -32t31 -32q13 0 22.5 9.5t9.5 22.5zM340 740q0 -18 -18 -18t-18 18t18 18t18 -18zM948 67q0 -18 -13.5 -31.5t-32.5 -13.5q-18 0 -31.5 13.5
t-13.5 31.5q0 19 13.5 32.5t31.5 13.5q19 0 32.5 -13.5t13.5 -32.5zM934 67q0 14 -9 23t-23 9q-31 0 -31 -32q0 -31 31 -31q32 0 32 31zM920 67q0 -18 -18 -18t-18 18t18 18t18 -18zM830 181q0 -18 -13 -31.5t-32 -13.5q-18 0 -31.5 13.5t-13.5 31.5q0 19 13.5 32t31.5 13
q19 0 32 -13t13 -32zM817 181q0 31 -32 31t-32 -31q0 -13 9.5 -22.5t22.5 -9.5q14 0 23 9.5t9 22.5zM803 181q0 -18 -18 -18t-18 18t18 18t18 -18zM716 294q0 -19 -13 -32t-32 -13t-32 13t-13 32t13 32t32 13t32 -13t13 -32zM702 294q0 32 -31 32q-13 0 -22.5 -9.5
t-9.5 -22.5q0 -31 32 -31q31 0 31 31zM689 294q0 -18 -18 -18t-18 18t18 18t18 -18zM601 406q0 -19 -13.5 -32.5t-31.5 -13.5q-19 0 -32.5 13.5t-13.5 32.5t13.5 32t32.5 13t32 -13t13 -32zM587 406q0 31 -31 31q-32 0 -32 -31q0 -13 9.5 -22.5t22.5 -9.5q31 0 31 32z
M574 406q0 -18 -18 -18t-18 18t18 18t18 -18zM484 519q0 -19 -13.5 -32t-32.5 -13t-32 13t-13 32t13 32t32 13t32.5 -13t13.5 -32zM470 519q0 13 -9.5 22.5t-22.5 9.5q-31 0 -31 -32t31 -32q13 0 22.5 9.5t9.5 22.5zM456 519q0 -18 -18 -18t-18 18t18 18t18 -18zM367 634
q0 -19 -13 -32.5t-32 -13.5t-32 13.5t-13 32.5t13 32t32 13t32 -13t13 -32zM354 634q0 31 -32 31t-32 -31q0 -13 9.5 -22.5t22.5 -9.5t22.5 9.5t9.5 22.5zM340 634q0 -18 -18 -18t-18 18t18 18t18 -18zM254 738q0 -19 -13.5 -32t-32.5 -13t-32 13t-13 32t13 32t32 13
t32.5 -13t13.5 -32zM240 738q0 13 -9.5 22.5t-22.5 9.5q-31 0 -31 -32t31 -32q13 0 22.5 9.5t9.5 22.5zM226 738q0 -18 -18 -18t-18 18t18 18t18 -18zM832 67q0 -18 -13.5 -31.5t-32.5 -13.5q-18 0 -31.5 13.5t-13.5 31.5q0 19 13.5 32.5t31.5 13.5q19 0 32.5 -13.5
t13.5 -32.5zM818 67q0 14 -9 23t-23 9q-31 0 -31 -32q0 -31 31 -31q32 0 32 31zM804 67q0 -18 -18 -18t-18 18t18 18t18 -18zM717 181q0 -19 -13 -32t-32 -13t-32 13t-13 32t13 32t32 13t32 -13t13 -32zM704 181q0 31 -32 31t-32 -31q0 -13 9.5 -22.5t22.5 -9.5t22.5 9.5
t9.5 22.5zM690 181q0 -18 -18 -18t-18 18t18 18t18 -18zM602 292q0 -19 -13 -32t-32 -13t-32 13t-13 32t13 32t32 13t32 -13t13 -32zM588 292q0 32 -31 32q-13 0 -22.5 -9.5t-9.5 -22.5q0 -31 32 -31q31 0 31 31zM575 292q0 -18 -18 -18t-18 18t18 18t18 -18zM485 406
q0 -19 -13.5 -32.5t-31.5 -13.5q-19 0 -32.5 13.5t-13.5 32.5t13.5 32t32.5 13t32 -13t13 -32zM471 406q0 31 -31 31q-32 0 -32 -31q0 -13 9.5 -22.5t22.5 -9.5q31 0 31 32zM458 406q0 -18 -18 -18t-18 18t18 18t18 -18zM369 520q0 -19 -13.5 -32t-32.5 -13t-32 13t-13 32
t13 32t32 13t32.5 -13t13.5 -32zM355 520q0 13 -9.5 22.5t-22.5 9.5q-31 0 -31 -32t31 -32q13 0 22.5 9.5t9.5 22.5zM341 520q0 -18 -18 -18t-18 18t18 18t18 -18zM253 632q0 -19 -13 -32.5t-32 -13.5t-32 13.5t-13 32.5t13 32t32 13t32 -13t13 -32zM240 632q0 31 -32 31
t-32 -31q0 -13 9.5 -22.5t22.5 -9.5t22.5 9.5t9.5 22.5zM226 632q0 -18 -18 -18t-18 18t18 18t18 -18zM138 738q0 -19 -13.5 -32t-32.5 -13t-32 13t-13 32t13 32t32 13t32.5 -13t13.5 -32zM124 738q0 13 -9.5 22.5t-22.5 9.5q-31 0 -31 -32t31 -32q13 0 22.5 9.5t9.5 22.5z
M110 738q0 -18 -18 -18t-18 18t18 18t18 -18zM719 67q0 -19 -13.5 -32t-32.5 -13t-32 13t-13 32t13 32.5t32 13.5t32.5 -13.5t13.5 -32.5zM705 67q0 13 -9.5 22.5t-22.5 9.5q-31 0 -31 -32q0 -31 31 -31q32 0 32 31zM691 67q0 -18 -18 -18t-18 18t18 18t18 -18zM603 179
q0 -19 -13 -32t-32 -13t-32 13t-13 32t13 32t32 13t32 -13t13 -32zM590 179q0 31 -32 31t-32 -31q0 -13 9.5 -22.5t22.5 -9.5t22.5 9.5t9.5 22.5zM576 179q0 -18 -18 -18t-18 18t18 18t18 -18zM486 292q0 -19 -13 -32t-32 -13t-32 13t-13 32t13 32t32 13t32 -13t13 -32z
M472 292q0 32 -31 32q-13 0 -22.5 -9.5t-9.5 -22.5q0 -31 32 -31q31 0 31 31zM459 292q0 -18 -18 -18t-18 18t18 18t18 -18zM370 407q0 -19 -13 -32.5t-32 -13.5t-32.5 13.5t-13.5 32.5t13.5 32t32.5 13t32 -13t13 -32zM356 407q0 31 -31 31q-32 0 -32 -31q0 -13 9.5 -22.5
t22.5 -9.5q31 0 31 32zM343 407q0 -18 -18 -18t-18 18t18 18t18 -18zM255 518q0 -19 -13.5 -32t-32.5 -13t-32 13t-13 32t13 32t32 13t32.5 -13t13.5 -32zM241 518q0 13 -9.5 22.5t-22.5 9.5q-31 0 -31 -32t31 -32q13 0 22.5 9.5t9.5 22.5zM227 518q0 -18 -18 -18t-18 18
t18 18t18 -18zM137 632q0 -19 -13 -32.5t-32 -13.5t-32 13.5t-13 32.5t13 32t32 13t32 -13t13 -32zM124 632q0 31 -32 31t-32 -31q0 -13 9.5 -22.5t22.5 -9.5t22.5 9.5t9.5 22.5zM110 632q0 -18 -18 -18t-18 18t18 18t18 -18zM605 65q0 -19 -13.5 -32t-32.5 -13t-32 13
t-13 32t13 32.5t32 13.5t32.5 -13.5t13.5 -32.5zM591 65q0 13 -9.5 22.5t-22.5 9.5q-31 0 -31 -32q0 -31 31 -31q32 0 32 31zM577 65q0 -18 -18 -18t-18 18t18 18t18 -18zM487 179q0 -19 -13 -32t-32 -13t-32 13t-13 32t13 32t32 13t32 -13t13 -32zM474 179q0 31 -32 31
t-32 -31q0 -13 9.5 -22.5t22.5 -9.5t22.5 9.5t9.5 22.5zM460 179q0 -18 -18 -18t-18 18t18 18t18 -18zM371 293q0 -19 -13 -32t-32 -13t-32 13t-13 32t13 32t32 13t32 -13t13 -32zM357 293q0 32 -31 32q-13 0 -22.5 -9.5t-9.5 -22.5q0 -31 32 -31q31 0 31 31zM344 293
q0 -18 -18 -18t-18 18t18 18t18 -18zM256 405q0 -19 -13 -32.5t-32 -13.5t-32.5 13.5t-13.5 32.5t13.5 32t32.5 13t32 -13t13 -32zM242 405q0 31 -31 31q-32 0 -32 -31q0 -13 9.5 -22.5t22.5 -9.5q31 0 31 32zM229 405q0 -18 -18 -18t-18 18t18 18t18 -18zM139 518
q0 -19 -13.5 -32t-32.5 -13t-32 13t-13 32t13 32t32 13t32.5 -13t13.5 -32zM125 518q0 13 -9.5 22.5t-22.5 9.5q-31 0 -31 -32t31 -32q13 0 22.5 9.5t9.5 22.5zM111 518q0 -18 -18 -18t-18 18t18 18t18 -18zM489 65q0 -19 -13.5 -32t-32.5 -13t-32 13t-13 32t13 32.5
t32 13.5t32.5 -13.5t13.5 -32.5zM475 65q0 13 -9.5 22.5t-22.5 9.5q-31 0 -31 -32q0 -31 31 -31q32 0 32 31zM461 65q0 -18 -18 -18t-18 18t18 18t18 -18zM372 180q0 -19 -13 -32t-32 -13t-32 13t-13 32t13 32t32 13t32 -13t13 -32zM359 180q0 31 -32 31t-32 -31
q0 -13 9.5 -22.5t22.5 -9.5t22.5 9.5t9.5 22.5zM345 180q0 -18 -18 -18t-18 18t18 18t18 -18zM257 291q0 -19 -13 -32t-32 -13t-32 13t-13 32t13 32t32 13t32 -13t13 -32zM243 291q0 32 -31 32q-13 0 -22.5 -9.5t-9.5 -22.5q0 -31 32 -31q31 0 31 31zM230 291q0 -18 -18 -18
t-18 18t18 18t18 -18zM140 405q0 -19 -13 -32.5t-32 -13.5t-32.5 13.5t-13.5 32.5t13.5 32t32.5 13t32 -13t13 -32zM126 405q0 31 -31 31q-32 0 -32 -31q0 -13 9.5 -22.5t22.5 -9.5q31 0 31 32zM113 405q0 -18 -18 -18t-18 18t18 18t18 -18zM374 66q0 -19 -13.5 -32
t-32.5 -13t-32 13t-13 32t13 32.5t32 13.5t32.5 -13.5t13.5 -32.5zM360 66q0 13 -9.5 22.5t-22.5 9.5q-31 0 -31 -32q0 -31 31 -31q32 0 32 31zM346 66q0 -18 -18 -18t-18 18t18 18t18 -18zM258 178q0 -19 -13 -32t-32 -13t-32 13t-13 32t13 32t32 13t32 -13t13 -32z
M245 178q0 31 -32 31t-32 -31q0 -13 9.5 -22.5t22.5 -9.5t22.5 9.5t9.5 22.5zM231 178q0 -18 -18 -18t-18 18t18 18t18 -18zM141 291q0 -19 -13 -32t-32 -13t-32 13t-13 32t13 32t32 13t32 -13t13 -32zM127 291q0 32 -31 32q-13 0 -22.5 -9.5t-9.5 -22.5q0 -31 32 -31
q31 0 31 31zM114 291q0 -18 -18 -18t-18 18t18 18t18 -18zM260 64q0 -19 -13.5 -32t-32.5 -13t-32 13t-13 32t13 32.5t32 13.5t32.5 -13.5t13.5 -32.5zM246 64q0 13 -9.5 22.5t-22.5 9.5q-31 0 -31 -32q0 -31 31 -31q32 0 32 31zM232 64q0 -18 -18 -18t-18 18t18 18t18 -18z
M142 178q0 -19 -13 -32t-32 -13t-32 13t-13 32t13 32t32 13t32 -13t13 -32zM129 178q0 31 -32 31t-32 -31q0 -13 9.5 -22.5t22.5 -9.5t22.5 9.5t9.5 22.5zM115 178q0 -18 -18 -18t-18 18t18 18t18 -18zM144 64q0 -19 -13.5 -32t-32.5 -13t-32 13t-13 32t13 32.5t32 13.5
t32.5 -13.5t13.5 -32.5zM130 64q0 13 -9.5 22.5t-22.5 9.5q-31 0 -31 -32q0 -31 31 -31q32 0 32 31zM116 64q0 -18 -18 -18t-18 18t18 18t18 -18z" />
    <glyph glyph-name="sterling" unicode="&#xa3;" horiz-adv-x="944" 
d="M812 635q0 -13 -9 -22.5t-23 -9.5q-13 0 -22.5 9.5t-9.5 22.5q0 31 32 31t32 -31zM798 635q0 -18 -18 -18t-18 18t18 18t18 -18zM827 521q0 -18 -13.5 -31.5t-32.5 -13.5q-18 0 -31.5 13.5t-13.5 31.5q0 19 13.5 32t31.5 13q19 0 32.5 -13t13.5 -32zM813 521
q0 -13 -9 -22.5t-23 -9.5q-31 0 -31 32t31 32q14 0 23 -9t9 -23zM799 521q0 -18 -18 -18t-18 18t18 18t18 -18zM712 635q0 -19 -13.5 -32.5t-31.5 -13.5q-19 0 -32 13.5t-13 32.5t13 32t32 13t32 -13t13 -32zM699 635q0 -13 -9.5 -22.5t-22.5 -9.5t-22.5 9.5t-9.5 22.5
q0 31 32 31t32 -31zM685 635q0 -18 -18 -18t-18 18t18 18t18 -18zM828 408q0 -18 -13 -32t-32 -14q-18 0 -32 14t-14 32q0 19 14 32t32 13q19 0 32 -13t13 -32zM814 408q0 -32 -31 -32q-13 0 -22.5 9.5t-9.5 22.5q0 31 32 31q31 0 31 -31zM801 408q0 -18 -18 -18t-18 18
t18 18t18 -18zM714 521q0 -19 -13.5 -32t-32.5 -13t-32 13t-13 32t13 32t32 13t32.5 -13t13.5 -32zM700 521q0 -13 -9.5 -22.5t-22.5 -9.5q-31 0 -31 32t31 32q13 0 22.5 -9.5t9.5 -22.5zM686 521q0 -18 -18 -18t-18 18t18 18t18 -18zM598 633q0 -19 -13.5 -32.5
t-31.5 -13.5q-19 0 -32 13.5t-13 32.5t13 32t32 13t32 -13t13 -32zM585 633q0 -13 -9.5 -22.5t-22.5 -9.5t-22.5 9.5t-9.5 22.5q0 31 32 31t32 -31zM571 633q0 -18 -18 -18t-18 18t18 18t18 -18zM829 294q0 -18 -13 -31.5t-32 -13.5q-18 0 -31.5 13.5t-13.5 31.5
q0 19 13.5 32t31.5 13q19 0 32 -13t13 -32zM815 294q0 -31 -31 -31q-32 0 -32 31q0 14 9.5 23t22.5 9q31 0 31 -32zM802 294q0 -18 -18 -18t-18 18t18 18t18 -18zM715 408q0 -19 -13.5 -32.5t-31.5 -13.5q-19 0 -32.5 13.5t-13.5 32.5t13.5 32t32.5 13t32 -13t13 -32z
M701 408q0 -32 -31 -32q-13 0 -22.5 9.5t-9.5 22.5q0 31 32 31q31 0 31 -31zM688 408q0 -18 -18 -18t-18 18t18 18t18 -18zM482 633q0 -19 -13.5 -32.5t-31.5 -13.5q-19 0 -32 13.5t-13 32.5t13 32t32 13t32 -13t13 -32zM469 633q0 -13 -9.5 -22.5t-22.5 -9.5t-22.5 9.5
t-9.5 22.5q0 31 32 31t32 -31zM455 633q0 -18 -18 -18t-18 18t18 18t18 -18zM817 181q0 -13 -9 -22.5t-23 -9.5q-13 0 -22.5 9.5t-9.5 22.5q0 31 32 31t32 -31zM716 294q0 -19 -13 -32t-32 -13t-32 13t-13 32t13 32t32 13t32 -13t13 -32zM702 294q0 -31 -31 -31
q-32 0 -32 31q0 13 9.5 22.5t22.5 9.5q31 0 31 -32zM689 294q0 -18 -18 -18t-18 18t18 18t18 -18zM367 634q0 -19 -13 -32.5t-32 -13.5t-32 13.5t-13 32.5t13 32t32 13t32 -13t13 -32zM354 634q0 -13 -9.5 -22.5t-22.5 -9.5t-22.5 9.5t-9.5 22.5q0 31 32 31t32 -31zM340 634
q0 -18 -18 -18t-18 18t18 18t18 -18zM704 181q0 -13 -9.5 -22.5t-22.5 -9.5t-22.5 9.5t-9.5 22.5q0 31 32 31t32 -31zM690 181q0 -18 -18 -18t-18 18t18 18t18 -18zM485 406q0 -19 -13.5 -32.5t-31.5 -13.5q-19 0 -32.5 13.5t-13.5 32.5t13.5 32t32.5 13t32 -13t13 -32z
M471 406q0 -32 -31 -32q-13 0 -22.5 9.5t-9.5 22.5q0 31 32 31q31 0 31 -31zM458 406q0 -18 -18 -18t-18 18t18 18t18 -18zM253 632q0 -19 -13 -32.5t-32 -13.5t-32 13.5t-13 32.5t13 32t32 13t32 -13t13 -32zM240 632q0 -13 -9.5 -22.5t-22.5 -9.5t-22.5 9.5t-9.5 22.5
q0 31 32 31t32 -31zM226 632q0 -18 -18 -18t-18 18t18 18t18 -18zM603 179q0 -19 -13 -32t-32 -13t-32 13t-13 32t13 32t32 13t32 -13t13 -32zM590 179q0 -13 -9.5 -22.5t-22.5 -9.5t-22.5 9.5t-9.5 22.5q0 31 32 31t32 -31zM576 179q0 -18 -18 -18t-18 18t18 18t18 -18z
M486 292q0 -19 -13 -32t-32 -13t-32 13t-13 32t13 32t32 13t32 -13t13 -32zM472 292q0 -31 -31 -31q-32 0 -32 31q0 13 9.5 22.5t22.5 9.5q31 0 31 -32zM459 292q0 -18 -18 -18t-18 18t18 18t18 -18zM370 407q0 -19 -13 -32.5t-32 -13.5t-32.5 13.5t-13.5 32.5t13.5 32
t32.5 13t32 -13t13 -32zM356 407q0 -32 -31 -32q-13 0 -22.5 9.5t-9.5 22.5q0 31 32 31q31 0 31 -31zM343 407q0 -18 -18 -18t-18 18t18 18t18 -18zM124 632q0 -13 -9.5 -22.5t-22.5 -9.5t-22.5 9.5t-9.5 22.5q0 31 32 31t32 -31zM110 632q0 -18 -18 -18t-18 18t18 18
t18 -18zM487 179q0 -19 -13 -32t-32 -13t-32 13t-13 32t13 32t32 13t32 -13t13 -32zM474 179q0 -13 -9.5 -22.5t-22.5 -9.5t-22.5 9.5t-9.5 22.5q0 31 32 31t32 -31zM460 179q0 -18 -18 -18t-18 18t18 18t18 -18zM371 293q0 -19 -13 -32t-32 -13t-32 13t-13 32t13 32t32 13
t32 -13t13 -32zM357 293q0 -31 -31 -31q-32 0 -32 31q0 13 9.5 22.5t22.5 9.5q31 0 31 -32zM344 293q0 -18 -18 -18t-18 18t18 18t18 -18zM139 518q0 -19 -13.5 -32t-32.5 -13t-32 13t-13 32t13 32t32 13t32.5 -13t13.5 -32zM125 518q0 -13 -9.5 -22.5t-22.5 -9.5
q-31 0 -31 32t31 32q13 0 22.5 -9.5t9.5 -22.5zM111 518q0 -18 -18 -18t-18 18t18 18t18 -18zM345 180q0 -18 -18 -18t-18 18t18 18t18 -18zM140 405q0 -19 -13 -32.5t-32 -13.5t-32.5 13.5t-13.5 32.5t13.5 32t32.5 13t32 -13t13 -32zM126 405q0 -32 -31 -32
q-13 0 -22.5 9.5t-9.5 22.5q0 31 32 31q31 0 31 -31zM113 405q0 -18 -18 -18t-18 18t18 18t18 -18zM141 291q0 -19 -13 -32t-32 -13t-32 13t-13 32t13 32t32 13t32 -13t13 -32zM127 291q0 -31 -31 -31q-32 0 -32 31q0 13 9.5 22.5t22.5 9.5q31 0 31 -32zM114 291
q0 -18 -18 -18t-18 18t18 18t18 -18zM142 178q0 -19 -13 -32t-32 -13t-32 13t-13 32t13 32t32 13t32 -13t13 -32zM129 178q0 -13 -9.5 -22.5t-22.5 -9.5t-22.5 9.5t-9.5 22.5q0 31 32 31t32 -31zM115 178q0 -18 -18 -18t-18 18t18 18t18 -18zM226 518q0 -18 -18 -18t-18 18
t18 18t18 -18z" />
    <glyph glyph-name="currency" unicode="&#xa4;" horiz-adv-x="1181" 
d="M138 738q0 -19 -13.5 -32t-32.5 -13t-32 13t-13 32t13 32t32 13t32.5 -13t13.5 -32zM124 738q0 13 -9.5 22.5t-22.5 9.5q-31 0 -31 -32t31 -32q13 0 22.5 9.5t9.5 22.5zM110 738q0 -18 -18 -18t-18 18t18 18t18 -18zM137 632q0 -19 -13 -32.5t-32 -13.5t-32 13.5
t-13 32.5t13 32t32 13t32 -13t13 -32zM124 632q0 31 -32 31t-32 -31q0 -13 9.5 -22.5t22.5 -9.5t22.5 9.5t9.5 22.5zM110 632q0 -18 -18 -18t-18 18t18 18t18 -18zM139 518q0 -19 -13.5 -32t-32.5 -13t-32 13t-13 32t13 32t32 13t32.5 -13t13.5 -32zM125 518q0 13 -9.5 22.5
t-22.5 9.5q-31 0 -31 -32t31 -32q13 0 22.5 9.5t9.5 22.5zM111 518q0 -18 -18 -18t-18 18t18 18t18 -18zM140 405q0 -19 -13 -32.5t-32 -13.5t-32.5 13.5t-13.5 32.5t13.5 32t32.5 13t32 -13t13 -32zM126 405q0 31 -31 31q-32 0 -32 -31q0 -13 9.5 -22.5t22.5 -9.5
q31 0 31 32zM113 405q0 -18 -18 -18t-18 18t18 18t18 -18zM141 291q0 -19 -13 -32t-32 -13t-32 13t-13 32t13 32t32 13t32 -13t13 -32zM127 291q0 32 -31 32q-13 0 -22.5 -9.5t-9.5 -22.5q0 -31 32 -31q31 0 31 31zM114 291q0 -18 -18 -18t-18 18t18 18t18 -18zM144 -155
q0 -19 -13.5 -32t-32.5 -13t-32 13t-13 32t13 32.5t32 13.5t32.5 -13.5t13.5 -32.5zM130 -155q0 13 -9.5 22.5t-22.5 9.5q-31 0 -31 -32q0 -31 31 -31q32 0 32 31zM116 -155q0 -18 -18 -18t-18 18t18 18t18 -18z" />
    <glyph glyph-name="yen" unicode="&#xa5;" horiz-adv-x="1000" 
 />
    <glyph glyph-name="brokenbar" unicode="&#xa6;" horiz-adv-x="379" 
d="M254 738q0 -19 -13.5 -32t-32.5 -13t-32 13t-13 32t13 32t32 13t32.5 -13t13.5 -32zM253 632q0 -19 -13 -32.5t-32 -13.5t-32 13.5t-13 32.5t13 32t32 13t32 -13t13 -32zM138 738q0 -19 -13.5 -32t-32.5 -13t-32 13t-13 32t13 32t32 13t32.5 -13t13.5 -32zM255 518
q0 -19 -13.5 -32t-32.5 -13t-32 13t-13 32t13 32t32 13t32.5 -13t13.5 -32zM137 632q0 -19 -13 -32.5t-32 -13.5t-32 13.5t-13 32.5t13 32t32 13t32 -13t13 -32zM139 518q0 -19 -13.5 -32t-32.5 -13t-32 13t-13 32t13 32t32 13t32.5 -13t13.5 -32zM257 291q0 -19 -13 -32
t-32 -13t-32 13t-13 32t13 32t32 13t32 -13t13 -32zM258 178q0 -19 -13 -32t-32 -13t-32 13t-13 32t13 32t32 13t32 -13t13 -32zM141 291q0 -19 -13 -32t-32 -13t-32 13t-13 32t13 32t32 13t32 -13t13 -32zM260 64q0 -19 -13.5 -32t-32.5 -13t-32 13t-13 32t13 32.5t32 13.5
t32.5 -13.5t13.5 -32.5zM142 178q0 -19 -13 -32t-32 -13t-32 13t-13 32t13 32t32 13t32 -13t13 -32zM144 64q0 -19 -13.5 -32t-32.5 -13t-32 13t-13 32t13 32.5t32 13.5t32.5 -13.5t13.5 -32.5z" />
    <glyph glyph-name="section" unicode="&#xa7;" horiz-adv-x="835" 
d="M808 384q0 -76 -20 -130q-30 -79 -66 -121q-23 -27 -55 -55q-10 -9 -50 -34q-51 -31 -68 -31q-2 0 -22 -7.5t-33 -7.5q-3 0 -8.5 -1.5t-9.5 -1.5t-11.5 -2t-10.5 -3q-42 -3 -85 0q-14 1 -24 1q-30 0 -86 26q-43 19 -72 39q-40 28 -80 74q-54 62 -72 133q-17 68 -17 121
q0 137 84 245q91 117 243 144q30 6 109 6q4 0 11 -3t10.5 -3t27.5 -6.5t27 -6.5q20 0 100 -44q91 -60 138 -156q40 -84 40 -176zM790 384q0 43 -19 117q-15 56 -68 122q-58 72 -119 97q-55 22 -63 22q-4 0 -37 9t-37 9q-119 0 -200 -37q-98 -47 -163 -158q-48 -82 -48 -181
q0 -66 23 -127q35 -97 115.5 -165t179.5 -82q28 -3 93 -3q4 0 12 1.5t12 1.5t8.5 1.5t8.5 1.5t27.5 7.5t25.5 7.5t44 19q69 32 119 94q25 32 47 76q39 79 39 167zM644 633q0 -8 -16 -45t-22 -37q-5 0 -19 7q0 2 1 6q5 2 17 10q-2 12 -11.5 39t-9.5 30q0 4 4 8q19 -12 19 -40
q3 0 8 -6q6 12 18 37q11 0 11 -9zM577 619q0 -29 -25 -29q-4 0 -15.5 2t-16.5 2v41.5v42.5q15 -8 15 -25q3 -1 8.5 1.5t8.5 2.5q8 0 16.5 -15t8.5 -23zM438 637q-7 -8 -25 -9t-18 -10q0 -5 8 -13q5 0 14 9h11q0 -8 -1 -11q-5 -10 -15 -10h-11q-13 0 -21 16q-6 12 -6 19
q0 38 44 38q4 0 9.5 -10t10.5 -19zM371 594q-40 -10 -47 -10q-17 0 -17 27q0 22 19 35q7 2 23 10q3 10 3 12t5 7q1 0 9 -5q5 -18 5 -17v-59zM297 657q-1 0 -6.5 -1.5t-6.5 -1.5q-7 6 -1 18h14v-15zM495 446q0 -11 -12 -11q-4 0 -18 7v11q10 0 23 6q7 -7 7 -13zM304 637
q0 -2 -6 -9q-1 -11 -1 -53q-1 0 -7.5 -1.5t-9.5 -1.5q0 3 -1.5 8.5t-1.5 9.5q0 24 7 56q4 1 12 5q8 -8 8 -14zM431 448q-8 -5 -26 -16l-1.5 7.5t-1.5 16.5l8 1.5t18 1.5l3 -3v-8zM272 638l-10 -38q-6 -22 -17 -37q-15 5 -32 57q1 0 3.5 2t6.5 2t8.5 -10t7.5 -18
q11 3 16.5 21.5t16.5 20.5zM204 638l-4 -14h-14v9q-1 5 2.5 6t3.5 2q8 0 12 -3zM538 270l-11 5l5 31zM206 555q-5 -9 -20 -16q-1 46 3 73l-3 5h20v-62zM656 336q0 -24 -7 -34q-17 -16 -47 -52q0 -5 -5 -15q-18 -22 -54 -24q-30 -1 -61 -2q-6 -4 -4 -9q-37 -23 -48 -23
q-3 0 -17 7.5t-18 7.5t-40.5 -6t-39.5 -6q-34 0 -73 16.5t-58 16.5q-22 0 -62 -11q6 7 46 23t46 16q8 0 35 -24.5t43 -24.5h39q27 0 59 13q5 2 6 3.5t1 3.5q-2 4 -2 7q54 2 153 7q25 2 38 17q3 3 7 43q0 -5 7 -18q11 15 11 24q0 4 -6 21.5t-6 21.5q0 11 12 23q2 7 -11 7
q-17 0 -45 -25q1 -3 4 -3q-8 -9 -16 -10q-32 -7 -70 -7q4 0 -66 20q31 2 31 19q0 13 -18 24q5 -2 19 -8.5t18 -6.5q10 0 17 12q4 10 8 19v-31h24q11 6 35 15q-8 -8 -15 -22v-17l0.5 -1.5t5.5 -1.5l28 20q6 4 39 18q0 7 -4 17q-54 64 -146 106l-6 -6q-18 -3 -81 -24
q20 17 43 29q10 3 20 5q14 5 19 15h-50q-5 -1 -49 -20q-49 -21 -75 -36q-3 -2 -50 -36q-40 -30 -46 -30h-65q20 12 23 12q4 0 5 -1.5t4 -1.5q29 0 39 6q22 19 73 56q45 29 79 43q63 25 78 25q47 0 95 -31q38 -26 64 -60q13 -13 37 -46q6 -9 -4 -19q3 -6 16 -9t14 -3
q24 -20 24 -34zM179 539q-41 -25 -47 -25q-15 0 -13 26q0 23 23 46q12 2 14.5 8t8.5 23h11q3 -26 3 -78zM571 107q0 -23 -10 -42q-3 -4 -9 -9q-2 0 -8 -3.5t-11 -3.5q-18 0 -29 23q-9 18 -9 38q0 10 2 17q4 12 20.5 23.5t24.5 11.5q17 0 24 -26q5 -15 5 -29zM486 117l-7 -7
q-2 1 -9 16q-5 11 -10 11q-21 0 -21 -44q0 -27 5 -46q-13 -7 -21 -3v79q-1 6 12.5 19.5t18.5 13.5q32 0 32 -23v-16zM407 98q-6 0 -23.5 1.5t-20.5 1.5q-10 0 -10 -9q0 -34 23.5 -34t27.5 -4q-8 -11 -24 -11q-20 0 -31.5 18t-11.5 35q0 29 11 39.5t39 10.5q6 0 13 -11t7 -17
v-20zM325 135q-17 -17 -52 -56q33 -9 37 -9q11 0 15 -4v-10q-35 5 -50 5l-9 -3q-6 0 -20 7v14q12 20 52 54q-3 7 -25.5 10.5t-26.5 10.5v10q29 -6 79 -15v-14zM559 606v29q-7 7 -12 7q-4 0 -12 -7v-26q8 -7 14 -7t10 4zM412 640q3 8 -10 14l-7 -7v-11h14zM517 487l-17 10
l-2 -4l17 -10zM349 618q0 17 -10 18q-14 3 -14 -22q0 -11 4 -18h13q7 8 7 22zM641 324v20q-5 0 -12 1.5t-11 1.5q-10 0 -10 -18q0 -11 7 -31q1 1 13 4q13 11 13 22zM161 558q0 15 -11 20q-16 -19 -16 -30q0 -4 1.5 -9t1.5 -6q1 0 2 1t5 1q17 0 17 23zM465 209q-5 0 -16 2
t-14 2q-12 0 -19 -14q8 -4 19 -4q18 0 30 14zM556 107q0 39 -15 39q-13 0 -21.5 -12t-8.5 -29q4 -38 21 -38q4 0 4 1.5t3 1.5q17 0 17 37zM395 114q-3 6 -10.5 13t-10.5 7q-15 0 -18 -20q40 0 39 0z" />
    <glyph glyph-name="copyright" unicode="&#xa9;" horiz-adv-x="683" 
d="M599 739q0 -19 -13.5 -32t-32.5 -13t-32 13t-13 32t13 32t32 13t32.5 -13t13.5 -32zM483 739q0 -19 -13.5 -32t-32.5 -13t-32 13t-13 32t13 32t32 13t32.5 -13t13.5 -32zM368 740q0 -19 -13.5 -32t-32.5 -13t-32 13t-13 32t13 32t32 13t32.5 -13t13.5 -32zM254 738
q0 -19 -13.5 -32t-32.5 -13t-32 13t-13 32t13 32t32 13t32.5 -13t13.5 -32zM485 405q0 -19 -13.5 -32.5t-31.5 -13.5q-19 0 -32.5 13.5t-13.5 32.5t13.5 32t32.5 13t32 -13t13 -32zM253 632q0 -19 -13 -32.5t-32 -13.5t-32 13.5t-13 32.5t13 32t32 13t32 -13t13 -32z
M138 738l-1 -106q0 -19 -13 -32.5t-32 -13.5t-32 13.5t-13 32.5v106q0 19 13 32t32 13t32.5 -13t13.5 -32zM255 518q0 -19 -13.5 -32t-32.5 -13t-32 13t-13 32t13 32t32 13t32.5 -13t13.5 -32zM370 405q0 -19 -13 -32.5t-32 -13.5h-114q-19 0 -32.5 13.5t-13.5 32.5t13.5 32
t32.5 13h114q19 0 32 -13t13 -32zM605 65q0 -19 -13.5 -32t-32.5 -13t-32 13t-13 32t13 32.5t32 13.5t32.5 -13.5t13.5 -32.5zM139 518q0 -19 -13.5 -32t-32.5 -13t-32 13t-13 32t13 32t32 13t32.5 -13t13.5 -32zM489 65q0 -19 -13.5 -32t-32.5 -13t-32 13t-13 32t13 32.5
t32 13.5t32.5 -13.5t13.5 -32.5zM257 291q0 -19 -13 -32t-32 -13t-32 13t-13 32t13 32t32 13t32 -13t13 -32zM140 405q0 -19 -13 -32.5t-32 -13.5t-32.5 13.5t-13.5 32.5t13.5 32t32.5 13t32 -13t13 -32zM374 66q0 -19 -13.5 -32t-32.5 -13t-32 13t-13 32t13 32.5t32 13.5
t32.5 -13.5t13.5 -32.5zM258 178q0 -19 -13 -32t-32 -13t-32 13t-13 32t13 32t32 13t32 -13t13 -32zM141 291q0 -19 -13 -32t-32 -13t-32 13t-13 32t13 32t32 13t32 -13t13 -32zM260 64q0 -19 -13.5 -32t-32.5 -13t-32 13t-13 32t13 32.5t32 13.5t32.5 -13.5t13.5 -32.5z
M142 178q0 -19 -13 -32t-32 -13t-32 13t-13 32t13 32t32 13t32 -13t13 -32zM144 64q0 -19 -13.5 -32t-32.5 -13t-32 13t-13 32t13 32.5t32 13.5t32.5 -13.5t13.5 -32.5z" />
    <glyph glyph-name="ordfeminine" unicode="&#xaa;" horiz-adv-x="836" 
d="M699 635q0 -13 -9.5 -22.5t-22.5 -9.5t-22.5 9.5t-9.5 22.5q0 31 32 31t32 -31zM685 635q0 -18 -18 -18t-18 18t18 18t18 -18zM585 739q0 -13 -9.5 -22.5t-22.5 -9.5q-31 0 -31 32t31 32q13 0 22.5 -9.5t9.5 -22.5zM571 739q0 -18 -18 -18t-18 18t18 18t18 -18zM714 521
q0 -19 -13.5 -32t-32.5 -13t-32 13t-13 32t13 32t32 13t32.5 -13t13.5 -32zM700 521q0 -13 -9.5 -22.5t-22.5 -9.5q-31 0 -31 32t31 32q13 0 22.5 -9.5t9.5 -22.5zM686 521q0 -18 -18 -18t-18 18t18 18t18 -18zM598 633q0 -19 -13.5 -32.5t-31.5 -13.5q-19 0 -32 13.5
t-13 32.5t13 32t32 13t32 -13t13 -32zM585 633q0 -13 -9.5 -22.5t-22.5 -9.5t-22.5 9.5t-9.5 22.5q0 31 32 31t32 -31zM571 633q0 -18 -18 -18t-18 18t18 18t18 -18zM483 739q0 -19 -13.5 -32t-32.5 -13t-32 13t-13 32t13 32t32 13t32.5 -13t13.5 -32zM469 739
q0 -13 -9.5 -22.5t-22.5 -9.5q-31 0 -31 32t31 32q13 0 22.5 -9.5t9.5 -22.5zM455 739q0 -18 -18 -18t-18 18t18 18t18 -18zM715 408q0 -19 -13.5 -32.5t-31.5 -13.5q-19 0 -32.5 13.5t-13.5 32.5t13.5 32t32.5 13t32 -13t13 -32zM701 408q0 -32 -31 -32q-13 0 -22.5 9.5
t-9.5 22.5q0 31 32 31q31 0 31 -31zM688 408q0 -18 -18 -18t-18 18t18 18t18 -18zM600 519q0 -19 -13.5 -32t-32.5 -13t-32 13t-13 32t13 32t32 13t32.5 -13t13.5 -32zM586 519q0 -13 -9.5 -22.5t-22.5 -9.5q-31 0 -31 32t31 32q13 0 22.5 -9.5t9.5 -22.5zM572 519
q0 -18 -18 -18t-18 18t18 18t18 -18zM482 633q0 -19 -13.5 -32.5t-31.5 -13.5q-19 0 -32 13.5t-13 32.5t13 32t32 13t32 -13t13 -32zM469 633q0 -13 -9.5 -22.5t-22.5 -9.5t-22.5 9.5t-9.5 22.5q0 31 32 31t32 -31zM455 633q0 -18 -18 -18t-18 18t18 18t18 -18zM368 740
q0 -19 -13.5 -32t-32.5 -13t-32 13t-13 32t13 32t32 13t32.5 -13t13.5 -32zM354 740q0 -13 -9.5 -22.5t-22.5 -9.5q-31 0 -31 32t31 32q13 0 22.5 -9.5t9.5 -22.5zM340 740q0 -18 -18 -18t-18 18t18 18t18 -18zM716 294q0 -19 -13 -32t-32 -13t-32 13t-13 32t13 32t32 13
t32 -13t13 -32zM702 294q0 -31 -31 -31q-32 0 -32 31q0 13 9.5 22.5t22.5 9.5q31 0 31 -32zM689 294q0 -18 -18 -18t-18 18t18 18t18 -18zM601 406q0 -19 -13.5 -32.5t-31.5 -13.5q-19 0 -32.5 13.5t-13.5 32.5t13.5 32t32.5 13t32 -13t13 -32zM587 406q0 -32 -31 -32
q-13 0 -22.5 9.5t-9.5 22.5q0 31 32 31q31 0 31 -31zM574 406q0 -18 -18 -18t-18 18t18 18t18 -18zM367 634q0 -19 -13 -32.5t-32 -13.5t-32 13.5t-13 32.5t13 32t32 13t32 -13t13 -32zM354 634q0 -13 -9.5 -22.5t-22.5 -9.5t-22.5 9.5t-9.5 22.5q0 31 32 31t32 -31z
M340 634q0 -18 -18 -18t-18 18t18 18t18 -18zM240 738q0 -13 -9.5 -22.5t-22.5 -9.5q-31 0 -31 32t31 32q13 0 22.5 -9.5t9.5 -22.5zM226 738q0 -18 -18 -18t-18 18t18 18t18 -18zM717 181q0 -19 -13 -32t-32 -13t-32 13t-13 32t13 32t32 13t32 -13t13 -32zM704 181
q0 -13 -9.5 -22.5t-22.5 -9.5t-22.5 9.5t-9.5 22.5q0 31 32 31t32 -31zM690 181q0 -18 -18 -18t-18 18t18 18t18 -18zM602 292q0 -19 -13 -32t-32 -13t-32 13t-13 32t13 32t32 13t32 -13t13 -32zM588 292q0 -31 -31 -31q-32 0 -32 31q0 13 9.5 22.5t22.5 9.5q31 0 31 -32z
M575 292q0 -18 -18 -18t-18 18t18 18t18 -18zM253 632q0 -19 -13 -32.5t-32 -13.5t-32 13.5t-13 32.5t13 32t32 13t32 -13t13 -32zM240 632q0 -13 -9.5 -22.5t-22.5 -9.5t-22.5 9.5t-9.5 22.5q0 31 32 31t32 -31zM226 632q0 -18 -18 -18t-18 18t18 18t18 -18zM719 67
q0 -19 -13.5 -32t-32.5 -13t-32 13t-13 32t13 32.5t32 13.5t32.5 -13.5t13.5 -32.5zM705 67q0 -31 -32 -31q-31 0 -31 31q0 32 31 32q13 0 22.5 -9.5t9.5 -22.5zM691 67q0 -18 -18 -18t-18 18t18 18t18 -18zM603 179q0 -19 -13 -32t-32 -13t-32 13t-13 32t13 32t32 13
t32 -13t13 -32zM590 179q0 -13 -9.5 -22.5t-22.5 -9.5t-22.5 9.5t-9.5 22.5q0 31 32 31t32 -31zM576 179q0 -18 -18 -18t-18 18t18 18t18 -18zM486 292q0 -19 -13 -32t-32 -13t-32 13t-13 32t13 32t32 13t32 -13t13 -32zM472 292q0 -31 -31 -31q-32 0 -32 31q0 13 9.5 22.5
t22.5 9.5q31 0 31 -32zM459 292q0 -18 -18 -18t-18 18t18 18t18 -18zM255 518q0 -19 -13.5 -32t-32.5 -13t-32 13t-13 32t13 32t32 13t32.5 -13t13.5 -32zM241 518q0 -13 -9.5 -22.5t-22.5 -9.5q-31 0 -31 32t31 32q13 0 22.5 -9.5t9.5 -22.5zM227 518q0 -18 -18 -18t-18 18
t18 18t18 -18zM124 632q0 -13 -9.5 -22.5t-22.5 -9.5t-22.5 9.5t-9.5 22.5q0 31 32 31t32 -31zM110 632q0 -18 -18 -18t-18 18t18 18t18 -18zM605 65q0 -19 -13.5 -32t-32.5 -13t-32 13t-13 32t13 32.5t32 13.5t32.5 -13.5t13.5 -32.5zM591 65q0 -31 -32 -31q-31 0 -31 31
q0 32 31 32q13 0 22.5 -9.5t9.5 -22.5zM577 65q0 -18 -18 -18t-18 18t18 18t18 -18zM371 293q0 -19 -13 -32t-32 -13t-32 13t-13 32t13 32t32 13t32 -13t13 -32zM357 293q0 -31 -31 -31q-32 0 -32 31q0 13 9.5 22.5t22.5 9.5q31 0 31 -32zM344 293q0 -18 -18 -18t-18 18
t18 18t18 -18zM256 405q0 -19 -13 -32.5t-32 -13.5t-32.5 13.5t-13.5 32.5t13.5 32t32.5 13t32 -13t13 -32zM242 405q0 -32 -31 -32q-13 0 -22.5 9.5t-9.5 22.5q0 31 32 31q31 0 31 -31zM229 405q0 -18 -18 -18t-18 18t18 18t18 -18zM139 518q0 -19 -13.5 -32t-32.5 -13
t-32 13t-13 32t13 32t32 13t32.5 -13t13.5 -32zM125 518q0 -13 -9.5 -22.5t-22.5 -9.5q-31 0 -31 32t31 32q13 0 22.5 -9.5t9.5 -22.5zM111 518q0 -18 -18 -18t-18 18t18 18t18 -18zM257 291q0 -19 -13 -32t-32 -13t-32 13t-13 32t13 32t32 13t32 -13t13 -32zM243 291
q0 -31 -31 -31q-32 0 -32 31q0 13 9.5 22.5t22.5 9.5q31 0 31 -32zM230 291q0 -18 -18 -18t-18 18t18 18t18 -18zM140 405q0 -19 -13 -32.5t-32 -13.5t-32.5 13.5t-13.5 32.5t13.5 32t32.5 13t32 -13t13 -32zM126 405q0 -32 -31 -32q-13 0 -22.5 9.5t-9.5 22.5q0 31 32 31
q31 0 31 -31zM113 405q0 -18 -18 -18t-18 18t18 18t18 -18zM258 178q0 -19 -13 -32t-32 -13t-32 13t-13 32t13 32t32 13t32 -13t13 -32zM245 178q0 -13 -9.5 -22.5t-22.5 -9.5t-22.5 9.5t-9.5 22.5q0 31 32 31t32 -31zM231 178q0 -18 -18 -18t-18 18t18 18t18 -18zM141 291
q0 -19 -13 -32t-32 -13t-32 13t-13 32t13 32t32 13t32 -13t13 -32zM127 291q0 -31 -31 -31q-32 0 -32 31q0 13 9.5 22.5t22.5 9.5q31 0 31 -32zM114 291q0 -18 -18 -18t-18 18t18 18t18 -18zM260 64q0 -19 -13.5 -32t-32.5 -13t-32 13t-13 32t13 32.5t32 13.5t32.5 -13.5
t13.5 -32.5zM246 64q0 -31 -32 -31q-31 0 -31 31q0 32 31 32q13 0 22.5 -9.5t9.5 -22.5zM232 64q0 -18 -18 -18t-18 18t18 18t18 -18zM142 178q0 -19 -13 -32t-32 -13t-32 13t-13 32t13 32t32 13t32 -13t13 -32zM129 178q0 -13 -9.5 -22.5t-22.5 -9.5t-22.5 9.5t-9.5 22.5
q0 31 32 31t32 -31zM115 178q0 -18 -18 -18t-18 18t18 18t18 -18zM144 64q0 -19 -13.5 -32t-32.5 -13t-32 13t-13 32t13 32.5t32 13.5t32.5 -13.5t13.5 -32.5zM130 64q0 -31 -32 -31q-31 0 -31 31q0 32 31 32q13 0 22.5 -9.5t9.5 -22.5zM116 64q0 -18 -18 -18t-18 18t18 18
t18 -18z" />
    </font>
</defs>
</svg>
