<?xml version="1.0" encoding="UTF-8" standalone="no"?>
<!-- Created with Inkscape (http://www.inkscape.org/) -->

<svg
   xmlns:svg="http://www.w3.org/2000/svg"
   xmlns="http://www.w3.org/2000/svg"
   version="1.1"
   width="595.276pt"
   height="841.89001pt"
   viewBox="0 0 595.276 841.89"
   id="svg2856"
   style="fill-rule:evenodd">
  <defs
     id="defs2858">
    <marker
       markerUnits="strokeWidth"
       refX="0"
       refY="5"
       markerWidth="4"
       markerHeight="3"
       orient="auto"
       viewBox="0 0 10 10"
       id="ArrowEnd">
      <path
         d="M 0,0 10,5 0,10 z"
         id="path2861" />
    </marker>
    <marker
       markerUnits="strokeWidth"
       refX="10"
       refY="5"
       markerWidth="4"
       markerHeight="3"
       orient="auto"
       viewBox="0 0 10 10"
       id="ArrowStart">
      <path
         d="M 10,0 0,5 10,10 z"
         id="path2864" />
    </marker>
  </defs>
  <g
     id="g2866">
    <path
       d="m 573.4,841.24 l -41.3,-4.25 -40.35,-6.75 -39.45,-9.3 -38.5,-11.85 -37.6,-14.3 -36.65,-16.9 -35.75,-19.4 -34.8,-21.95 -15,-9.7 -4.6,-1.4 -3.65,4.5 -7.1,8.9 -7.2,8.9 -3.95,4.45 -2.5,0.05 -5.95,-4.6 -13,-11.05 -21.5,-18.3 -27.65,-23.5 11.85,-11.5 10.1,-9.75 3.6,-5.6 -2.65,-5.25 -8.5,-8.65 -31.7,-35.4 -28.75,-37.75 -25.7,-39.9 -22.55,-41.8 -19.25,-43.4 -15.9,-44.85 -12.3,-46 -8.7,-46.95 -4.5,-39.9 -1.9,-40.1 0.65,-40.05 3.2,-39.75 4.75,-33.35 6.55,-32.9002 8.25,-32.35 10,-31.7 11.7,-31.05002 13.3,-30.29998 14.95,-29.5 16.5,-28.65 18.05,-27.7498 19.5,-26.75 21,-25.7 22.4,-24.65 23.75,-23.45 25.15,-22.25 26.45,-20.95 27.7,-19.6 33.55,-20.85 34.85,-18.55 35.95,-16.25 37,-13.95 37.9,-11.5 38.7,-9.1 39.35,-6.65 39.9,-4.1 42.3,-1 42.3,1 32.4,3.15 32.05,4.8 31.7,6.45 31.2,8.05 30.7,9.65 30.15,11.25 29.45,12.8 28.7,14.35 12.65,6.65 5.5,2.8 3.6,-5.95 8,-14.3 8.1,-14.75 3.9,-6.9 3.1,0.2 9.65,5.25 31,19.1 29.8,20.9 28.55,22.5 27.25,24.05 25.8,25.6 24.25,26.95 22.7,28.25 20.95,29.5 20.2,32.25 18.15,33.1998 16.05,34.05 13.95,34.94997 11.85,35.75003 9.75,36.55 7.6,37.3002 5.45,38.05 3.1,38.75 0.9,26.1 -7.1,0.55 -16.45,0.65 -23.15,0.7 -0.55,33.65 -1.15,36.3 -3.15,30.8 -5.4,35.1 -7.45,34.5 -9.35,33.9 -11.3,33.15 -13.15,32.4 -14.95,31.55 -16.7,30.6 -18.4,29.6 -20.1,28.55 -21.7,27.4 -23.25,26.15 -24.8,24.9 -26.25,23.5 -27.65,22.1 -29.05,20.6 -30.4,19 -38.25,20.05 -39.05,17.9 -42.55,15.45 -42.4,12.05 -43.55,8.95 -45.95,6.15 -48.5,1.9 -48.75,-0.5 z m -33.5,-81.45 4.5,-33.65 4.75,-32.45 3.55,0.25 8.2,1 43.35,2.05 45.3,-0.65 27.65,-2.95 27.2,-4.5 26.45,-5.95 25.4,-7.3 7.75,-2.4 3.35,-0.8 3.35,9.35 7.65,22 7.8,22.2 3.6,9.95 21.05,-6.65 39.6,-17.55 35.5,-19.2 34.65,-22.25 32.65,-24.55 29.75,-26.2 11.1,-10.6 -24.3,-24.35 -24.3,-24.3 7.6,-7.75 7.8,-8.25 8.05,-9 18.65,-23.35 15.05,-20.7 1.6,-2 1.4,-0.55 8.75,5.55 19.25,12.6 19.25,12.6 8.65,5.5 13.15,-19.15 20.05,-36.1 15.05,-33.1 13.65,-36.35 5.45,-16.05 -2.25,-0.9 -10.5,-3.35 -22.2,-6.75 -21.6,-6.5 -9.1,-2.8 0.6,-2.6 1.65,-6.05 6.35,-25.75 5.05,-28 3.6,-29.55 2.05,-30.4 0.7,-17.25 34.35,0 34.3,0 -0.45,-4.25 -0.45,-7.55 -0.5,-12.2 -2.95,-36.7 -6.2,-38.8 -6.2,-27.8502 -7.65,-27.3 -9.05,-26.75 -10.4,-26.1 -11.7,-25.50001 -13,-24.74999 -14.25,-24.0501 -15.45,-23.25 -16.65,-22.3997 -17.85,-21.55 -18.95,-20.6 -20.05,-19.65 -21.1,-18.65 -22.15,-17.55 -23.15,-16.45 -24.15,-15.35 -13.6,-7.75 -4.1,-0.9 -5.3,9.4 -11.35,20.65 -15.75,28.65 -14.5,-7.3 -25.6,-12 -25.2,-10 -10.45,-4 -4.5,-2.15 2.85,-9.95 7.25,-22.75 10.4,-31.8 -2.35,-0.9 -4.7,-1.5 -7.95,-2.35 -34.7,-8.85 -34.9,-6.5 -35.2,-4.15 -35.5,-1.8 -17,-0.3 0.05,34.15 0.1,34.15 -10.6,0.6 -46.25,4.3 -42.7,7.55 -40.4,11.05 -39.5,14.9 -6.65,2.75 -2.95,0.9 -4.25,-9.2 -9.85,-21.65 -9.9,-21.65 -4.25,-9.25 -18.3,8.6 -28.5,15.4 -29.75,18.6 -27.7,19.95 -26.45,22.05 -26.2,24.75 -27.6,29.2 -23.15,28.7997 -16.95,24.1001 -15.6,25 -14.25,25.8 -12.75,26.49997 -11.35,27.15003 -9.8,27.75 -8.3,28.15 -6.7,28.6002 -5.05,28.9 -2.35,18.45 10.1,1.4 23.9,2.85 23.85,2.8 10.05,1.35 -0.1,2.05 -0.55,4.7 -1.5,38.5 0.6,41.5 3.4,31.7 5.4,31.05 7.35,30.35 9.25,29.6 11.2,28.8 13.1,28.05 15.05,27.15 16.9,26.3 22.7,30.2 25,28.25 26.95,25.9 28.65,23.3 8.45,6.3 4.05,3.1 -15.8,24.45 -21.8,31.15 4.85,4.9 14.45,9.75 20.25,12.15 22.15,12.1 38.7,18.15 40.05,14.85 42.05,11.8 44.7,8.95 5.5,0.5 1.5,-1.3 z m 49.6,-157.55 -28.85,-3.1 -28.25,-5.15 -27.6,-7.25 -26.9,-9.3 -26.1,-11.35 -25.2,-13.3 -24.3,-15.25 -23.25,-17.2 -23.65,-20.7 -22.1,-23 -20.2,-24.8 -17.7,-26 -10.45,-18 -9.35,-18.5 -8.35,-18.9 -7.2,-19.25 -6.2,-19.6 -5.05,-19.85 -4,-20.05 -2.85,-20.2 -1.8,-20.35 -0.7,-20.45 0.45,-20.45 1.55,-20.45 2.7,-20.35 3.8,-20.3 4.95,-20.1 6.05,-19.9 10.05,-26.4003 12,-25.5499 13.85,-24.55 15.65,-23.45004 17.4,-22.24996 19,-20.85 20.55,-19.45 21.95,-17.8 20.5,-14.3501 21.4,-12.8499 22.2,-11.3498 23.05,-9.85 23.85,-8.4 24.6,-6.85 25.35,-5.3 26.05,-3.8 39.4,-1.25 40.1,1.8 32.5,5.3 31.45,7.85 30.35,10.35 29.1,12.85 27.85,15.2497 26.55,17.7001 25.1,20.0499 23.6,22.4001 22.2,25.04996 19.65,26.54994 17,27.9001 14.4,29 11.75,30.0002 9.1,30.7 6.4,31.35 3.75,31.65 1.05,31.9 -1.65,31.95 -4.35,31.7 -7.1,31.4 -9.85,30.8 -12.65,30.05 -15.4,29.15 -18.2,28.05 -23.2,29.35 -25.65,26.6 -27.95,23.8 -30,20.85 -31.9,17.75 -33.6,14.6 -35.15,11.3 -36.45,7.9 -13.65,2.05 -11.55,1.45 -30.3,1.45 -29.6,-0.45 z m 11.05,-80.95 0.85,-17.95 0.4,-8.65 2.6,-1.9 15.75,-0.85 28.95,-2.3 26.4,-4.9 20.25,-5.75 12.3,-4.5 -3.45,-10.65 -9.3,-24.55 -9.65,-25 -4.35,-11.55 1,-2.25 6.45,-3.1 17.9,-9.25 18.25,-12.05 15.2,-12.85 13.8,-14.5 12.2,-15.9 10.5,-17.2 3.85,-7.15 35.3,16.9 25.05,11.95 10.55,4.95 4.9,-10.8 7.25,-19.5 5.55,-18.45 3.9,-18.05 2.45,-18.6 1.2,-20.1 0,-19.55 -1.2,-17.95 -2.5,-17.45 -4,-18.05 -2.05,-8.2 -1.1,-4.25 5.35,-2.9 19.8,-6.65 21.15,-7.1 4,-3 -11.75,-30.2 -14.75,-30.3502 -4.8,0.8 -19.7,11 -16.5,9.45 -7,3.75 -1.45,-2.3 -3.2,-5.05 -22.9,-30.95 -19.1,-20.55 -6.3,4.35 -22.15,23.15 -26.65,28.5 -7.2,-6.0501 -12,-9.1999 -13.35,-8.5501 -14.15,-7.5499 -14.45,-6.3 -20.1,-6.1501 -19.25,-3.8499 -4.7,-0.6501 -2.7,-0.6999 -0.2,-8.7 2.6,-30.35005 2.4,-27.19995 0.65,-11.65 -7.55,-0.4001 -17.25,-0.1499 -18.2,0.3 -14.8,1.15 -14.1,2.25 -16.05,3.75 -17.4,5.05 -17.1,6.1499 -16.35,7.15007 -15.2,7.950013 -6.05,3.450007 -13.85,-22.89999 -10.05,-16.1501 -4.6,-6.6999 -14.2,9.05 -20.7,15.3 -10.3,8.69998 -10.1,9.099978 -9.85,9.350032 19.65,18.85001 19.6,18.8499 -5.25,6 -12.9,15.6001 -11.4,16.2 -15.25,26.2502 -13.85,32.35 9.55,4.15 26.3,9.25 25.85,8.85 11.25,4.1 -0.35,3.85 -1.8,8.25 -3.2,14.4 -2.5,16.85 -0.6,4.8 -6.65,-0.6 -14.1,-1 -24.5,-1.55 -25.85,-1.4 -7,0.65 -0.3,20.65 2.05,29.15 1.75,10.85 1.9,10 1.2,6.85 0,3.3 -7.95,2.45 -17.9,4.8 -16.3,4.15 -7.1,3.25 -0.45,5.55 3.55,10.8 9.2,25.15 11.15,24 12.95,22.85 14.75,21.6 16.45,20.25 18.2,18.85 19.75,17.4 21.35,15.8 30.05,18.15 31.55,14.6 32.8,11 33.8,7.3 20.55,2.75 13.25,0.9 2.5,-0.1 1.15,-24.5 z m -30.65,-80.55 -21.25,-5.7 -20.2,-7.55 -19.2,-9.35 -18,-11.1 -16.85,-12.75 -15.55,-14.45 -14.15,-16 -12.75,-17.55 -11.5,-20.35 -6.45,-14.1 12.8,-5.45 30.1,-12.6 30.2,-12.65 12.95,-5.45 -0.25,-2.2 -1.5,-4.7 -4.7,-18.45 -1.75,-20.15 1.25,-20.25 4.25,-18.95 5.2,-13.2 6.6,-12.4 7.9,-11.5 9.15,-10.55 10.25,-9.4 11.3,-8.15 12.15,-6.85 13,-5.45 11.6,-3.45 11.8,-2.3 11.8,-1.1 11.85,0 11.75,1.2 11.55,2.35 11.35,3.45 11.05,4.6 12.8,7.05 11.7,8.25 10.45,9.4 9.25,10.5 7.95,11.6 6.65,12.6 5.3,13.55 3.85,14.4 1.8,23.3 -1.9,23.4 -5.05,17.9 -7.15,16.05 -9.6,14.75 -12.2,13.9 -15.1,13.25 -16.4,9.7 -13.75,5.85 -13.8,3.9 -14.4,2.1 -15.7,0.45 -15.15,-0.35 -6.9,46 -6.95,46 -2.5,0.2 -3.65,-0.3 -5.3,-0.95 z m 57.9,-155 9.15,-3.05 8.4,-4.5 7.55,-5.85 6.5,-6.95 5.3,-7.95 4.05,-8.7 2.55,-9.25 0.95,-9.7 -0.9,-12.2 -3.15,-10.95 -5.4,-10.05 -7.85,-9.35 -9.25,-7.75 -9.9,-5.4 -10.85,-3.15 -12.05,-1 -8.15,0.6 -7.9,1.8 -7.55,2.8 -7.05,3.8 -6.5,4.7 -5.75,5.6 -5,6.3 -4,7.05 -4.8,12.95 -1.3,13.6 0.85,9.7 2.4,9.3 3.85,8.7 5.2,7.9 6.45,7 7.5,5.95 8.45,4.7 9.3,3.3 14.15,1.45 14.75,-1.4 z"
       id="path2868"
       style="fill:#000000;stroke:none" />
  </g>
  <g
     id="g2870" />
</svg>
