<?xml version="1.0" encoding="UTF-8" standalone="no"?>
<!-- Created with Inkscape (http://www.inkscape.org/) -->

<svg
   xmlns:dc="http://purl.org/dc/elements/1.1/"
   xmlns:cc="http://creativecommons.org/ns#"
   xmlns:rdf="http://www.w3.org/1999/02/22-rdf-syntax-ns#"
   xmlns:svg="http://www.w3.org/2000/svg"
   xmlns="http://www.w3.org/2000/svg"
   xmlns:sodipodi="http://sodipodi.sourceforge.net/DTD/sodipodi-0.dtd"
   xmlns:inkscape="http://www.inkscape.org/namespaces/inkscape"
   width="128"
   height="128"
   id="svg2"
   sodipodi:version="0.32"
   inkscape:version="0.48.3.1 r9886"
   version="1.0"
   sodipodi:docname="rocket.svg"
   inkscape:export-filename="C:\joanna\Gfx\drawings_vector\nature_plants\fruits\papa_rocket.png"
   inkscape:export-xdpi="90"
   inkscape:export-ydpi="90"
   inkscape:output_extension="org.inkscape.output.svg.inkscape">
  <defs
     id="defs4">
    <inkscape:perspective
       sodipodi:type="inkscape:persp3d"
       inkscape:vp_x="0 : 186.64798 : 1"
       inkscape:vp_y="0 : 1000 : 0"
       inkscape:vp_z="559.62469 : 186.64798 : 1"
       inkscape:persp3d-origin="279.81235 : 124.43199 : 1"
       id="perspective4876" />
  </defs>
  <sodipodi:namedview
     id="base"
     pagecolor="#ffffff"
     bordercolor="#666666"
     borderopacity="1.0"
     gridtolerance="3"
     guidetolerance="10"
     objecttolerance="10"
     inkscape:pageopacity="0.0"
     inkscape:pageshadow="2"
     inkscape:zoom="5.955165"
     inkscape:cx="22.642276"
     inkscape:cy="41.597829"
     inkscape:document-units="px"
     inkscape:current-layer="layer1"
     inkscape:window-width="1305"
     inkscape:window-height="744"
     inkscape:window-x="475"
     inkscape:window-y="42"
     showgrid="false"
     borderlayer="true"
     inkscape:window-maximized="0">
    <inkscape:grid
       type="xygrid"
       id="grid3299"
       visible="true"
       enabled="true"
       spacingx="4px"
       spacingy="4px" />
  </sodipodi:namedview>
  <metadata
     id="metadata7">
    <rdf:RDF>
      <cc:Work
         rdf:about="">
        <dc:format>image/svg+xml</dc:format>
        <dc:type
           rdf:resource="http://purl.org/dc/dcmitype/StillImage" />
      </cc:Work>
    </rdf:RDF>
  </metadata>
  <g
     inkscape:label="Layer 1"
     inkscape:groupmode="layer"
     id="layer1"
     transform="translate(-66.38047,-391.3222)">
    <path
       style="fill:#ffffff;fill-rule:evenodd;stroke:#000000;stroke-width:6;stroke-linecap:butt;stroke-linejoin:round;stroke-miterlimit:4;stroke-opacity:1;stroke-dasharray:none"
       d="m 93.61355,471.51228 c 7.7628,7.51659 15.5256,15.03319 23.2884,22.54978 21.13366,-17.69146 45.44946,-33.25198 59.41936,-57.77348 6.6024,-11.51818 10.17748,-24.67428 10.67935,-37.92185 -21.23615,1.23193 -41.32086,11.22377 -56.25949,26.16922 -14.3986,13.95756 -25.29431,30.91653 -37.12762,46.97633 z"
       id="path3297"
       inkscape:connector-curvature="0"
       sodipodi:nodetypes="cccccc" />
    <path
       style="fill:#ffffff;fill-opacity:1;fill-rule:evenodd;stroke:#000000;stroke-width:3;stroke-linecap:butt;stroke-linejoin:round;stroke-miterlimit:4;stroke-opacity:1;stroke-dashoffset:0;marker:none;visibility:visible;display:inline;overflow:visible;enable-background:accumulate"
       d="m 172.17287,423.46467 c -2.21573,2.37704 -6.09675,2.92724 -8.86563,1.21076 -2.61812,-1.51297 -3.98551,-4.80719 -3.25454,-7.73387 0.69449,-3.21492 3.79678,-5.68792 7.0892,-5.62507 3.14699,-0.0527 6.12923,2.25697 6.85801,5.32001 0.62997,2.39482 -0.0887,5.06585 -1.82704,6.82817 z"
       id="path3301"
       inkscape:connector-curvature="0" />
    <path
       style="fill:#ffffff;fill-opacity:1;fill-rule:evenodd;stroke:#000000;stroke-width:3;stroke-linecap:butt;stroke-linejoin:round;stroke-miterlimit:4;stroke-opacity:1;stroke-dashoffset:0;marker:none;visibility:visible;display:inline;overflow:visible;enable-background:accumulate"
       d="m 158.00199,438.09972 c -2.21573,2.37704 -6.09675,2.92724 -8.86563,1.21076 -2.61812,-1.51297 -3.98551,-4.80719 -3.25454,-7.73387 0.69449,-3.21492 3.79678,-5.68792 7.0892,-5.62507 3.14699,-0.0527 6.12923,2.25697 6.85801,5.32001 0.62997,2.39482 -0.0887,5.06585 -1.82704,6.82817 z"
       id="path3303"
       inkscape:connector-curvature="0" />
    <path
       style="fill:#ffffff;fill-opacity:1;fill-rule:evenodd;stroke:#000000;stroke-width:3;stroke-linecap:butt;stroke-linejoin:round;stroke-miterlimit:4;stroke-opacity:1;stroke-dashoffset:0;marker:none;visibility:visible;display:inline;overflow:visible;enable-background:accumulate"
       d="m 143.63698,452.93528 c -1.7054,1.79419 -4.35189,2.59858 -6.76576,2.0461 -3.08494,-0.62972 -5.48941,-3.536 -5.53821,-6.68305 -0.1689,-3.28869 2.20286,-6.46904 5.39375,-7.26675 2.9016,-0.82488 6.23817,0.43565 7.83471,3.00366 1.80479,2.71215 1.37993,6.60888 -0.92449,8.90004 z"
       id="path3305"
       inkscape:connector-curvature="0" />
    <path
       style="fill:#ffffff;fill-rule:evenodd;stroke:#000000;stroke-width:6;stroke-linecap:butt;stroke-linejoin:round;stroke-miterlimit:4;stroke-opacity:1;stroke-dasharray:none"
       d="m 114.34141,442.57251 c -7.20782,-0.88319 -15.732834,-2.58774 -22.009325,2.11101 -9.819344,8.63688 -14.149161,21.55655 -18.491554,33.49665 6.591006,-2.28599 13.182011,-4.57198 19.773017,-6.85797 6.909292,-9.58323 13.818572,-19.16646 20.727862,-28.74969 z"
       id="path3307"
       inkscape:connector-curvature="0"
       sodipodi:nodetypes="ccccc" />
    <path
       style="fill:#ffffff;fill-rule:evenodd;stroke:#000000;stroke-width:6;stroke-linecap:butt;stroke-linejoin:round;stroke-miterlimit:4;stroke-opacity:1;stroke-dasharray:none"
       d="m 117.94778,493.66465 c -2.07245,6.66124 -4.1449,13.32247 -6.21735,19.98371 11.794,-4.72484 24.56745,-9.46868 32.88349,-19.56119 4.49408,-6.42463 2.51574,-14.89029 1.40079,-22.06591 -9.35564,7.21446 -18.71129,14.42893 -28.06693,21.64339 z"
       id="path3309"
       inkscape:connector-curvature="0"
       sodipodi:nodetypes="ccccc" />
  </g>
</svg>
